<svg id="Baggrundsfarve" xmlns="http://www.w3.org/2000/svg" width="1366" height="822" viewBox="0 0 1366 822"><defs><style>.cls-1{fill:#f1eee9;}.cls-2{fill:#f2b0b4;opacity:0.79;}.cls-3{fill:#f6f6f8;}.cls-4{fill:#e7b836;}.cls-5{fill:#d32b16;}.cls-6{fill:#2e3192;opacity:0.61;}</style></defs><title>Artboard 2</title><rect id="Baggrundsfarve-2" data-name="Baggrundsfarve" class="cls-1" width="1366" height="822"/><g id="Figurer"><path class="cls-2" d="M154,494c8.77-21.06,23.29-34,29-39,10-8.73,25.47-16.27,56-31,15.61-7.53,23.42-11.3,30-14,30.24-12.42,55.32-16.73,75-20,23.15-3.84,50.92-8.46,88-6,37.43,2.48,63.87,10.8,80,16,42.91,13.83,53.37,26.21,57,31,10.85,14.29,13.14,29.6,15,42,3.55,23.72-2.54,27.72-5,66-2.44,37.91,2.73,46.65-5,72a179.93,179.93,0,0,1-12,29c-3.81,7.55-13.06,25.61-28,42-20.66,22.66-43.77,32.88-58,39-32.58,14-60.83,15.53-116,18-43.75,2-66.19,2.8-94-4-20.48-5-47.65-12-73-35a144.93,144.93,0,0,1-35-50c-8.51-20.09-9-46.39-10-99C147.37,517.79,148.75,506.61,154,494Z"/><path class="cls-3" d="M129,347c4.66-11.05,7-12.87,17-31,15.21-27.48,12.59-28.12,23-45,11-17.76,11.44-13.11,29-39,10.58-15.59,13.17-21.35,22-27,12.76-8.16,26.2-8.21,31-8,8,.36,17.07,2.59,38,16,25.23,16.17,24.82,21.08,46,35,24.87,16.35,30.64,13,45,27,11,10.73,16.44,21.3,24,36,9.87,19.19,16.66,32.37,17,51,.33,17.93-5.48,31.67-9,40-3.85,9.12-9.57,17.08-21,33-8.71,12.13-13.18,16.8-20,19-6.56,2.12-12,.9-17,0-26-4.71-30.16.59-51-3-18.54-3.2-20.84-8.36-44-17-32.11-12-38.28-6-83-18-49.77-13.37-54.67-24.15-56-28C116.28,377.19,121.44,364.94,129,347Z"/><path class="cls-4" d="M336,123c17.31-9.64,33.75-13.41,55-17,28.14-4.76,42.21-7.14,58-7,21.87.2,38.12.34,56,10,16.17,8.73,25.31,20.72,30,27,15.48,20.74,19.74,42.16,22,56,7.34,45,3.22,69.89,1,155-.67,25.69-3.61,51.3-4,77-.43,28.18.45,46.57-12,65a64.82,64.82,0,0,1-27,23c-4.22,1.88-24.58,11-42,2-8.29-4.26-12.25-10.72-18-20-22.38-36.13-33.54-54.13-32-51,35.45,72-50.8-78.77-74-141-7.63-20.46-2.82-11.3-20-64a424.77,424.77,0,0,1-15-70c-.89-7-2.14-18.29,4-29C322.05,131.92,328,127.47,336,123Z"/><path class="cls-5" d="M247,138a57.7,57.7,0,0,0-34,28c-3.21,5.75-9.12,16.31-8,30,.68,8.29,3.64,14.24,7,21,3,6,6.53,13.12,13,19,11.66,10.59,26.42,11.38,38,12,10.1.54,22.93,1.23,37-6,16.11-8.28,23.58-21.67,27-28,4.37-8.09,10.33-19.12,8-33-2-12.12-9.31-20-13-24-8.76-9.49-18.37-13.4-25-16S269.77,130.63,247,138Z"/><path class="cls-6" d="M524,230c1.91-5.87,4-10.83,14-31,6.78-13.71,6.08-12,10-20,12.31-25.17,15.08-33.8,24-37a21.77,21.77,0,0,1,10-1c6,.91,7.78,4.09,15,9,12.12,8.24,18.22,6.89,22,14,.61,1.15,1.7,3.54,2,9,.77,14-4.93,24.39-10,36s-1,5-11,31c-13.48,35.12-14.59,30.84-21,50-.81,2.42-7.54,19.94-21,55-1.07,2.79-3.18,8.06-8,10-5,2-9.26-1-23-6-14.5-5.29-14.72-3.78-17-6-5.7-5.57-2.94-13.74,2-46,3-19.66,3.45-26.22,7-45C521.89,236.7,523.25,232.3,524,230Z"/></g><path d="M723,208.3H738.5c10.81,0,18.46,3.72,18.46,14.8,0,10.7-7.77,15.57-18.46,15.57h-8v18.75H723Zm14.77,24.32c7.91,0,11.71-3,11.71-9.52s-3.92-8.75-11.71-8.75h-7.24v18.27Z"/><path d="M768,232.63c0-16,7.86-25.23,19.1-25.23s19.1,9.22,19.1,25.23c0,16.28-7.86,25.69-19.1,25.69S768,248.91,768,232.63Zm30.42,0c0-11.8-4.5-18.64-11.32-18.64s-11.32,6.84-11.32,18.64c0,12.07,4.5,19.1,11.32,19.1S798.46,244.7,798.46,232.63Z"/><path d="M820.24,208.3h15.89c10.08,0,17.67,3.6,17.67,14.23,0,10.19-7.59,14.94-17.67,14.94h-8.3v20h-7.59Zm15,23.12c7.18,0,11.1-3,11.1-8.89s-3.92-8.18-11.1-8.18h-7.4v17.07Zm5.08-.26,15.16,26.26H847l-12.32-22Z"/><path d="M880.87,214.65H865V208.3h39.24v6.35H888.4v42.77h-7.53Z"/><path d="M920.32,208.3h30.81v6.35H927.85v15.22h19.74v6.34H927.85v21.21h-7.53Z"/><path d="M963,232.63c0-16,7.86-25.23,19.1-25.23s19.09,9.22,19.09,25.23c0,16.28-7.85,25.69-19.09,25.69S963,248.91,963,232.63Zm30.42,0c0-11.8-4.5-18.64-11.32-18.64s-11.33,6.84-11.33,18.64c0,12.07,4.5,19.1,11.33,19.1S993.46,244.7,993.46,232.63Z"/><path d="M1017.91,208.3h7.47v42.77H1049v6.35h-31.11Z"/><path d="M1063.86,251.07h12V214.65h-12V208.3h31.56v6.35h-12v36.42h12v6.35h-31.56Z"/><path d="M1109.29,232.63c0-16,7.86-25.23,19.09-25.23s19.1,9.22,19.1,25.23c0,16.28-7.86,25.69-19.1,25.69S1109.29,248.91,1109.29,232.63Zm30.42,0c0-11.8-4.5-18.64-11.33-18.64s-11.32,6.84-11.32,18.64c0,12.07,4.5,19.1,11.32,19.1S1139.71,244.7,1139.71,232.63Z"/><path d="M808,308.87h1.08v22.74h12.67v1H808Z"/><path d="M836,308.87h1l8.5,23.75h-1.23l-5-14.25c-1-2.88-1.88-5.33-2.74-8.28h-.14c-.87,3-1.73,5.4-2.74,8.28l-5,14.25h-1.15Zm-4.82,14.25h10.55v1H831.22Z"/><path d="M852.46,323.77v-14.9h1.15v14.61c0,6.55,3,8.49,6.34,8.49s6.41-1.94,6.41-8.49V308.87h1.08v14.9c0,7.34-3.75,9.28-7.49,9.28S852.46,331.11,852.46,323.77Z"/><path d="M877,308.87h6.55c4.68,0,7.64,1.72,7.64,6.11,0,4.18-3,6.41-7.64,6.41h-5.39v11.23H877Zm6.12,11.51c4.39,0,6.84-1.72,6.84-5.4s-2.45-5.11-6.84-5.11h-5v10.51Zm1.44.58,7,11.66h-1.37L883.28,321Z"/><path d="M906.24,308.87h1l8.5,23.75h-1.23l-5-14.25c-1-2.88-1.88-5.33-2.74-8.28h-.14c-.87,3-1.73,5.4-2.74,8.28l-5,14.25h-1.15Zm-4.82,14.25H912v1H901.42Z"/><path d="M944.94,320.67c0-7.49,4-12.24,10.16-12.24a8.23,8.23,0,0,1,6.22,2.81l-.72.79a7,7,0,0,0-5.5-2.52c-5.55,0-8.93,4.32-8.93,11.16s3.24,11.3,8.64,11.3a7.85,7.85,0,0,0,5.54-1.94v-7.85h-5.76v-1h6.95v9.21a9,9,0,0,1-6.8,2.66C948.83,333.05,944.94,328.16,944.94,320.67Z"/><path d="M970.9,308.87h13.82v1H972.05v9.58h10.66v1H972.05v11.15h13v1H970.9Z"/><path d="M994,308.87h6.55c4.68,0,7.63,1.72,7.63,6.11,0,4.18-3,6.41-7.63,6.41h-5.4v11.23H994Zm6.12,11.51c4.39,0,6.84-1.72,6.84-5.4s-2.45-5.11-6.84-5.11h-5v10.51Zm1.44.58,7,11.66h-1.36L1000.27,321Z"/><path d="M1016.4,308.87h1.19l9.86,17.49,2.63,4.61h.07c0-2.27-.14-4.43-.14-6.66V308.87h1.08v23.75h-1.19L1020,315.13l-2.63-4.61h-.07c0,2.27.14,4.28.14,6.52v15.58h-1.08Z"/><path d="M1041.1,308.87h13.82v1h-12.67v9.58h10.66v1h-10.66v11.15h13v1H1041.1Z"/><path d="M1064.21,308.87h6.55c4.68,0,7.63,1.72,7.63,6.11,0,4.18-3,6.41-7.63,6.41h-5.4v11.23h-1.15Zm6.12,11.51c4.39,0,6.84-1.72,6.84-5.4s-2.45-5.11-6.84-5.11h-5v10.51Zm1.44.58,7,11.66h-1.37L1070.47,321Z"/><path d="M1110.07,329.09l.94-.64a6.39,6.39,0,0,0,5.54,3.52c4.18,0,5.94-2.23,5.94-6.69V309.8H1112v-1h11.62v16.56c0,4.24-1.72,7.66-7.09,7.66A7.11,7.11,0,0,1,1110.07,329.09Z"/><path d="M1134.7,308.87h13.82v1h-12.67v9.58h10.65v1h-10.65v11.15h13v1H1134.7Z"/><path d="M1156.8,308.87H1158l9.86,17.49,2.63,4.61h.07c0-2.27-.14-4.43-.14-6.66V308.87h1.08v23.75h-1.19l-9.86-17.49-2.63-4.61h-.07c0,2.27.14,4.28.14,6.52v15.58h-1.08Z"/><path d="M1179.62,329.45l.8-.79a10,10,0,0,0,7.48,3.31c4,0,6.63-2.08,6.63-5.11s-2.2-4.17-4.75-5.25L1186.1,320c-2.16-.9-5.18-2.3-5.18-5.83s3-5.69,7.06-5.69a9.51,9.51,0,0,1,6.83,2.81l-.72.79a8.24,8.24,0,0,0-6.11-2.52c-3.53,0-5.91,1.8-5.91,4.54,0,2.95,2.7,4.07,4.54,4.82l3.67,1.66c2.81,1.19,5.4,2.59,5.4,6.26s-3.1,6.26-7.78,6.26A10.78,10.78,0,0,1,1179.62,329.45Z"/><path d="M1204.9,308.87h13.82v1h-12.67v9.58h10.65v1h-10.65v11.15h13v1H1204.9Z"/><path d="M1227,308.87h1.19l9.86,17.49,2.63,4.61h.07c0-2.27-.14-4.43-.14-6.66V308.87h1.08v23.75h-1.19l-9.86-17.49-2.63-4.61h-.07c0,2.27.14,4.28.14,6.52v15.58H1227Z"/></svg>
