<svg id="Baggrundsfarve" xmlns="http://www.w3.org/2000/svg" width="907" height="719" viewBox="0 0 907 719"><defs><style>.cls-1{fill:#f1eee9;}.cls-2{fill:#f2b0b4;opacity:0.79;}.cls-3{fill:#f6f6f8;}.cls-4{fill:#e7b836;}.cls-5{fill:#d32b16;}.cls-6{fill:#2e3192;opacity:0.61;}</style></defs><title>Artboard 3</title><rect class="cls-1" x="-19" y="-21" width="975" height="822"/><g id="Figurer"><path class="cls-2" d="M281.72,479.31c5.87-13,15.58-20.94,19.39-24,6.69-5.38,17-10,37.44-19.09,10.44-4.63,15.66-7,20.06-8.62,20.22-7.64,37-10.3,50.15-12.31,15.47-2.37,34-5.2,58.83-3.69a225.69,225.69,0,0,1,53.49,9.85c28.69,8.51,35.68,16.13,38.11,19.08,7.25,8.8,8.78,18.22,10,25.86,2.37,14.6-1.7,17.06-3.35,40.63-1.63,23.33,1.83,28.72-3.34,44.32a105.47,105.47,0,0,1-8,17.85,115.59,115.59,0,0,1-18.72,25.86c-13.81,14-29.27,20.24-38.78,24-21.78,8.62-40.67,9.56-77.56,11.08-29.25,1.21-44.25,1.72-62.84-2.46-13.7-3.09-31.86-7.39-48.81-21.55a90.09,90.09,0,0,1-23.4-30.78c-5.69-12.36-6-28.56-6.69-61C277.29,494,278.21,487.08,281.72,479.31Z"/><path class="cls-3" d="M265,388.82c3.11-6.8,4.66-7.92,11.37-19.08,10.17-16.92,8.41-17.32,15.37-27.71,7.33-10.93,7.65-8.07,19.39-24,7.08-9.6,8.81-13.14,14.71-16.62a38.78,38.78,0,0,1,20.73-4.92c5.36.22,11.41,1.59,25.4,9.85,16.87,9.95,16.59,13,30.76,21.54,16.63,10.07,20.48,8,30.08,16.63,7.36,6.6,11,13.11,16.05,22.16,6.6,11.81,11.14,19.93,11.37,31.39.22,11-3.67,19.5-6,24.63-2.58,5.61-6.4,10.51-14,20.31-5.82,7.47-8.81,10.35-13.37,11.7-4.39,1.3-8.05.55-11.37,0-17.35-2.9-20.16.37-34.1-1.85-12.39-2-13.93-5.15-29.41-10.46-21.48-7.37-25.6-3.69-55.5-11.08-33.27-8.23-36.55-14.87-37.44-17.24C256.5,407.4,260,399.86,265,388.82Z"/><path class="cls-4" d="M403.41,250.92C415,245,426,242.67,440.18,240.46c18.82-2.93,28.22-4.4,38.78-4.31,14.62.12,25.48.21,37.44,6.15a59.13,59.13,0,0,1,20.06,16.62c10.35,12.77,13.2,26,14.7,34.48,4.91,27.71,2.16,43,.67,95.42-.45,15.82-2.41,31.58-2.67,47.4-.29,17.35.3,28.67-8,40a42.5,42.5,0,0,1-18.06,14.16c-2.82,1.15-16.43,6.74-28.08,1.23-5.54-2.63-8.19-6.6-12-12.32-15-22.24-22.43-33.32-21.4-31.39,23.7,44.33-34-48.49-49.47-86.8-5.1-12.6-1.88-7-13.37-39.4a243.5,243.5,0,0,1-10-43.1c-.6-4.29-1.43-11.25,2.67-17.85C394.08,256.42,398,253.67,403.41,250.92Z"/><path class="cls-5" d="M343.9,260.16a42.16,42.16,0,0,0-12.7,6.15,39.27,39.27,0,0,0-10,11.08c-2.15,3.54-6.09,10-5.35,18.47.45,5.1,2.44,8.77,4.68,12.93,2,3.71,4.37,8.08,8.69,11.7,7.8,6.51,17.67,7,25.41,7.38,6.75.34,15.33.76,24.74-3.69a40.82,40.82,0,0,0,18.05-17.24c2.92-5,6.91-11.77,5.35-20.31-1.36-7.46-6.22-12.31-8.69-14.78-5.86-5.84-12.29-8.24-16.72-9.85S359.13,255.62,343.9,260.16Z"/><path class="cls-6" d="M529.1,316.79c1.28-3.61,2.7-6.66,9.36-19.08,4.53-8.44,4.07-7.38,6.69-12.31,8.23-15.5,10.08-20.81,16-22.78a15.75,15.75,0,0,1,6.69-.62c4,.56,5.2,2.52,10,5.54,8.1,5.08,12.18,4.24,14.71,8.62.41.71,1.13,2.18,1.33,5.54.52,8.6-3.3,15-6.68,22.16s-.7,3.1-7.36,19.09c-9,21.62-9.75,19-14,30.78-.54,1.49-5,12.28-14,33.86-.71,1.72-2.12,5-5.35,6.15s-6.19-.6-15.37-3.69c-9.7-3.26-9.85-2.33-11.37-3.69-3.81-3.43-2-8.46,1.34-28.32,2-12.11,2.31-16.14,4.68-27.7C527.69,320.92,528.6,318.21,529.1,316.79Z"/></g><path d="M240.79,70.46h15.5c10.8,0,18.46,3.72,18.46,14.8,0,10.7-7.77,15.57-18.46,15.57h-8v18.75h-7.54Zm14.78,24.32c7.9,0,11.71-3,11.71-9.52s-3.92-8.74-11.71-8.74h-7.24V94.78Z"/><path d="M285.83,94.8c0-16,7.86-25.24,19.1-25.24S324,78.79,324,94.8c0,16.27-7.85,25.68-19.09,25.68S285.83,111.07,285.83,94.8Zm30.42,0c0-11.8-4.5-18.65-11.32-18.65S293.6,83,293.6,94.8c0,12.06,4.5,19.09,11.33,19.09S316.25,106.86,316.25,94.8Z"/><path d="M338,70.46h15.89c10.07,0,17.67,3.6,17.67,14.23,0,10.19-7.6,14.94-17.67,14.94h-8.3v20H338Zm15,23.12c7.17,0,11.09-3,11.09-8.89s-3.92-8.17-11.09-8.17h-7.4V93.58Zm5.08-.26,15.15,26.26h-8.48l-12.32-22Z"/><path d="M398.66,76.81H382.8V70.46H422v6.35H406.19v42.77h-7.53Z"/><path d="M438.1,70.46h30.82v6.35H445.63V92h19.75v6.34H445.63v21.21H438.1Z"/><path d="M480.83,94.8c0-16,7.85-25.24,19.09-25.24S519,78.79,519,94.8c0,16.27-7.86,25.68-19.1,25.68S480.83,111.07,480.83,94.8Zm30.42,0c0-11.8-4.5-18.65-11.33-18.65S488.6,83,488.6,94.8c0,12.06,4.5,19.09,11.32,19.09S511.25,106.86,511.25,94.8Z"/><path d="M535.69,70.46h7.47v42.77H566.8v6.35H535.69Z"/><path d="M581.64,113.23h12V76.81h-12V70.46H613.2v6.35h-12v36.42h12v6.35H581.64Z"/><path d="M627.08,94.8c0-16,7.85-25.24,19.09-25.24s19.1,9.23,19.1,25.24c0,16.27-7.86,25.68-19.1,25.68S627.08,111.07,627.08,94.8Zm30.42,0c0-11.8-4.51-18.65-11.33-18.65S634.85,83,634.85,94.8c0,12.06,4.5,19.09,11.32,19.09S657.5,106.86,657.5,94.8Z"/><path d="M343,152.49h1.08v22.75h12.67v1H343Z"/><path d="M371.12,152.49h1l8.49,23.76H379.4l-5-14.26c-1-2.88-1.87-5.32-2.73-8.28h-.15c-.86,3-1.72,5.4-2.73,8.28l-5,14.26h-1.15Zm-4.82,14.25h10.54v1H366.3Z"/><path d="M387.54,167.39v-14.9h1.15V167.1c0,6.55,3,8.5,6.34,8.5s6.4-1.95,6.4-8.5V152.49h1.08v14.9c0,7.34-3.74,9.29-7.48,9.29S387.54,174.73,387.54,167.39Z"/><path d="M412.09,152.49h6.55c4.68,0,7.63,1.73,7.63,6.12,0,4.17-2.95,6.41-7.63,6.41h-5.4v11.23h-1.15ZM418.21,164c4.39,0,6.84-1.73,6.84-5.4s-2.45-5.11-6.84-5.11h-5V164Zm1.44.57,7,11.67h-1.37l-6.91-11.59Z"/><path d="M441.32,152.49h1l8.49,23.76H449.6l-5-14.26c-1-2.88-1.87-5.32-2.73-8.28h-.15c-.86,3-1.72,5.4-2.73,8.28l-5,14.26h-1.15Zm-4.82,14.25H447v1H436.5Z"/><path d="M480,164.3c0-7.49,4-12.24,10.15-12.24a8.2,8.2,0,0,1,6.23,2.81l-.72.79a7,7,0,0,0-5.51-2.52c-5.54,0-8.92,4.32-8.92,11.16s3.24,11.3,8.63,11.3a7.84,7.84,0,0,0,5.55-1.95v-7.84h-5.76v-1h6.95V174a8.93,8.93,0,0,1-6.81,2.67C483.91,176.68,480,171.78,480,164.3Z"/><path d="M506,152.49H519.8v1H507.13v9.57h10.65v1H507.13v11.16h13v1H506Z"/><path d="M529.09,152.49h6.55c4.68,0,7.63,1.73,7.63,6.12,0,4.17-2.95,6.41-7.63,6.41h-5.4v11.23h-1.15ZM535.21,164c4.39,0,6.84-1.73,6.84-5.4s-2.45-5.11-6.84-5.11h-5V164Zm1.44.57,7,11.67h-1.37l-6.91-11.59Z"/><path d="M551.48,152.49h1.19L562.53,170l2.63,4.61h.07c0-2.27-.14-4.43-.14-6.66V152.49h1.08v23.76H565l-9.86-17.5-2.63-4.61h-.07c0,2.27.14,4.29.14,6.52v15.59h-1.08Z"/><path d="M576.18,152.49H590v1H577.33v9.57H588v1H577.33v11.16h13v1H576.18Z"/><path d="M599.29,152.49h6.55c4.68,0,7.63,1.73,7.63,6.12,0,4.17-3,6.41-7.63,6.41h-5.4v11.23h-1.15ZM605.41,164c4.39,0,6.84-1.73,6.84-5.4s-2.45-5.11-6.84-5.11h-5V164Zm1.44.57,7,11.67h-1.37l-6.91-11.59Z"/><path d="M645.15,172.72l.94-.65a6.36,6.36,0,0,0,5.54,3.53c4.18,0,5.94-2.23,5.94-6.7V153.42H647.09v-1h11.63V169c0,4.25-1.73,7.67-7.09,7.67A7.13,7.13,0,0,1,645.15,172.72Z"/><path d="M669.77,152.49H683.6v1H670.93v9.57h10.65v1H670.93v11.16h13v1H669.77Z"/><path d="M691.88,152.49h1.19L702.93,170l2.63,4.61h.07c0-2.27-.15-4.43-.15-6.66V152.49h1.08v23.76h-1.18l-9.87-17.5-2.62-4.61h-.08c0,2.27.15,4.29.15,6.52v15.59h-1.08Z"/><path d="M714.7,173.08l.79-.79A10,10,0,0,0,723,175.6c4,0,6.62-2.09,6.62-5.11,0-3.17-2.19-4.18-4.75-5.26l-3.67-1.65c-2.16-.9-5.18-2.31-5.18-5.84,0-3.38,3-5.68,7-5.68a9.54,9.54,0,0,1,6.84,2.81l-.72.79a8.24,8.24,0,0,0-6.12-2.52c-3.52,0-5.9,1.8-5.9,4.53,0,3,2.7,4.07,4.53,4.83l3.68,1.65c2.8,1.19,5.4,2.59,5.4,6.27s-3.1,6.26-7.78,6.26A10.77,10.77,0,0,1,714.7,173.08Z"/><path d="M740,152.49h13.82v1H741.12v9.57h10.66v1H741.12v11.16h13v1H740Z"/><path d="M762.08,152.49h1.19L773.13,170l2.63,4.61h.07c0-2.27-.15-4.43-.15-6.66V152.49h1.08v23.76h-1.18l-9.87-17.5-2.62-4.61H763c0,2.27.15,4.29.15,6.52v15.59h-1.08Z"/></svg>
