<svg id="Layer_1" data-name="Layer 1" xmlns="http://www.w3.org/2000/svg" width="1706.87" height="339.26" viewBox="0 0 1706.87 339.26"><defs><style>.cls-1{fill:#fff;}.cls-2,.cls-4,.cls-5,.cls-6{fill:#8487bf;}.cls-2,.cls-7{stroke:#d92818;}.cls-2,.cls-3,.cls-4,.cls-6,.cls-7,.cls-8{stroke-miterlimit:10;stroke-width:5px;}.cls-3,.cls-7,.cls-8{fill:none;}.cls-3{stroke:#8487bf;}.cls-4,.cls-8{stroke:#f2b33d;}.cls-6{stroke:#f2c2c6;}.cls-9{fill:#d92818;}.cls-10{fill:#f2b33d;}.cls-11{fill:#f2c2c6;}</style></defs><title>tavle_web</title><line class="cls-1" y1="48.78" x2="190.84" y2="51.65"/><line class="cls-2" x1="-13.48" y1="87.04" x2="203.54" y2="87.04"/><line class="cls-3" y1="37.78" x2="95.42" y2="37.78"/><line class="cls-4" x1="-8.11" y1="136.3" x2="327.83" y2="136.3"/><circle class="cls-5" cx="111.65" cy="37.78" r="16.23"/><line class="cls-6" x1="-8.11" y1="185.55" x2="523.14" y2="185.55"/><line class="cls-7" x1="-8.11" y1="223.89" x2="1089.72" y2="223.89"/><line class="cls-8" x1="-116.82" y1="272.39" x2="1087.49" y2="272.39"/><circle class="cls-9" cx="211.62" cy="87.04" r="16.23"/><circle class="cls-10" cx="335.13" cy="136.3" r="16.23"/><circle class="cls-11" cx="529.99" cy="185.55" r="16.23"/><circle class="cls-9" cx="1095.88" cy="223.89" r="16.23"/><circle class="cls-10" cx="1095.88" cy="272.39" r="16.23"/><path d="M147,36.93c0-3.82,2.17-6.13,5.24-6.13a4.3,4.3,0,0,1,3.25,1.45l-.86,1a3.08,3.08,0,0,0-2.39-1.06c-2.22,0-3.66,1.82-3.66,4.75s1.32,4.83,3.62,4.83a2.94,2.94,0,0,0,2-.69V38h-2.34V36.71h3.75v5a5,5,0,0,1-3.53,1.37C149.12,43.05,147,40.78,147,36.93Z"/><path d="M158.05,38.44a4.39,4.39,0,0,1,4.46-4.57,3.76,3.76,0,0,1,4,4.1,7,7,0,0,1-.07.9H159V37.72h6.51l-.37.41c0-2.07-1-3.09-2.63-3.09a3.08,3.08,0,0,0-3,3.4,3.18,3.18,0,0,0,3.42,3.42,4.72,4.72,0,0,0,2.67-.83l.54,1a6,6,0,0,1-3.39,1A4.42,4.42,0,0,1,158.05,38.44Z"/><path d="M169.3,34.08h1.22l.13,1.48h.07A4.5,4.5,0,0,1,174,33.87c2.07,0,3,1.22,3,3.52v5.44h-1.5V37.59c0-1.65-.57-2.43-2-2.43-1,0-1.74.52-2.75,1.57v6.1H169.3Z"/><path d="M182.13,39.43V35.29h-2.48V34.17l2.53-.09.2-2.81h1.24v2.81h4.29v1.21h-4.29v4.16c0,1.56.53,2.37,2.22,2.37a5.85,5.85,0,0,0,2.09-.39l.32,1.1a7.82,7.82,0,0,1-2.74.52C183,43.05,182.13,41.59,182.13,39.43Z"/><path d="M190.3,38.47a4.33,4.33,0,1,1,8.64,0,4.33,4.33,0,1,1-8.64,0Zm7.11,0c0-2-1.11-3.36-2.79-3.36s-2.79,1.35-2.79,3.36,1.12,3.34,2.79,3.34S197.41,40.47,197.41,38.47Z"/><path d="M201.88,34.17l2.53-.09h5.1v1.21h-7.63Zm2.5-.83a3.2,3.2,0,0,1,3.53-3.54,6.55,6.55,0,0,1,2.52.5l-.34,1.12a4.7,4.7,0,0,0-2-.42c-1.57,0-2.2.88-2.2,2.29v9.54h-1.47Z"/><path d="M214.53,39.43V35.29H212V34.17l2.54-.09.2-2.81H216v2.81h4.29v1.21H216v4.16c0,1.56.53,2.37,2.22,2.37a5.85,5.85,0,0,0,2.09-.39l.32,1.1a7.82,7.82,0,0,1-2.74.52C215.36,43.05,214.53,41.59,214.53,39.43Z"/><path d="M222.84,38.44a4.4,4.4,0,0,1,4.47-4.57,3.76,3.76,0,0,1,4,4.1,7,7,0,0,1-.07.9h-7.4V37.72h6.51l-.38.41c0-2.07-1-3.09-2.62-3.09a3.08,3.08,0,0,0-3,3.4,3.18,3.18,0,0,0,3.42,3.42,4.75,4.75,0,0,0,2.67-.83l.54,1a6,6,0,0,1-3.39,1A4.43,4.43,0,0,1,222.84,38.44Z"/><path d="M244.43,41.3l.9-1a5,5,0,0,0,3.45,1.46c1.62,0,2.56-.78,2.56-1.86,0-1.26-.92-1.62-2.11-2.12L247.52,37c-1.17-.47-2.54-1.3-2.54-3s1.62-3.14,3.88-3.14a5.16,5.16,0,0,1,3.63,1.46l-.79,1a4.11,4.11,0,0,0-2.9-1.1c-1.37,0-2.29.65-2.29,1.71s1.1,1.55,2.11,1.94l1.66.74c1.46.58,2.61,1.4,2.61,3.15s-1.59,3.37-4.18,3.37A6,6,0,0,1,244.43,41.3Z"/><path d="M255.91,30h1.49v8.66h.08l4.7-4.59h1.71l-6.49,6.38v2.37h-1.49Zm3.37,8.18.9-1,4.17,5.61H262.7Z"/><path d="M265.9,38.47a4.33,4.33,0,1,1,8.64,0,4.33,4.33,0,1,1-8.64,0Zm7.11,0c0-2-1.11-3.36-2.79-3.36s-2.79,1.35-2.79,3.36,1.12,3.34,2.79,3.34S273,40.47,273,38.47Z"/><path d="M280.05,39.9V31.22H277V30h4.59V40a1.58,1.58,0,0,0,1.73,1.8,3.93,3.93,0,0,0,1.64-.4l.38,1.12a5.35,5.35,0,0,1-2.34.52C281.08,43.05,280.05,42,280.05,39.9Z"/><path d="M287.64,38.44a4.4,4.4,0,0,1,4.47-4.57,3.76,3.76,0,0,1,4,4.1,5.46,5.46,0,0,1-.08.9h-7.4V37.72h6.52l-.38.41c0-2.07-1-3.09-2.63-3.09a3.08,3.08,0,0,0-3,3.4,3.18,3.18,0,0,0,3.42,3.42,4.75,4.75,0,0,0,2.67-.83l.54,1a6,6,0,0,1-3.39,1A4.43,4.43,0,0,1,287.64,38.44Z"/><path d="M315.71,30.05H317l-5.91,15.66H309.8Z"/><path d="M326.51,30.05h1.33l-5.91,15.66H320.6Z"/><path d="M341.73,42c3.89-3.44,6-5.46,6-7.36,0-1.32-.8-2.24-2.49-2.24a4,4,0,0,0-2.75,1.37l-.87-.84a5.12,5.12,0,0,1,3.8-1.75c2.31,0,3.75,1.35,3.75,3.38s-2.16,4.31-5.28,7.13c.72,0,1.46-.09,2.14-.09h3.77v1.28h-8.09Z"/><path d="M352.5,37.05c0-3.85,1.56-5.92,4.12-5.92s4.12,2.07,4.12,5.92-1.56,6-4.12,6S352.5,40.87,352.5,37.05Zm6.86,0c0-3.29-1.14-4.71-2.74-4.71s-2.74,1.42-2.74,4.71,1.14,4.79,2.74,4.79S359.36,40.35,359.36,37.05Zm-3.86-.12a1.12,1.12,0,1,1,1.12,1.2A1.12,1.12,0,0,1,355.5,36.93Z"/><path d="M363.3,37.05c0-3.85,1.56-5.92,4.12-5.92s4.12,2.07,4.12,5.92-1.56,6-4.12,6S363.3,40.87,363.3,37.05Zm6.86,0c0-3.29-1.14-4.71-2.74-4.71s-2.74,1.42-2.74,4.71,1.14,4.79,2.74,4.79S370.16,40.35,370.16,37.05Zm-3.86-.12a1.12,1.12,0,1,1,1.12,1.2A1.12,1.12,0,0,1,366.3,36.93Z"/><path d="M379.44,34.93c0-.63.06-1.41.09-2h-.09c-.37.56-.79,1.12-1.17,1.68l-3.09,3.89h7.45v1.2h-9.11v-1l5.73-7.33h1.6V42.83h-1.41Z"/><path d="M385.15,36.33h7.74v1.12h-7.74Z"/><path d="M395.73,42c3.89-3.44,6-5.46,6-7.36,0-1.32-.8-2.24-2.49-2.24a4,4,0,0,0-2.75,1.37l-.87-.84a5.12,5.12,0,0,1,3.8-1.75c2.31,0,3.75,1.35,3.75,3.38s-2.16,4.31-5.28,7.13c.72,0,1.46-.09,2.14-.09h3.77v1.28h-8.09Z"/><path d="M406.5,37.05c0-3.85,1.56-5.92,4.12-5.92s4.12,2.07,4.12,5.92-1.57,6-4.12,6S406.5,40.87,406.5,37.05Zm6.86,0c0-3.29-1.14-4.71-2.74-4.71s-2.74,1.42-2.74,4.71,1.14,4.79,2.74,4.79S413.36,40.35,413.36,37.05Zm-3.86-.12a1.12,1.12,0,1,1,1.12,1.2A1.12,1.12,0,0,1,409.5,36.93Z"/><path d="M417.76,41.59h3.32V33.16H418.5v-1a8.14,8.14,0,0,0,2.95-.85h1.12V41.59h3v1.24h-7.8Z"/><path d="M433.44,34.93c0-.63.06-1.41.09-2h-.09c-.38.56-.79,1.12-1.17,1.68l-3.1,3.89h7.46v1.2h-9.11v-1l5.72-7.33h1.61V42.83h-1.41Z"/><path d="M250.22,84.81c0-3.81,2.18-6.12,5.24-6.12a4.37,4.37,0,0,1,3.26,1.44l-.87,1A3.06,3.06,0,0,0,255.46,80c-2.22,0-3.66,1.82-3.66,4.76s1.32,4.82,3.62,4.82a3,3,0,0,0,2-.68V85.84h-2.34V84.6h3.74v5a5,5,0,0,1-3.53,1.37C252.36,90.94,250.22,88.67,250.22,84.81Z"/><path d="M261.5,88.45c0-2,1.84-2.92,6.36-3.28A2.07,2.07,0,0,0,265.54,83a6.11,6.11,0,0,0-3.06,1l-.6-1a7.74,7.74,0,0,1,3.91-1.26,3.25,3.25,0,0,1,3.56,3.6v5.37h-1.24L268,89.53h-.06a5.84,5.84,0,0,1-3.44,1.41C262.85,90.94,261.5,90,261.5,88.45Zm6.36,0V86.16c-3.75.29-4.88,1-4.88,2.18,0,1,.9,1.39,1.91,1.39A4.77,4.77,0,0,0,267.86,88.43Z"/><path d="M271.91,82h1.19l.12,1.15h0a2.17,2.17,0,0,1,2-1.37c.86,0,1.4.51,1.65,1.52.51-.94,1-1.52,2.06-1.52,1.22,0,1.94,1,1.94,2.7v6.27h-1.48V84.56c0-1-.28-1.53-.93-1.53s-.94.45-1.41,1.35v6.34h-1.37V84.56c0-1-.25-1.53-.9-1.53s-1,.45-1.44,1.35v6.34h-1.47Z"/><path d="M282.71,82h1.19l.12,1.15h0a2.17,2.17,0,0,1,2-1.37c.86,0,1.4.51,1.65,1.52.51-.94,1.05-1.52,2.06-1.52,1.22,0,1.94,1,1.94,2.7v6.27h-1.48V84.56c0-1-.28-1.53-.93-1.53s-.94.45-1.41,1.35v6.34h-1.37V84.56c0-1-.25-1.53-.9-1.53s-1,.45-1.44,1.35v6.34h-1.47Z"/><path d="M293.69,86.33a4.4,4.4,0,0,1,4.46-4.58,3.77,3.77,0,0,1,4,4.11,7.17,7.17,0,0,1-.07.9h-7.4V85.61h6.52l-.38.41c0-2.07-1-3.1-2.63-3.1a3.09,3.09,0,0,0-3,3.41,3.18,3.18,0,0,0,3.43,3.42,4.79,4.79,0,0,0,2.66-.83l.54,1a6,6,0,0,1-3.39,1A4.43,4.43,0,0,1,293.69,86.33Z"/><path d="M307.69,87.79V79.11h-3.1V77.9h4.6v10a1.58,1.58,0,0,0,1.73,1.8,3.9,3.9,0,0,0,1.63-.39l.38,1.11a5.22,5.22,0,0,1-2.34.53C308.72,90.94,307.69,89.86,307.69,87.79Z"/><path d="M326.29,78.91h1.53v4.93h4.89V78.91h1.53V90.72h-1.53V85.17h-4.89v5.55h-1.53Z"/><path d="M336.89,86.33a4.4,4.4,0,0,1,4.46-4.58,3.77,3.77,0,0,1,4,4.11,7.17,7.17,0,0,1-.07.9h-7.4V85.61h6.51L344,86c0-2.07-1-3.1-2.63-3.1a3.09,3.09,0,0,0-3,3.41,3.18,3.18,0,0,0,3.42,3.42,4.8,4.8,0,0,0,2.67-.83l.54,1a6,6,0,0,1-3.39,1A4.43,4.43,0,0,1,336.89,86.33Z"/><path d="M350.89,87.79V79.11h-3.1V77.9h4.6v10a1.58,1.58,0,0,0,1.72,1.8,3.91,3.91,0,0,0,1.64-.39l.38,1.11a5.22,5.22,0,0,1-2.34.53C351.92,90.94,350.89,89.86,350.89,87.79Z"/><path d="M361.69,87.79V79.11h-3.1V77.9h4.6v10a1.58,1.58,0,0,0,1.72,1.8,3.91,3.91,0,0,0,1.64-.39l.38,1.11a5.22,5.22,0,0,1-2.34.53C362.72,90.94,361.69,89.86,361.69,87.79Z"/><path d="M369.29,86.33a4.4,4.4,0,0,1,4.46-4.58,3.77,3.77,0,0,1,4,4.11,7.17,7.17,0,0,1-.07.9h-7.4V85.61h6.51l-.37.41c0-2.07-1-3.1-2.63-3.1a3.09,3.09,0,0,0-3,3.41,3.18,3.18,0,0,0,3.42,3.42,4.8,4.8,0,0,0,2.67-.83l.54,1a6,6,0,0,1-3.39,1A4.43,4.43,0,0,1,369.29,86.33Z"/><path d="M381.47,82h1.24l.15,2.07h0a4.63,4.63,0,0,1,3.91-2.29,3.68,3.68,0,0,1,1.73.36l-.34,1.28a4.35,4.35,0,0,0-1.62-.29c-1.32,0-2.56.67-3.6,2.51v5.11h-1.5Z"/><path d="M391.05,87.41V82h1.49v5.24c0,1.64.58,2.43,2,2.43,1,0,1.74-.47,2.72-1.6V82h1.49v8.75h-1.24l-.13-1.53h-.07a4.25,4.25,0,0,1-3.26,1.75C392,90.94,391.05,89.71,391.05,87.41Z"/><path d="M402.14,82h1.22l.13,1.12h.05a4.62,4.62,0,0,1,3-1.34c2.36,0,3.62,1.75,3.62,4.47,0,3-1.87,4.72-4,4.72a4.18,4.18,0,0,1-2.62-1.14h0l.07,1.66v3h-1.49Zm6.51,4.25c0-1.93-.72-3.21-2.46-3.21a3.71,3.71,0,0,0-2.56,1.3v4.36a3.65,3.65,0,0,0,2.32,1C407.5,89.68,408.65,88.38,408.65,86.22Z"/><path d="M423,84.81c0-3.81,2.18-6.12,5.24-6.12a4.34,4.34,0,0,1,3.26,1.44l-.86,1a3.06,3.06,0,0,0-2.4-1.07c-2.21,0-3.65,1.82-3.65,4.76s1.31,4.82,3.62,4.82a2.94,2.94,0,0,0,2-.68V85.84h-2.34V84.6h3.75v5a5,5,0,0,1-3.53,1.37C425.16,90.94,423,88.67,423,84.81Z"/><path d="M434.07,94.3l.3-1.19a2.58,2.58,0,0,0,.8.13,2.53,2.53,0,0,0,2.39-1.85l.25-.65L433.74,82h1.51l2.13,4.83c.34.77.72,1.69,1.08,2.53h.07c.31-.82.65-1.74.94-2.53L441.36,82h1.44l-3.87,9.47c-.65,1.73-1.71,3-3.71,3A3.56,3.56,0,0,1,434.07,94.3Z"/><path d="M444.7,82h1.19l.13,1.15h0a2.17,2.17,0,0,1,2-1.37c.87,0,1.41.51,1.66,1.52.5-.94,1-1.52,2.05-1.52,1.23,0,1.95,1,1.95,2.7v6.27h-1.48V84.56c0-1-.29-1.53-.94-1.53s-.93.45-1.4,1.35v6.34h-1.37V84.56c0-1-.25-1.53-.9-1.53s-1,.45-1.44,1.35v6.34H444.7Z"/><path d="M456.13,82h1.23l.13,1.48h.07a4.51,4.51,0,0,1,3.29-1.7c2.07,0,3,1.23,3,3.53v5.44h-1.5V85.48c0-1.66-.57-2.43-2-2.43-1,0-1.74.52-2.75,1.57v6.1h-1.5Z"/><path d="M466.7,88.45c0-2,1.84-2.92,6.36-3.28A2.08,2.08,0,0,0,470.73,83a6.14,6.14,0,0,0-3.06,1l-.59-1A7.74,7.74,0,0,1,471,81.75a3.25,3.25,0,0,1,3.56,3.6v5.37h-1.24l-.13-1.19h-.05a5.9,5.9,0,0,1-3.44,1.41C468.05,90.94,466.7,90,466.7,88.45Zm6.36,0V86.16c-3.75.29-4.88,1-4.88,2.18,0,1,.9,1.39,1.91,1.39A4.77,4.77,0,0,0,473.06,88.43Z"/><path d="M477.34,89.57l.68-1a6.26,6.26,0,0,0,3.8,1.19c1.48,0,2.2-.62,2.2-1.35s-.34-1.14-2.72-1.62-3.42-1.25-3.42-2.56,1.24-2.49,3.64-2.49A6.57,6.57,0,0,1,485,82.87l-.72.95a5.19,5.19,0,0,0-2.93-.91c-1.48,0-2,.59-2,1.26s.76,1.08,2.56,1.45c2.9.63,3.6,1.35,3.6,2.71s-1.39,2.61-3.89,2.61A7.66,7.66,0,0,1,477.34,89.57Z"/><path d="M492.53,83.18h-4V82H494v8.75h-1.5Zm-.59-4.2a1.19,1.19,0,0,1,2.37,0,1.19,1.19,0,0,1-2.37,0Z"/><path d="M499.05,87.41V82h1.49v5.24c0,1.64.58,2.43,2,2.43,1,0,1.74-.47,2.72-1.6V82h1.49v8.75h-1.24l-.13-1.53h-.07a4.25,4.25,0,0,1-3.26,1.75C500,90.94,499.05,89.71,499.05,87.41Z"/><path d="M509.5,82h1.19l.13,1.15h0a2.17,2.17,0,0,1,2-1.37c.87,0,1.41.51,1.66,1.52.5-.94,1-1.52,2-1.52,1.23,0,2,1,2,2.7v6.27H517V84.56c0-1-.29-1.53-.94-1.53s-.93.45-1.4,1.35v6.34h-1.37V84.56c0-1-.25-1.53-.9-1.53s-1,.45-1.44,1.35v6.34H509.5Z"/><path d="M537.75,77.94h1.33L533.17,93.6h-1.33Z"/><path d="M548.55,77.94h1.33L544,93.6h-1.33Z"/><path d="M563.77,89.84c3.89-3.44,6-5.46,6-7.37,0-1.31-.8-2.23-2.49-2.23a3.94,3.94,0,0,0-2.75,1.37l-.87-.85a5.14,5.14,0,0,1,3.8-1.74c2.31,0,3.75,1.35,3.75,3.38s-2.16,4.3-5.28,7.13c.72,0,1.46-.09,2.14-.09h3.77v1.28h-8.09Z"/><path d="M574.54,84.94c0-3.85,1.56-5.92,4.12-5.92s4.12,2.07,4.12,5.92-1.56,6-4.12,6S574.54,88.76,574.54,84.94Zm6.86,0c0-3.3-1.14-4.72-2.74-4.72s-2.74,1.42-2.74,4.72,1.14,4.79,2.74,4.79S581.4,88.24,581.4,84.94Zm-3.86-.13A1.12,1.12,0,1,1,578.66,86,1.12,1.12,0,0,1,577.54,84.81Z"/><path d="M585.8,89.48h3.32V81.05h-2.58v-1a8.26,8.26,0,0,0,3-.85h1.11V89.48h3v1.24h-7.8Z"/><path d="M601.48,82.82c0-.63.06-1.41.09-2h-.09c-.37.56-.79,1.12-1.17,1.68l-3.09,3.88h7.45v1.21h-9.11v-1l5.73-7.33h1.6V90.72h-1.41Z"/><path d="M607.19,84.22h7.74v1.12h-7.74Z"/><path d="M617.77,89.84c3.89-3.44,6-5.46,6-7.37,0-1.31-.8-2.23-2.49-2.23a3.92,3.92,0,0,0-2.75,1.37l-.87-.85a5.14,5.14,0,0,1,3.8-1.74c2.31,0,3.75,1.35,3.75,3.38s-2.16,4.3-5.28,7.13c.72,0,1.46-.09,2.14-.09h3.77v1.28h-8.09Z"/><path d="M628.54,84.94c0-3.85,1.56-5.92,4.12-5.92s4.12,2.07,4.12,5.92-1.57,6-4.12,6S628.54,88.76,628.54,84.94Zm6.86,0c0-3.3-1.14-4.72-2.74-4.72s-2.74,1.42-2.74,4.72,1.14,4.79,2.74,4.79S635.4,88.24,635.4,84.94Zm-3.86-.13A1.12,1.12,0,1,1,632.66,86,1.11,1.11,0,0,1,631.54,84.81Z"/><path d="M639.8,89.48h3.32V81.05h-2.58v-1a8.14,8.14,0,0,0,3-.85h1.12V89.48h3v1.24h-7.8Z"/><path d="M656.72,80.53h-6.6v-1.3h8.32v.92c-3.05,3.48-3.79,6.07-4,10.57h-1.56A15.34,15.34,0,0,1,656.72,80.53Z"/><path d="M380.08,129.54h3.34c2.42,0,4.06.81,4.06,2.88a2.57,2.57,0,0,1-2.07,2.57v.07c1.72.27,2.73,1.21,2.73,2.83,0,2.32-1.8,3.46-4.45,3.46h-3.61Zm3.09,5c2,0,2.83-.65,2.83-2s-.94-1.74-2.76-1.74h-1.67v3.71Zm.31,5.58c2,0,3.19-.67,3.19-2.27s-1.12-2-3.19-2h-1.91v4.32Z"/><path d="M390.53,139.08c0-2,1.84-2.92,6.36-3.28a2.07,2.07,0,0,0-2.32-2.19,6.11,6.11,0,0,0-3.06,1l-.6-1a7.74,7.74,0,0,1,3.91-1.26,3.25,3.25,0,0,1,3.56,3.6v5.37h-1.24l-.13-1.19H397a5.83,5.83,0,0,1-3.44,1.4C391.88,141.56,390.53,140.65,390.53,139.08Zm6.36,0v-2.27c-3.75.29-4.88,1-4.88,2.18,0,1,.9,1.39,1.91,1.39A4.77,4.77,0,0,0,396.89,139.06Z"/><path d="M401.19,143a2.41,2.41,0,0,1,1.44-1.94v-.08a1.58,1.58,0,0,1-.9-1.44,2.14,2.14,0,0,1,1-1.64v-.07a2.8,2.8,0,0,1-1.08-2.27,3.22,3.22,0,0,1,3.44-3.13,3.44,3.44,0,0,1,1.3.22h3.62v1.2h-2.27a2.71,2.71,0,0,1,.74,1.77c0,1.87-1.5,3-3.39,3a3.67,3.67,0,0,1-1.47-.33,1.19,1.19,0,0,0-.69,1c0,.68.67,1,1.82,1h2c2.25,0,3.33.57,3.33,2,0,1.64-1.89,3.06-4.86,3.06C402.67,145.38,401.19,144.5,401.19,143Zm7.44-.4c0-.82-.67-1.06-2-1.06h-1.71a4.92,4.92,0,0,1-1.34-.14c-.82.45-1.11,1-1.11,1.46,0,.91,1,1.49,2.86,1.49C407.37,144.3,408.63,143.45,408.63,142.55Zm-1.48-7a2,2,0,1,0-2,2.08A2,2,0,0,0,407.15,135.51Z"/><path d="M411.92,137a4.4,4.4,0,0,1,4.46-4.57,3.77,3.77,0,0,1,4,4.11,7.17,7.17,0,0,1-.07.9h-7.4v-1.16h6.51l-.37.42c0-2.07-1-3.1-2.63-3.1a3.09,3.09,0,0,0-3,3.4,3.18,3.18,0,0,0,3.42,3.43,4.8,4.8,0,0,0,2.67-.83l.54,1a6,6,0,0,1-3.39,1A4.42,4.42,0,0,1,411.92,137Z"/><path d="M424.1,132.6h1.25l.14,2.07h0a4.6,4.6,0,0,1,3.9-2.29,3.68,3.68,0,0,1,1.73.36l-.34,1.28a4.35,4.35,0,0,0-1.62-.29c-1.32,0-2.56.67-3.6,2.5v5.12h-1.5Z"/><path d="M438,133.8h-4v-1.2h5.55v8.75H438Zm-.59-4.19a1.19,1.19,0,1,1,1.19,1.15A1.12,1.12,0,0,1,437.37,129.61Z"/><path d="M444.32,137a4.4,4.4,0,0,1,4.46-4.57,3.77,3.77,0,0,1,4,4.11,7.17,7.17,0,0,1-.07.9h-7.4v-1.16h6.51l-.37.42c0-2.07-1-3.1-2.63-3.1a3.09,3.09,0,0,0-3,3.4,3.18,3.18,0,0,0,3.42,3.43,4.8,4.8,0,0,0,2.67-.83l.54,1a6,6,0,0,1-3.39,1A4.43,4.43,0,0,1,444.32,137Z"/><path d="M457.6,137.94V133.8h-2.48v-1.11l2.53-.09.2-2.81h1.24v2.81h4.29v1.2h-4.29V138c0,1.57.53,2.38,2.22,2.38a5.64,5.64,0,0,0,2.09-.4l.32,1.1a7.58,7.58,0,0,1-2.73.52C458.43,141.56,457.6,140.11,457.6,137.94Z"/><path d="M472.38,128.56h1.33l-5.9,15.67h-1.34Z"/><path d="M476.66,135.44c0-3.8,2.22-6.12,5.3-6.12a4.43,4.43,0,0,1,3.24,1.44l-.87,1a3.15,3.15,0,0,0-2.37-1.07c-2.26,0-3.73,1.82-3.73,4.76s1.47,4.82,3.73,4.82a3.39,3.39,0,0,0,2.64-1.3l.87.92a4.57,4.57,0,0,1-3.66,1.71C478.89,141.56,476.66,139.3,476.66,135.44Z"/><path d="M487.73,139.08c0-2,1.84-2.92,6.36-3.28a2.08,2.08,0,0,0-2.33-2.19,6.14,6.14,0,0,0-3.06,1l-.59-1a7.74,7.74,0,0,1,3.91-1.26,3.25,3.25,0,0,1,3.56,3.6v5.37h-1.24l-.13-1.19h0a5.86,5.86,0,0,1-3.44,1.4C489.08,141.56,487.73,140.65,487.73,139.08Zm6.36,0v-2.27c-3.75.29-4.88,1-4.88,2.18,0,1,.9,1.39,1.91,1.39A4.77,4.77,0,0,0,494.09,139.06Z"/><path d="M499,132.69l2.53-.09h5.1v1.2H499Zm2.5-.83a3.2,3.2,0,0,1,3.53-3.55,6.38,6.38,0,0,1,2.52.51l-.34,1.11a4.84,4.84,0,0,0-2-.41,2,2,0,0,0-2.2,2.28v9.55h-1.47Z"/><path d="M509.12,137a4.4,4.4,0,0,1,4.46-4.57,3.77,3.77,0,0,1,4,4.11,7.17,7.17,0,0,1-.07.9h-7.4v-1.16h6.51l-.37.42c0-2.07-1-3.1-2.63-3.1a3.09,3.09,0,0,0-3,3.4,3.18,3.18,0,0,0,3.42,3.43,4.82,4.82,0,0,0,2.67-.83l.54,1a6,6,0,0,1-3.39,1A4.42,4.42,0,0,1,509.12,137Z"/><path d="M520.58,128.53h1.5v8.66h.07l4.7-4.59h1.71L522.08,139v2.38h-1.5ZM524,136.7l.9-1,4.18,5.62h-1.66Z"/><path d="M529.8,139.19c0-1.84,1.4-3,4.82-3.32v1c-2.72.32-3.45,1.1-3.45,2.21a1.24,1.24,0,0,0,1.33,1.34,3,3,0,0,0,2.28-1.54l.51.76a4.16,4.16,0,0,1-3.19,2A2.21,2.21,0,0,1,529.8,139.19Zm4.48-2.2v-.88c0-1.87-.63-2.5-1.58-2.5a3.9,3.9,0,0,0-2.06.72l-.56-1a5.23,5.23,0,0,1,2.74-.94c1.19,0,2,.69,2.38,2.38h-.38c.54-1.69,1.62-2.38,2.74-2.38,1.82,0,2.68,1.86,2.68,4,0,.34,0,.7-.07,1H535v-1.16h4.26l-.27.36c0-2-.48-3-1.56-3s-2,.92-2,3.4c0,2.09.79,3.41,2.27,3.41a3,3,0,0,0,1.71-.58l.54,1a4,4,0,0,1-2.3.77C535.49,141.56,534.28,139.69,534.28,137Z"/><path d="M541.37,137c0-2.84,1.89-4.61,4-4.61A3.75,3.75,0,0,1,548,133.5h0l-.08-1.61v-3.36h1.5v12.82h-1.23l-.12-1.15H548a4.22,4.22,0,0,1-2.86,1.36C542.88,141.56,541.37,139.91,541.37,137Zm6.55,2v-4.36a3.23,3.23,0,0,0-2.28-1c-1.51,0-2.74,1.33-2.74,3.33s1,3.33,2.58,3.33A3.29,3.29,0,0,0,547.92,139Z"/><path d="M552.31,137a4.4,4.4,0,0,1,4.47-4.57,3.77,3.77,0,0,1,4,4.11,7.17,7.17,0,0,1-.07.9H553.3v-1.16h6.52l-.38.42c0-2.07-1-3.1-2.62-3.1a3.09,3.09,0,0,0-3,3.4,3.18,3.18,0,0,0,3.42,3.43,4.82,4.82,0,0,0,2.67-.83l.54,1a6,6,0,0,1-3.39,1A4.43,4.43,0,0,1,552.31,137Z"/><path d="M563.56,132.6h1.23l.13,1.47H565a4.54,4.54,0,0,1,3.29-1.69c2.07,0,3,1.23,3,3.53v5.44h-1.5v-5.24c0-1.66-.57-2.43-2-2.43-1,0-1.74.52-2.75,1.56v6.11h-1.5Z"/><path d="M585.54,129.54h7.31v1.27h-5.8v3.7H592v1.27h-4.9v4.29h6v1.28h-7.49Z"/><path d="M595.33,132.6h1.19l.13,1.15h0a2.17,2.17,0,0,1,2-1.37c.87,0,1.41.5,1.66,1.51.5-.93,1-1.51,2-1.51,1.23,0,2,1,2,2.7v6.27h-1.48v-6.16c0-1-.29-1.53-.94-1.53s-.93.45-1.4,1.35v6.34h-1.37v-6.16c0-1-.25-1.53-.9-1.53s-1,.45-1.44,1.35v6.34h-1.48Z"/><path d="M606.13,132.6h1.19l.13,1.15h0a2.17,2.17,0,0,1,2-1.37c.87,0,1.41.5,1.66,1.51.5-.93,1-1.51,2.05-1.51,1.23,0,1.95,1,1.95,2.7v6.27h-1.48v-6.16c0-1-.29-1.53-.94-1.53s-.93.45-1.4,1.35v6.34H610v-6.16c0-1-.25-1.53-.9-1.53s-1,.45-1.44,1.35v6.34h-1.48Z"/><path d="M617.11,137a4.4,4.4,0,0,1,4.47-4.57,3.77,3.77,0,0,1,4,4.11,5.56,5.56,0,0,1-.08.9h-7.4v-1.16h6.52l-.38.42c0-2.07-1-3.1-2.63-3.1a3.08,3.08,0,0,0-3,3.4,3.18,3.18,0,0,0,3.42,3.43,4.79,4.79,0,0,0,2.66-.83l.55,1a6,6,0,0,1-3.39,1A4.43,4.43,0,0,1,617.11,137Z"/><path d="M629.3,132.6h1.24l.15,2.07h0a4.63,4.63,0,0,1,3.91-2.29,3.68,3.68,0,0,1,1.73.36L636,134a4.41,4.41,0,0,0-1.63-.29c-1.31,0-2.55.67-3.6,2.5v5.12H629.3Z"/><path d="M638.69,144.93l.31-1.19a2.84,2.84,0,0,0,.79.13,2.54,2.54,0,0,0,2.4-1.86l.25-.64-4.07-8.77h1.51l2.13,4.82c.34.78.72,1.7,1.08,2.54h.07c.31-.83.65-1.74.94-2.54L646,132.6h1.44l-3.87,9.47c-.65,1.73-1.71,3-3.71,3A3.67,3.67,0,0,1,638.69,144.93Z"/><path d="M649.57,140.2l.68-1a6.25,6.25,0,0,0,3.8,1.18c1.48,0,2.2-.61,2.2-1.35s-.35-1.13-2.72-1.62-3.42-1.24-3.42-2.55,1.24-2.49,3.63-2.49a6.49,6.49,0,0,1,3.53,1.12l-.72.95a5.15,5.15,0,0,0-2.93-.92c-1.48,0-2,.6-2,1.26s.76,1.08,2.56,1.46c2.9.63,3.6,1.35,3.6,2.7s-1.39,2.61-3.89,2.61A7.74,7.74,0,0,1,649.57,140.2Z"/><path d="M677.58,128.56h1.33L673,144.23h-1.33Z"/><path d="M688.38,128.56h1.33l-5.91,15.67h-1.33Z"/><path d="M573.56,177.62l1.05-1,2.56,3-.78.74Z"/><path d="M583.19,178.79h3.35c2.42,0,4.05.81,4.05,2.88a2.57,2.57,0,0,1-2.07,2.58v.07c1.73.27,2.74,1.21,2.74,2.83,0,2.32-1.8,3.45-4.45,3.45h-3.62Zm3.1,5c2,0,2.83-.65,2.83-2s-.94-1.75-2.76-1.75h-1.67v3.71Zm.31,5.58c2,0,3.18-.66,3.18-2.26S588.67,185,586.6,185h-1.91v4.32Z"/><path d="M593.6,187.29v-5.44h1.49v5.24c0,1.64.58,2.43,2,2.43,1,0,1.74-.46,2.72-1.6v-6.07h1.49v8.75h-1.24l-.13-1.53h-.07a4.25,4.25,0,0,1-3.26,1.75C594.55,190.82,593.6,189.6,593.6,187.29Z"/><path d="M604.29,189.45l.68-1a6.26,6.26,0,0,0,3.8,1.19c1.48,0,2.2-.61,2.2-1.35s-.34-1.13-2.72-1.62-3.42-1.24-3.42-2.56,1.24-2.48,3.64-2.48a6.63,6.63,0,0,1,3.53,1.11l-.72,1a5.18,5.18,0,0,0-2.94-.92c-1.48,0-2,.59-2,1.26s.76,1.08,2.56,1.46c2.9.63,3.6,1.35,3.6,2.7s-1.39,2.61-3.89,2.61A7.66,7.66,0,0,1,604.29,189.45Z"/><path d="M619.48,183.06h-4.05v-1.21H621v8.75h-1.5Zm-.59-4.19a1.19,1.19,0,0,1,2.37,0,1.19,1.19,0,0,1-2.37,0Z"/><path d="M626.29,181.85h1.22l.13,1.48h.07a4.54,4.54,0,0,1,3.29-1.69c2.07,0,3,1.22,3,3.53v5.43h-1.5v-5.23c0-1.66-.57-2.44-2-2.44-1,0-1.74.53-2.75,1.57v6.1h-1.49Z"/><path d="M636.63,186.21a4.4,4.4,0,0,1,4.47-4.57,3.77,3.77,0,0,1,4,4.1,6.87,6.87,0,0,1-.07.9h-7.4v-1.15h6.51l-.38.42c0-2.07-1-3.1-2.62-3.1a3.08,3.08,0,0,0-3,3.4,3.18,3.18,0,0,0,3.42,3.42,4.75,4.75,0,0,0,2.67-.83l.54,1a6.06,6.06,0,0,1-3.39,1A4.43,4.43,0,0,1,636.63,186.21Z"/><path d="M647.49,189.45l.68-1a6.26,6.26,0,0,0,3.8,1.19c1.48,0,2.2-.61,2.2-1.35s-.34-1.13-2.72-1.62-3.42-1.24-3.42-2.56,1.24-2.48,3.64-2.48a6.56,6.56,0,0,1,3.52,1.11l-.72,1a5.13,5.13,0,0,0-2.93-.92c-1.48,0-2,.59-2,1.26s.76,1.08,2.56,1.46c2.9.63,3.6,1.35,3.6,2.7s-1.39,2.61-3.89,2.61A7.66,7.66,0,0,1,647.49,189.45Z"/><path d="M658.29,189.45l.68-1a6.26,6.26,0,0,0,3.8,1.19c1.48,0,2.2-.61,2.2-1.35s-.34-1.13-2.72-1.62-3.42-1.24-3.42-2.56,1.24-2.48,3.64-2.48a6.56,6.56,0,0,1,3.52,1.11l-.72,1a5.13,5.13,0,0,0-2.93-.92c-1.48,0-2,.59-2,1.26s.76,1.08,2.56,1.46c2.9.63,3.6,1.35,3.6,2.7s-1.39,2.61-3.89,2.61A7.66,7.66,0,0,1,658.29,189.45Z"/><path d="M683.15,178.79h1.73l4,11.81h-1.62l-2-6.59c-.41-1.31-.81-2.61-1.17-4H684c-.38,1.36-.76,2.66-1.17,4l-2.07,6.59h-1.55Zm-1.88,7h5.42V187h-5.42Z"/><path d="M690.49,186.25c0-2.85,1.89-4.61,4-4.61a3.74,3.74,0,0,1,2.63,1.11h0l-.08-1.6v-3.37h1.5V190.6h-1.23l-.12-1.15h-.06a4.19,4.19,0,0,1-2.86,1.37C692,190.82,690.49,189.16,690.49,186.25Zm6.55,2v-4.35a3.23,3.23,0,0,0-2.28-1c-1.52,0-2.74,1.33-2.74,3.33s1,3.33,2.57,3.33A3.28,3.28,0,0,0,697,188.26Z"/><path d="M701.25,181.85h1.19l.13,1.16h0a2.17,2.17,0,0,1,2-1.37c.87,0,1.41.5,1.66,1.51.5-.94,1-1.51,2-1.51,1.23,0,2,1,2,2.7v6.26h-1.48v-6.15c0-1-.29-1.53-.94-1.53s-.93.45-1.4,1.35v6.33h-1.37v-6.15c0-1-.25-1.53-.9-1.53s-1,.45-1.44,1.35v6.33h-1.48Z"/><path d="M716.68,183.06h-4v-1.21h5.54v8.75h-1.49Zm-.59-4.19a1.19,1.19,0,1,1,1.18,1.15A1.11,1.11,0,0,1,716.09,178.87Z"/><path d="M723.48,181.85h1.23l.12,1.48h.08a4.52,4.52,0,0,1,3.29-1.69c2.07,0,3,1.22,3,3.53v5.43h-1.5v-5.23c0-1.66-.57-2.44-2-2.44-1,0-1.74.53-2.75,1.57v6.1h-1.5Z"/><path d="M733.89,189.45l.68-1a6.26,6.26,0,0,0,3.8,1.19c1.48,0,2.2-.61,2.2-1.35s-.35-1.13-2.72-1.62-3.42-1.24-3.42-2.56,1.24-2.48,3.63-2.48a6.57,6.57,0,0,1,3.53,1.11l-.72,1a5.15,5.15,0,0,0-2.93-.92c-1.48,0-2,.59-2,1.26s.76,1.08,2.56,1.46c2.9.63,3.6,1.35,3.6,2.7s-1.39,2.61-3.89,2.61A7.66,7.66,0,0,1,733.89,189.45Z"/><path d="M747.12,187.2v-4.14h-2.49v-1.12l2.54-.09.2-2.8h1.24v2.8h4.29v1.21h-4.29v4.16c0,1.57.52,2.38,2.22,2.38a5.85,5.85,0,0,0,2.09-.4l.32,1.1a7.6,7.6,0,0,1-2.74.52C748,190.82,747.12,189.36,747.12,187.2Z"/><path d="M756.82,181.85h1.24l.15,2.08h0a4.61,4.61,0,0,1,3.91-2.29,3.68,3.68,0,0,1,1.73.36l-.34,1.28a4.41,4.41,0,0,0-1.63-.29c-1.31,0-2.55.66-3.6,2.5v5.11h-1.49Z"/><path d="M766.45,188.34c0-2,1.84-2.92,6.35-3.28a2.08,2.08,0,0,0-2.32-2.2,6.05,6.05,0,0,0-3.06,1l-.59-1a7.61,7.61,0,0,1,3.9-1.26,3.25,3.25,0,0,1,3.57,3.6v5.36h-1.24l-.13-1.18h0a6,6,0,0,1-3.44,1.4C767.8,190.82,766.45,189.9,766.45,188.34Zm6.35,0v-2.27c-3.74.29-4.88,1-4.88,2.18,0,1,.91,1.38,1.91,1.38A4.73,4.73,0,0,0,772.8,188.32Z"/><path d="M779.52,187.2v-4.14H777v-1.12l2.54-.09.2-2.8H781v2.8h4.29v1.21H781v4.16c0,1.57.52,2.38,2.22,2.38a5.79,5.79,0,0,0,2.08-.4l.33,1.1a7.6,7.6,0,0,1-2.74.52C780.34,190.82,779.52,189.36,779.52,187.2Z"/><path d="M792.28,183.06h-4v-1.21h5.54v8.75h-1.49Zm-.6-4.19a1.19,1.19,0,0,1,2.38,0,1.19,1.19,0,0,1-2.38,0Z"/><path d="M798.49,186.25a4.33,4.33,0,1,1,4.32,4.57A4.28,4.28,0,0,1,798.49,186.25Zm7.11,0c0-2-1.12-3.37-2.79-3.37s-2.79,1.35-2.79,3.37,1.11,3.33,2.79,3.33S805.6,188.25,805.6,186.25Z"/><path d="M809.88,181.85h1.23l.12,1.48h.07a4.56,4.56,0,0,1,3.3-1.69c2.07,0,3,1.22,3,3.53v5.43h-1.49v-5.23c0-1.66-.58-2.44-2-2.44-1,0-1.75.53-2.75,1.57v6.1h-1.5Z"/><path d="M834.34,178.79h1.73l4,11.81h-1.62l-2-6.59c-.42-1.31-.81-2.61-1.17-4h-.08c-.37,1.36-.75,2.66-1.17,4l-2.07,6.59h-1.54Zm-1.87,7h5.42V187h-5.42Z"/><path d="M842.28,181.85h1.22l.13,1.48h.07a4.56,4.56,0,0,1,3.3-1.69c2.07,0,3,1.22,3,3.53v5.43h-1.49v-5.23c0-1.66-.58-2.44-2-2.44-1,0-1.75.53-2.75,1.57v6.1h-1.5Z"/><path d="M852.49,186.25c0-2.85,1.89-4.61,4-4.61a3.78,3.78,0,0,1,2.63,1.11h0l-.07-1.6v-3.37h1.5V190.6h-1.23l-.13-1.15h0a4.19,4.19,0,0,1-2.86,1.37C854,190.82,852.49,189.16,852.49,186.25Zm6.55,2v-4.35a3.24,3.24,0,0,0-2.29-1c-1.51,0-2.73,1.33-2.73,3.33s1,3.33,2.57,3.33A3.28,3.28,0,0,0,859,188.26Z"/><path d="M874.57,178.79h2.92c3.55,0,5.47,2.11,5.47,5.85s-1.92,6-5.4,6h-3Zm2.81,10.57c2.68,0,4-1.73,4-4.72s-1.34-4.6-4-4.6h-1.29v9.32Z"/><path d="M889.48,183.06h-4.05v-1.21H891v8.75h-1.49Zm-.6-4.19a1.19,1.19,0,0,1,2.38,0,1.19,1.19,0,0,1-2.38,0Z"/><path d="M895.9,192.21a2.45,2.45,0,0,1,1.44-2v-.07a1.58,1.58,0,0,1-.9-1.44,2.12,2.12,0,0,1,1-1.64V187a2.77,2.77,0,0,1-1.08-2.27,3.2,3.2,0,0,1,3.43-3.13,3.65,3.65,0,0,1,1.3.21h3.62v1.21h-2.27a2.62,2.62,0,0,1,.74,1.77c0,1.87-1.49,3-3.39,3a3.83,3.83,0,0,1-1.47-.32,1.21,1.21,0,0,0-.69,1c0,.68.67,1,1.82,1h2c2.25,0,3.33.58,3.33,2.06,0,1.64-1.89,3.06-4.87,3.06C897.38,194.64,895.9,193.76,895.9,192.21Zm7.44-.4c0-.83-.67-1.06-2-1.06h-1.71a4.82,4.82,0,0,1-1.33-.15c-.83.45-1.12,1-1.12,1.46,0,.92,1,1.5,2.86,1.5C902.08,193.56,903.34,192.71,903.34,191.81Zm-1.48-7a2,2,0,1,0-2,2.07A2,2,0,0,0,901.86,184.77Z"/><path d="M911.08,183.06H907v-1.21h5.54v8.75h-1.49Zm-.6-4.19a1.19,1.19,0,0,1,2.38,0,1.19,1.19,0,0,1-2.38,0Z"/><path d="M919.91,187.2v-4.14h-2.48v-1.12l2.54-.09.2-2.8h1.24v2.8h4.28v1.21h-4.28v4.16c0,1.57.52,2.38,2.21,2.38a5.85,5.85,0,0,0,2.09-.4l.33,1.1a7.64,7.64,0,0,1-2.74.52C920.74,190.82,919.91,189.36,919.91,187.2Z"/><path d="M928.45,188.34c0-2,1.83-2.92,6.35-3.28a2.08,2.08,0,0,0-2.32-2.2,6,6,0,0,0-3.06,1l-.6-1a7.64,7.64,0,0,1,3.91-1.26,3.25,3.25,0,0,1,3.57,3.6v5.36h-1.25l-.12-1.18h-.06a5.9,5.9,0,0,1-3.44,1.4C929.8,190.82,928.45,189.9,928.45,188.34Zm6.35,0v-2.27c-3.74.29-4.88,1-4.88,2.18,0,1,.9,1.38,1.91,1.38A4.75,4.75,0,0,0,934.8,188.32Z"/><path d="M942.23,187.67V179h-3.09v-1.21h4.59v10a1.58,1.58,0,0,0,1.73,1.8,4,4,0,0,0,1.64-.4l.37,1.12a5.32,5.32,0,0,1-2.34.52C943.26,190.82,942.23,189.74,942.23,187.67Z"/><path d="M961.46,178.79h7.31v1.28H963v3.69h4.9V185H963v4.29h6v1.27h-7.49Z"/><path d="M974.67,186.07l-3.06-4.22h1.64l1.38,1.91c.31.49.67,1,1,1.48h.07c.33-.47.69-1,1-1.5l1.3-1.89h1.58l-3.09,4.34,3.34,4.41H978.2l-1.51-2c-.38-.49-.78-1.08-1.16-1.59h-.07c-.36.53-.72,1.05-1.08,1.61l-1.44,2h-1.58Z"/><path d="M982.68,181.85h1.22L984,183h.05a4.68,4.68,0,0,1,3-1.33c2.36,0,3.62,1.74,3.62,4.46,0,3-1.88,4.72-4,4.72a4.14,4.14,0,0,1-2.61-1.13h0l.07,1.65v3h-1.49Zm6.52,4.25c0-1.92-.72-3.2-2.47-3.2a3.72,3.72,0,0,0-2.56,1.29v4.36a3.65,3.65,0,0,0,2.33,1C988,189.56,989.2,188.26,989.2,186.1Z"/><path d="M993,186.21a4.4,4.4,0,0,1,4.46-4.57,3.77,3.77,0,0,1,4,4.1,6.87,6.87,0,0,1-.07.9H994v-1.15h6.52l-.38.42c0-2.07-1-3.1-2.63-3.1a3.08,3.08,0,0,0-3,3.4,3.18,3.18,0,0,0,3.43,3.42,4.71,4.71,0,0,0,2.66-.83l.54,1a6,6,0,0,1-3.38,1A4.43,4.43,0,0,1,993,186.21Z"/><path d="M1005.21,181.85h1.25l.14,2.08h0a4.58,4.58,0,0,1,3.9-2.29,3.68,3.68,0,0,1,1.73.36l-.34,1.28a4.35,4.35,0,0,0-1.62-.29c-1.31,0-2.56.66-3.6,2.5v5.11h-1.5Z"/><path d="M1019.08,183.06H1015v-1.21h5.55v8.75h-1.49Zm-.6-4.19a1.19,1.19,0,0,1,2.38,0,1.19,1.19,0,0,1-2.38,0Z"/><path d="M1025.43,186.21a4.4,4.4,0,0,1,4.46-4.57,3.77,3.77,0,0,1,4,4.1,6.87,6.87,0,0,1-.07.9h-7.4v-1.15h6.52l-.38.42c0-2.07-1-3.1-2.63-3.1a3.08,3.08,0,0,0-3,3.4,3.18,3.18,0,0,0,3.43,3.42,4.71,4.71,0,0,0,2.66-.83l.54,1a6,6,0,0,1-3.39,1A4.43,4.43,0,0,1,1025.43,186.21Z"/><path d="M1036.68,181.85h1.22l.13,1.48h.07a4.56,4.56,0,0,1,3.29-1.69c2.08,0,3,1.22,3,3.53v5.43h-1.5v-5.23c0-1.66-.57-2.44-2-2.44-1,0-1.75.53-2.76,1.57v6.1h-1.49Z"/><path d="M1047.24,186.25c0-2.94,2.24-4.61,4.88-4.61a4.43,4.43,0,0,1,3.19,1.28l-.74,1a3.62,3.62,0,0,0-2.39-1,3.22,3.22,0,0,0-3.41,3.37,3.18,3.18,0,0,0,3.37,3.33,4.17,4.17,0,0,0,2.7-1.1l.67,1a5.19,5.19,0,0,1-3.48,1.37C1049.3,190.82,1047.24,189.15,1047.24,186.25Z"/><path d="M1057.83,186.21a4.4,4.4,0,0,1,4.46-4.57,3.77,3.77,0,0,1,4,4.1,6.87,6.87,0,0,1-.07.9h-7.4v-1.15h6.52l-.38.42c0-2.07-1-3.1-2.63-3.1a3.08,3.08,0,0,0-3,3.4,3.18,3.18,0,0,0,3.42,3.42,4.72,4.72,0,0,0,2.67-.83l.54,1a6,6,0,0,1-3.39,1A4.43,4.43,0,0,1,1057.83,186.21Z"/><path d="M1071.65,179.64l2.56-3,1,1-2.82,2.76Z"/><path d="M1090.68,181.85h1.22L1092,183h0a4.66,4.66,0,0,1,3-1.33c2.35,0,3.61,1.74,3.61,4.46,0,3-1.87,4.72-4,4.72a4.18,4.18,0,0,1-2.62-1.13h0l.07,1.65v3h-1.49Zm6.51,4.25c0-1.92-.72-3.2-2.46-3.2a3.7,3.7,0,0,0-2.56,1.29v4.36a3.65,3.65,0,0,0,2.32,1C1096,189.56,1097.19,188.26,1097.19,186.1Z"/><path d="M1101.24,188.34c0-2,1.84-2.92,6.36-3.28a2.08,2.08,0,0,0-2.32-2.2,6.06,6.06,0,0,0-3.07,1l-.59-1a7.64,7.64,0,0,1,3.91-1.26,3.25,3.25,0,0,1,3.56,3.6v5.36h-1.24l-.13-1.18h0a5.9,5.9,0,0,1-3.44,1.4C1102.59,190.82,1101.24,189.9,1101.24,188.34Zm6.36,0v-2.27c-3.75.29-4.88,1-4.88,2.18,0,1,.9,1.38,1.91,1.38A4.75,4.75,0,0,0,1107.6,188.32Zm-4-9.69a2,2,0,1,1,2,1.73A1.77,1.77,0,0,1,1103.58,178.63Zm3,0a1,1,0,1,0-1,1.06A1,1,0,0,0,1106.59,178.63Z"/><path d="M1122.88,178.79h1.65l3.79,7.42,1.13,2.45h0c-.06-1.17-.2-2.5-.2-3.74v-6.13h1.44V190.6h-1.66l-3.78-7.41-1.13-2.45h0c.05,1.2.2,2.46.2,3.69v6.17h-1.44Z"/><path d="M1133.28,186.25a4.33,4.33,0,1,1,4.32,4.57A4.29,4.29,0,0,1,1133.28,186.25Zm7.11,0c0-2-1.11-3.37-2.79-3.37s-2.79,1.35-2.79,3.37,1.12,3.33,2.79,3.33S1140.39,188.25,1140.39,186.25Z"/><path d="M1145.61,181.85h1.24l.15,2.08h0a4.61,4.61,0,0,1,3.91-2.29,3.68,3.68,0,0,1,1.73.36l-.34,1.28a4.35,4.35,0,0,0-1.62-.29c-1.32,0-2.56.66-3.6,2.5v5.11h-1.5Z"/><path d="M1153.94,181.85h1.48l1,5.08c.16.83.28,1.59.39,2.41h.07a22.46,22.46,0,0,1,.51-2.41l1.08-4.54H1160l1,4.54a23.76,23.76,0,0,1,.54,2.41h.07c.14-.82.23-1.58.4-2.41l1-5.08h1.37l-1.87,8.75h-1.91l-1-4.17c-.14-.61-.29-1.48-.43-2.59h-.07c-.15,1.11-.29,2-.44,2.59l-1,4.17h-1.91Z"/><path d="M1166,188.34c0-2,1.84-2.92,6.36-3.28a2.08,2.08,0,0,0-2.33-2.2,6.05,6.05,0,0,0-3.06,1l-.59-1a7.64,7.64,0,0,1,3.91-1.26,3.25,3.25,0,0,1,3.56,3.6v5.36h-1.24l-.13-1.18h0a6,6,0,0,1-3.44,1.4C1167.39,190.82,1166,189.9,1166,188.34Zm6.36,0v-2.27c-3.75.29-4.88,1-4.88,2.18,0,1,.9,1.38,1.91,1.38A4.75,4.75,0,0,0,1172.4,188.32Z"/><path d="M1179.83,187.67V179h-3.1v-1.21h4.59v10a1.58,1.58,0,0,0,1.73,1.8,3.93,3.93,0,0,0,1.64-.4l.38,1.12a5.35,5.35,0,0,1-2.34.52C1180.86,190.82,1179.83,189.74,1179.83,187.67Z"/><path d="M1188.09,177.78h1.5v8.67h.07l4.7-4.6h1.71l-6.48,6.38v2.37h-1.5Zm3.37,8.18.9-1,4.18,5.61h-1.66Z"/><path d="M1209,184.7c0-3.8,2.21-6.12,5.29-6.12a4.39,4.39,0,0,1,3.24,1.44l-.86.95a3.16,3.16,0,0,0-2.38-1.06c-2.25,0-3.72,1.82-3.72,4.75s1.47,4.83,3.72,4.83a3.41,3.41,0,0,0,2.65-1.3l.86.92a4.54,4.54,0,0,1-3.65,1.71C1211.2,190.82,1209,188.55,1209,184.7Z"/><path d="M1219.68,186.25a4.33,4.33,0,1,1,4.32,4.57A4.29,4.29,0,0,1,1219.68,186.25Zm7.11,0c0-2-1.11-3.37-2.79-3.37s-2.79,1.35-2.79,3.37,1.12,3.33,2.79,3.33S1226.79,188.25,1226.79,186.25Z"/><path d="M1230.44,181.85h1.19l.13,1.16h0a2.17,2.17,0,0,1,2-1.37c.87,0,1.41.5,1.66,1.51.5-.94,1-1.51,2-1.51,1.23,0,2,1,2,2.7v6.26H1238v-6.15c0-1-.29-1.53-.94-1.53s-.93.45-1.4,1.35v6.33h-1.37v-6.15c0-1-.25-1.53-.9-1.53s-1,.45-1.44,1.35v6.33h-1.48Z"/><path d="M1241.24,181.85h1.19l.13,1.16h0a2.17,2.17,0,0,1,2-1.37c.87,0,1.41.5,1.66,1.51.5-.94,1-1.51,2-1.51,1.23,0,2,1,2,2.7v6.26h-1.48v-6.15c0-1-.29-1.53-.94-1.53s-.93.45-1.4,1.35v6.33h-1.37v-6.15c0-1-.25-1.53-.9-1.53s-1,.45-1.44,1.35v6.33h-1.48Z"/><path d="M1252.39,187.29v-5.44h1.49v5.24c0,1.64.58,2.43,2,2.43,1,0,1.74-.46,2.72-1.6v-6.07h1.49v8.75h-1.24l-.13-1.53h-.07a4.25,4.25,0,0,1-3.26,1.75C1253.34,190.82,1252.39,189.6,1252.39,187.29Z"/><path d="M1263.47,181.85h1.23l.12,1.48h.08a4.52,4.52,0,0,1,3.29-1.69c2.07,0,3,1.22,3,3.53v5.43h-1.5v-5.23c0-1.66-.57-2.44-2-2.44-1,0-1.74.53-2.75,1.57v6.1h-1.5Z"/><path d="M1278.27,183.06h-4v-1.21h5.54v8.75h-1.49Zm-.59-4.19a1.19,1.19,0,1,1,1.18,1.15A1.11,1.11,0,0,1,1277.68,178.87Z"/><path d="M1287.11,187.2v-4.14h-2.49v-1.12l2.54-.09.2-2.8h1.24v2.8h4.29v1.21h-4.29v4.16c0,1.57.52,2.38,2.22,2.38a5.85,5.85,0,0,0,2.09-.4l.32,1.1a7.6,7.6,0,0,1-2.74.52C1287.94,190.82,1287.11,189.36,1287.11,187.2Z"/><path d="M1295.4,194.19l.31-1.19a2.84,2.84,0,0,0,.79.13,2.54,2.54,0,0,0,2.4-1.86l.25-.65-4.07-8.77h1.51l2.13,4.83c.34.77.72,1.69,1.08,2.54h.07l.94-2.54,1.89-4.83h1.44l-3.87,9.48c-.65,1.72-1.71,3-3.71,3A3.67,3.67,0,0,1,1295.4,194.19Z"/><path d="M1317,184.7c0-3.8,2.21-6.12,5.29-6.12a4.41,4.41,0,0,1,3.24,1.44l-.86.95a3.16,3.16,0,0,0-2.38-1.06c-2.25,0-3.73,1.82-3.73,4.75s1.48,4.83,3.73,4.83a3.41,3.41,0,0,0,2.65-1.3l.86.92a4.57,4.57,0,0,1-3.65,1.71C1319.2,190.82,1317,188.55,1317,184.7Z"/><path d="M1327.68,186.25a4.33,4.33,0,1,1,4.32,4.57A4.28,4.28,0,0,1,1327.68,186.25Zm7.11,0c0-2-1.12-3.37-2.79-3.37s-2.79,1.35-2.79,3.37,1.12,3.33,2.79,3.33S1334.79,188.25,1334.79,186.25Z"/><path d="M1341.83,187.67V179h-3.1v-1.21h4.59v10a1.58,1.58,0,0,0,1.73,1.8,4,4,0,0,0,1.64-.4l.38,1.12a5.35,5.35,0,0,1-2.34.52C1342.85,190.82,1341.83,189.74,1341.83,187.67Z"/><path d="M1352.63,187.67V179h-3.1v-1.21h4.59v10a1.58,1.58,0,0,0,1.73,1.8,4,4,0,0,0,1.64-.4l.38,1.12a5.35,5.35,0,0,1-2.34.52C1353.65,190.82,1352.63,189.74,1352.63,187.67Z"/><path d="M1360.22,186.21a4.4,4.4,0,0,1,4.47-4.57,3.76,3.76,0,0,1,4,4.1,5.48,5.48,0,0,1-.07.9h-7.4v-1.15h6.52l-.38.42c0-2.07-1-3.1-2.63-3.1a3.08,3.08,0,0,0-3,3.4,3.17,3.17,0,0,0,3.42,3.42,4.71,4.71,0,0,0,2.66-.83l.54,1a6,6,0,0,1-3.38,1A4.43,4.43,0,0,1,1360.22,186.21Z"/><path d="M1371.09,192.21a2.45,2.45,0,0,1,1.44-2v-.07a1.59,1.59,0,0,1-.9-1.44,2.12,2.12,0,0,1,1-1.64V187a2.77,2.77,0,0,1-1.08-2.27,3.21,3.21,0,0,1,3.44-3.13,3.6,3.6,0,0,1,1.29.21H1380v1.21h-2.27a2.62,2.62,0,0,1,.74,1.77c0,1.87-1.49,3-3.38,3a3.91,3.91,0,0,1-1.48-.32,1.2,1.2,0,0,0-.68,1c0,.68.66,1,1.81,1h2c2.25,0,3.33.58,3.33,2.06,0,1.64-1.89,3.06-4.86,3.06C1372.57,194.64,1371.09,193.76,1371.09,192.21Zm7.44-.4c0-.83-.67-1.06-2-1.06h-1.71a4.87,4.87,0,0,1-1.33-.15c-.83.45-1.12,1-1.12,1.46,0,.92,1,1.5,2.86,1.5C1377.27,193.56,1378.53,192.71,1378.53,191.81Zm-1.48-7a2,2,0,1,0-2,2.07A2,2,0,0,0,1377.05,184.77Z"/><path d="M1381.82,186.21a4.4,4.4,0,0,1,4.47-4.57,3.76,3.76,0,0,1,4,4.1,5.48,5.48,0,0,1-.07.9h-7.4v-1.15h6.52l-.38.42c0-2.07-1-3.1-2.63-3.1a3.08,3.08,0,0,0-3,3.4,3.17,3.17,0,0,0,3.42,3.42,4.71,4.71,0,0,0,2.66-.83l.54,1a6,6,0,0,1-3.38,1A4.43,4.43,0,0,1,1381.82,186.21Z"/><path d="M1407.87,183.06h-4v-1.21h5.54v8.75h-1.49Zm-.6-4.19a1.19,1.19,0,0,1,2.38,0,1.19,1.19,0,0,1-2.38,0Z"/><path d="M1425,184.7c0-3.8,2.21-6.12,5.29-6.12a4.41,4.41,0,0,1,3.24,1.44l-.86.95a3.18,3.18,0,0,0-2.38-1.06c-2.25,0-3.73,1.82-3.73,4.75s1.48,4.83,3.73,4.83a3.41,3.41,0,0,0,2.65-1.3l.86.92a4.57,4.57,0,0,1-3.65,1.71C1427.2,190.82,1425,188.55,1425,184.7Z"/><path d="M1435.68,186.25a4.33,4.33,0,1,1,4.32,4.57A4.28,4.28,0,0,1,1435.68,186.25Zm7.11,0c0-2-1.12-3.37-2.79-3.37s-2.79,1.35-2.79,3.37,1.11,3.33,2.79,3.33S1442.79,188.25,1442.79,186.25Z"/><path d="M1447.07,181.85h1.22l.13,1.48h.07a4.56,4.56,0,0,1,3.3-1.69c2.07,0,3,1.22,3,3.53v5.43h-1.49v-5.23c0-1.66-.58-2.44-2-2.44-1,0-1.75.53-2.76,1.57v6.1h-1.49Z"/><path d="M1457.87,181.85h1.22l.13,1.48h.07a4.56,4.56,0,0,1,3.3-1.69c2.07,0,3,1.22,3,3.53v5.43h-1.49v-5.23c0-1.66-.58-2.44-2-2.44-1,0-1.75.53-2.76,1.57v6.1h-1.49Z"/><path d="M1468.22,186.21a4.4,4.4,0,0,1,4.46-4.57,3.76,3.76,0,0,1,4,4.1,5.48,5.48,0,0,1-.07.9h-7.4v-1.15h6.52l-.38.42c0-2.07-1-3.1-2.63-3.1a3.08,3.08,0,0,0-3,3.4,3.17,3.17,0,0,0,3.42,3.42,4.71,4.71,0,0,0,2.66-.83l.54,1a6,6,0,0,1-3.38,1A4.43,4.43,0,0,1,1468.22,186.21Z"/><path d="M1479.24,186.25c0-2.94,2.23-4.61,4.88-4.61a4.4,4.4,0,0,1,3.18,1.28l-.74,1a3.6,3.6,0,0,0-2.39-1,3.21,3.21,0,0,0-3.4,3.37,3.17,3.17,0,0,0,3.36,3.33,4.17,4.17,0,0,0,2.7-1.1l.67,1a5.19,5.19,0,0,1-3.48,1.37C1481.29,190.82,1479.24,189.15,1479.24,186.25Z"/><path d="M1492.3,187.2v-4.14h-2.48v-1.12l2.54-.09.2-2.8h1.24v2.8h4.28v1.21h-4.28v4.16c0,1.57.52,2.38,2.21,2.38a5.85,5.85,0,0,0,2.09-.4l.33,1.1a7.64,7.64,0,0,1-2.74.52C1493.13,190.82,1492.3,189.36,1492.3,187.2Z"/><path d="M1505.07,183.06H1501v-1.21h5.55v8.75h-1.49Zm-.6-4.19a1.19,1.19,0,0,1,2.38,0,1.19,1.19,0,0,1-2.38,0Z"/><path d="M1511.63,186.25c0-2.94,2.24-4.61,4.88-4.61a4.41,4.41,0,0,1,3.19,1.28l-.74,1a3.6,3.6,0,0,0-2.39-1,3.21,3.21,0,0,0-3.4,3.37,3.17,3.17,0,0,0,3.36,3.33,4.17,4.17,0,0,0,2.7-1.1l.67,1a5.19,5.19,0,0,1-3.48,1.37C1513.69,190.82,1511.63,189.15,1511.63,186.25Z"/><path d="M1522.38,187.29v-5.44h1.5v5.24c0,1.64.57,2.43,2,2.43,1,0,1.75-.46,2.72-1.6v-6.07h1.49v8.75h-1.24l-.12-1.53h-.08a4.23,4.23,0,0,1-3.25,1.75C1523.34,190.82,1522.38,189.6,1522.38,187.29Z"/><path d="M1535.5,187.2v-4.14H1533v-1.12l2.54-.09.19-2.8H1537v2.8h4.28v1.21H1537v4.16c0,1.57.52,2.38,2.21,2.38a5.85,5.85,0,0,0,2.09-.4l.33,1.1a7.64,7.64,0,0,1-2.74.52C1536.33,190.82,1535.5,189.36,1535.5,187.2Z"/><path d="M1546.12,193.5a3.21,3.21,0,0,0,2.27-3.15l-.32-1.65,1,1.42a1.42,1.42,0,0,1-2.42-.94,1.35,1.35,0,0,1,1.44-1.37c1.07,0,1.62.89,1.62,2.31a4.42,4.42,0,0,1-3.17,4.32Z"/><path d="M1565.62,186.14v-7.35h1.53v7.39c0,2.43,1.06,3.31,2.46,3.31s2.51-.88,2.51-3.31v-7.39h1.45v7.35c0,3.38-1.65,4.68-4,4.68S1565.62,189.52,1565.62,186.14Z"/><path d="M1576.2,189.07l.9-1a5,5,0,0,0,3.46,1.46c1.62,0,2.55-.78,2.55-1.86,0-1.26-.91-1.62-2.1-2.12l-1.71-.76c-1.17-.47-2.54-1.29-2.54-3s1.62-3.13,3.87-3.13a5.14,5.14,0,0,1,3.64,1.46l-.8,1a4.1,4.1,0,0,0-2.89-1.1c-1.37,0-2.29.65-2.29,1.71s1.1,1.55,2.1,1.94l1.66.74c1.46.58,2.61,1.41,2.61,3.15s-1.58,3.37-4.18,3.37A6,6,0,0,1,1576.2,189.07Z"/><path d="M1590.33,178.79h1.73l4,11.81h-1.62l-2-6.59c-.41-1.31-.81-2.61-1.17-4h-.07c-.38,1.36-.76,2.66-1.17,4l-2.07,6.59h-1.55Zm-1.87,7h5.42V187h-5.42Z"/><path d="M1615.08,177.82h1.33l-5.9,15.67h-1.34Z"/><path d="M1625.88,177.82h1.33l-5.9,15.67H1620Z"/><path d="M1641.11,189.72c3.89-3.44,6-5.45,6-7.36,0-1.32-.79-2.23-2.48-2.23a4,4,0,0,0-2.76,1.36l-.86-.84a5.1,5.1,0,0,1,3.8-1.75c2.3,0,3.74,1.35,3.74,3.39s-2.16,4.3-5.27,7.13c.71-.06,1.45-.09,2.14-.09h3.76v1.27h-8.08Z"/><path d="M1651.87,184.83c0-3.86,1.57-5.93,4.12-5.93s4.13,2.07,4.13,5.93-1.57,6-4.13,6S1651.87,188.64,1651.87,184.83Zm6.86,0c0-3.3-1.13-4.72-2.74-4.72s-2.73,1.42-2.73,4.72,1.13,4.78,2.73,4.78S1658.73,188.12,1658.73,184.83Zm-3.85-.13a1.12,1.12,0,1,1,1.11,1.21A1.12,1.12,0,0,1,1654.88,184.7Z"/><path d="M1663.14,189.36h3.31v-8.42h-2.57v-1a8.43,8.43,0,0,0,2.95-.84H1668v10.24h3v1.24h-7.79Z"/><path d="M1673.42,187.67c0-1.58,1.22-2.49,2.46-3.06v-.07a3.24,3.24,0,0,1-1.74-2.69c0-1.76,1.49-2.95,3.54-2.95,2.25,0,3.57,1.28,3.57,3.06a3.61,3.61,0,0,1-1.75,2.74v.07c1.26.63,2.25,1.35,2.25,3s-1.49,3.06-4.12,3.06S1673.42,189.49,1673.42,187.67Zm6.91,0c0-1.59-1.6-2-3.6-2.67-1.12.59-2,1.33-2,2.49s1.13,2.17,2.9,2.17S1680.33,188.89,1680.33,187.71ZM1680,182a2,2,0,0,0-2.3-2,1.91,1.91,0,0,0-2.15,1.83c0,1.37,1.32,2,3,2.49A2.91,2.91,0,0,0,1680,182Z"/><path d="M1132.62,216.44h3.69c2.4,0,4.14.87,4.14,3.34s-1.74,3.49-4.14,3.49h-2.16v5h-1.53Zm3.48,5.6c1.83,0,2.84-.75,2.84-2.26s-1-2.11-2.84-2.11h-1.95V222Zm1.09,0,3.61,6.2h-1.71l-3.08-5.41Z"/><path d="M1142.86,223.86a4.4,4.4,0,0,1,4.47-4.57,3.77,3.77,0,0,1,4,4.1,5.59,5.59,0,0,1-.08.91h-7.4v-1.16h6.52l-.38.42c0-2.07-1-3.1-2.63-3.1a3.08,3.08,0,0,0-3,3.4,3.18,3.18,0,0,0,3.42,3.42,4.84,4.84,0,0,0,2.67-.82l.54,1a6.09,6.09,0,0,1-3.39,1A4.43,4.43,0,0,1,1142.86,223.86Z"/><path d="M1154.33,215.44h1.49v8.66h.08l4.69-4.59h1.72l-6.49,6.37v2.38h-1.49Zm3.37,8.17.9-1,4.17,5.62h-1.65Z"/><path d="M1167.67,225.32v-8.68h-3.1v-1.2h4.59v10a1.58,1.58,0,0,0,1.73,1.8,4,4,0,0,0,1.64-.4l.38,1.12a5.35,5.35,0,0,1-2.34.52C1168.69,228.47,1167.67,227.39,1167.67,225.32Z"/><path d="M1175.48,226c0-2,1.84-2.92,6.35-3.28a2.08,2.08,0,0,0-2.32-2.2,6.05,6.05,0,0,0-3.06,1.05l-.59-1a7.61,7.61,0,0,1,3.9-1.26,3.25,3.25,0,0,1,3.57,3.6v5.37h-1.24l-.13-1.19h0a6,6,0,0,1-3.44,1.4C1176.83,228.47,1175.48,227.55,1175.48,226Zm6.35,0V223.7c-3.74.29-4.87,1-4.87,2.18,0,1,.9,1.39,1.9,1.39A4.75,4.75,0,0,0,1181.83,226Z"/><path d="M1185.88,219.51h1.19l.13,1.15h0a2.17,2.17,0,0,1,2-1.37c.87,0,1.41.5,1.66,1.51.5-.93,1-1.51,2-1.51,1.23,0,1.94,1,1.94,2.7v6.27h-1.47V222.1c0-1-.29-1.53-.94-1.53s-.93.45-1.4,1.35v6.34h-1.37V222.1c0-1-.25-1.53-.9-1.53s-1,.45-1.44,1.35v6.34h-1.48Z"/><path d="M1196.86,223.86a4.4,4.4,0,0,1,4.47-4.57,3.76,3.76,0,0,1,4,4.1,5.71,5.71,0,0,1-.07.91h-7.4v-1.16h6.52l-.38.42c0-2.07-1-3.1-2.63-3.1a3.08,3.08,0,0,0-3,3.4,3.17,3.17,0,0,0,3.42,3.42,4.78,4.78,0,0,0,2.66-.82l.54,1a6,6,0,0,1-3.38,1A4.43,4.43,0,0,1,1196.86,223.86Z"/><path d="M1209.5,227.28h-.06l-.14,1h-1.19V215.44h1.5v3.49l-.08,1.69h.06a4.3,4.3,0,0,1,2.93-1.33c2.36,0,3.64,1.75,3.64,4.45,0,3-1.87,4.73-3.94,4.73A4.3,4.3,0,0,1,1209.5,227.28Zm5.13-3.52c0-1.93-.72-3.21-2.47-3.21a3.71,3.71,0,0,0-2.55,1.3v4.35a3.66,3.66,0,0,0,2.35,1C1213.48,227.21,1214.63,225.92,1214.63,223.76Z"/><path d="M1218.62,224.94v-5.43h1.5v5.24c0,1.63.57,2.43,2,2.43,1,0,1.75-.47,2.72-1.61v-6.06h1.5v8.75h-1.24l-.13-1.53h-.07a4.27,4.27,0,0,1-3.26,1.74C1219.58,228.47,1218.62,227.25,1218.62,224.94Z"/><path d="M1230.65,219.51h1.24l.14,2.07h0a4.61,4.61,0,0,1,3.91-2.29,3.68,3.68,0,0,1,1.73.36l-.35,1.28a4.32,4.32,0,0,0-1.62-.29c-1.31,0-2.55.67-3.6,2.5v5.12h-1.49Z"/><path d="M1240.06,223.86a4.4,4.4,0,0,1,4.47-4.57,3.76,3.76,0,0,1,4,4.1,5.71,5.71,0,0,1-.07.91h-7.4v-1.16h6.52l-.38.42c0-2.07-1-3.1-2.63-3.1a3.08,3.08,0,0,0-3,3.4,3.17,3.17,0,0,0,3.42,3.42,4.78,4.78,0,0,0,2.66-.82l.54,1a6,6,0,0,1-3.38,1A4.43,4.43,0,0,1,1240.06,223.86Z"/><path d="M1251.08,226c0-2,1.83-2.92,6.35-3.28a2.08,2.08,0,0,0-2.32-2.2,6.05,6.05,0,0,0-3.06,1.05l-.59-1a7.61,7.61,0,0,1,3.9-1.26,3.25,3.25,0,0,1,3.57,3.6v5.37h-1.24l-.13-1.19h-.06a5.89,5.89,0,0,1-3.43,1.4C1252.43,228.47,1251.08,227.55,1251.08,226Zm6.35,0V223.7c-3.74.29-4.88,1-4.88,2.18,0,1,.9,1.39,1.91,1.39A4.77,4.77,0,0,0,1257.43,226Z"/><path d="M1261.82,224.94v-5.43h1.5v5.24c0,1.63.57,2.43,2,2.43,1,0,1.75-.47,2.72-1.61v-6.06h1.5v8.75h-1.25l-.12-1.53h-.07a4.29,4.29,0,0,1-3.26,1.74C1262.78,228.47,1261.82,227.25,1261.82,224.94Z"/><path d="M1272.46,223.86a4.4,4.4,0,0,1,4.47-4.57,3.76,3.76,0,0,1,4,4.1,5.71,5.71,0,0,1-.07.91h-7.4v-1.16H1280l-.38.42c0-2.07-1-3.1-2.63-3.1a3.08,3.08,0,0,0-3,3.4,3.17,3.17,0,0,0,3.42,3.42,4.78,4.78,0,0,0,2.66-.82l.54,1a6,6,0,0,1-3.38,1A4.43,4.43,0,0,1,1272.46,223.86Z"/><path d="M1285.75,224.85v-4.14h-2.49V219.6l2.54-.09.2-2.81h1.24v2.81h4.29v1.2h-4.29v4.16c0,1.57.52,2.38,2.21,2.38a5.64,5.64,0,0,0,2.09-.4l.33,1.1a7.6,7.6,0,0,1-2.74.52C1286.57,228.47,1285.75,227,1285.75,224.85Z"/><path d="M1304.39,216.44H1306l1.89,6.38c.42,1.39.71,2.52,1.14,3.89h.07c.43-1.37.74-2.5,1.13-3.89l1.89-6.38h1.55l-3.74,11.82h-1.77Z"/><path d="M1315.66,223.86a4.4,4.4,0,0,1,4.47-4.57,3.76,3.76,0,0,1,4,4.1,5.71,5.71,0,0,1-.07.91h-7.4v-1.16h6.52l-.38.42c0-2.07-1-3.1-2.63-3.1a3.08,3.08,0,0,0-3,3.4,3.17,3.17,0,0,0,3.42,3.42,4.78,4.78,0,0,0,2.66-.82l.54,1a6,6,0,0,1-3.38,1A4.43,4.43,0,0,1,1315.66,223.86Z"/><path d="M1327.85,219.51h1.24l.14,2.07h0a4.61,4.61,0,0,1,3.91-2.29,3.67,3.67,0,0,1,1.72.36l-.34,1.28a4.32,4.32,0,0,0-1.62-.29c-1.31,0-2.56.67-3.6,2.5v5.12h-1.49Z"/><path d="M1339.74,224.85v-4.14h-2.48V219.6l2.54-.09.2-2.81h1.24v2.81h4.28v1.2h-4.28v4.16c0,1.57.52,2.38,2.21,2.38a5.64,5.64,0,0,0,2.09-.4l.33,1.1a7.64,7.64,0,0,1-2.74.52C1340.57,228.47,1339.74,227,1339.74,224.85Z"/><path d="M1352.51,220.71h-4v-1.2H1354v8.75h-1.49Zm-.6-4.19a1.19,1.19,0,0,1,2.38,0,1.19,1.19,0,0,1-2.38,0Z"/><path d="M1359.08,223.9c0-2.94,2.23-4.61,4.88-4.61a4.44,4.44,0,0,1,3.18,1.28l-.74,1a3.6,3.6,0,0,0-2.39-1,3.21,3.21,0,0,0-3.4,3.37,3.17,3.17,0,0,0,3.36,3.33,4.17,4.17,0,0,0,2.7-1.1l.67,1a5.19,5.19,0,0,1-3.48,1.37C1361.13,228.47,1359.08,226.8,1359.08,223.9Z"/><path d="M1386.92,215.47h1.33l-5.9,15.67H1381Z"/><path d="M1397.72,215.47h1.33l-5.9,15.67h-1.33Z"/><path d="M1413,227.37c3.89-3.44,6-5.45,6-7.36,0-1.31-.79-2.23-2.48-2.23a4,4,0,0,0-2.76,1.37l-.86-.85a5.14,5.14,0,0,1,3.8-1.75c2.3,0,3.74,1.35,3.74,3.39s-2.16,4.3-5.27,7.13c.72-.06,1.46-.09,2.14-.09H1421v1.28H1413Z"/><path d="M1423.71,222.48c0-3.86,1.57-5.93,4.13-5.93s4.12,2.07,4.12,5.93-1.57,6-4.12,6S1423.71,226.29,1423.71,222.48Zm6.86,0c0-3.3-1.13-4.72-2.73-4.72s-2.74,1.42-2.74,4.72,1.13,4.79,2.74,4.79S1430.57,225.77,1430.57,222.48Zm-3.85-.13a1.12,1.12,0,1,1,1.12,1.21A1.12,1.12,0,0,1,1426.72,222.35Z"/><path d="M1435,227h3.31v-8.42h-2.57v-1a8.43,8.43,0,0,0,3-.84h1.12V227h3v1.25H1435Z"/><path d="M1445.46,227.27l.82-.94a3.41,3.41,0,0,0,2.29.9c1.85,0,3.49-1.31,3.49-5.15,0-2.83-1.1-4.34-3-4.34a2.38,2.38,0,0,0-2.43,2.5,2.2,2.2,0,0,0,2.45,2.43,4,4,0,0,0,3-1.62l.06,1.17a4.75,4.75,0,0,1-3.34,1.57,3.25,3.25,0,0,1-3.56-3.55,3.7,3.7,0,0,1,3.82-3.69c2.5,0,4.41,1.84,4.41,5.53,0,4.61-2.32,6.39-4.81,6.39A4.64,4.64,0,0,1,1445.46,227.27Z"/><path d="M1467.16,221.76h7.75v1.11h-7.75Z"/><path d="M1488.91,219.51h1.22l.13,1.47h.07a4.56,4.56,0,0,1,3.29-1.69c2.08,0,3,1.22,3,3.53v5.44h-1.5V223c0-1.66-.57-2.43-2-2.43-1.05,0-1.75.52-2.76,1.56v6.11h-1.49Z"/><path d="M1499.42,224.94v-5.43h1.49v5.24c0,1.63.58,2.43,2,2.43,1,0,1.75-.47,2.72-1.61v-6.06h1.49v8.75h-1.24l-.13-1.53h-.07a4.27,4.27,0,0,1-3.26,1.74C1500.37,228.47,1499.42,227.25,1499.42,224.94Z"/><path d="M1132.13,261H1134l1.66,5,.57,1.91h.08l.56-1.91,1.67-5h1.84v11.81h-1.44V266.9c0-1.15.18-3.17.25-4.18h-.06l-.66,2.31-1.7,4.65h-1.08L1134,265l-.69-2.31h0c.11,1,.25,3,.25,4.18v5.91h-1.41Z"/><path d="M1143,269.5v-5.44h1.49v5.24c0,1.63.58,2.43,2,2.43,1,0,1.74-.47,2.71-1.6v-6.07h1.5v8.75h-1.24l-.13-1.53h-.07a4.27,4.27,0,0,1-3.26,1.74C1144,273,1143,271.8,1143,269.5Z"/><path d="M1156.87,269.87v-8.68h-3.1V260h4.59v10a1.58,1.58,0,0,0,1.73,1.8,3.85,3.85,0,0,0,1.64-.4l.38,1.12a5.35,5.35,0,0,1-2.34.52C1157.89,273,1156.87,271.94,1156.87,269.87Z"/><path d="M1167,269.4v-4.14h-2.49v-1.11l2.54-.09.2-2.81h1.24v2.81h4.29v1.2h-4.29v4.16c0,1.57.52,2.38,2.22,2.38a5.64,5.64,0,0,0,2.09-.4l.32,1.1a7.6,7.6,0,0,1-2.74.52C1167.78,273,1167,271.57,1167,269.4Z"/><path d="M1179.71,265.26h-4v-1.2h5.54v8.75h-1.49Zm-.59-4.19a1.19,1.19,0,1,1,1.18,1.15A1.12,1.12,0,0,1,1179.12,261.07Z"/><path d="M1185.88,264.06h1.19l.13,1.15h0a2.17,2.17,0,0,1,2-1.37c.87,0,1.41.5,1.66,1.51.5-.93,1-1.51,2-1.51,1.23,0,1.94,1,1.94,2.7v6.27h-1.47v-6.16c0-1-.29-1.53-.94-1.53s-.93.45-1.4,1.35v6.34h-1.37v-6.16c0-1-.25-1.53-.9-1.53s-1,.45-1.44,1.35v6.34h-1.48Z"/><path d="M1196.86,268.41a4.4,4.4,0,0,1,4.47-4.57,3.76,3.76,0,0,1,4,4.11,5.67,5.67,0,0,1-.07.9h-7.4v-1.16h6.52l-.38.42c0-2.07-1-3.1-2.63-3.1a3.08,3.08,0,0,0-3,3.4,3.18,3.18,0,0,0,3.42,3.43,4.79,4.79,0,0,0,2.66-.83l.54,1a6,6,0,0,1-3.38,1A4.43,4.43,0,0,1,1196.86,268.41Z"/><path d="M1207.52,268.45c0-2.84,1.89-4.61,4-4.61a3.79,3.79,0,0,1,2.63,1.12h0l-.07-1.61V260h1.5v12.82h-1.23l-.12-1.15h-.06a4.22,4.22,0,0,1-2.86,1.36C1209,273,1207.52,271.37,1207.52,268.45Zm6.55,2v-4.36a3.23,3.23,0,0,0-2.28-1c-1.52,0-2.74,1.33-2.74,3.33s1,3.33,2.57,3.33A3.3,3.3,0,0,0,1214.07,270.47Z"/><path d="M1222.91,265.26h-4.05v-1.2h5.54v8.75h-1.49Zm-.6-4.19a1.19,1.19,0,1,1,1.19,1.15A1.12,1.12,0,0,1,1222.31,261.07Z"/><path d="M1229.26,268.41a4.4,4.4,0,0,1,4.47-4.57,3.76,3.76,0,0,1,4,4.11,5.67,5.67,0,0,1-.07.9h-7.4v-1.16h6.52l-.38.42c0-2.07-1-3.1-2.63-3.1a3.08,3.08,0,0,0-3,3.4,3.18,3.18,0,0,0,3.42,3.43,4.79,4.79,0,0,0,2.66-.83l.54,1a6,6,0,0,1-3.38,1A4.43,4.43,0,0,1,1229.26,268.41Z"/><path d="M1250.72,268.45c0-2.84,1.89-4.61,4-4.61a3.79,3.79,0,0,1,2.63,1.12h0l-.07-1.61V260h1.5v12.82h-1.23l-.12-1.15h-.06a4.22,4.22,0,0,1-2.86,1.36C1252.23,273,1250.72,271.37,1250.72,268.45Zm6.55,2v-4.36a3.24,3.24,0,0,0-2.29-1c-1.51,0-2.73,1.33-2.73,3.33s1,3.33,2.57,3.33A3.3,3.3,0,0,0,1257.27,270.47Z"/><path d="M1261.66,268.41a4.4,4.4,0,0,1,4.47-4.57,3.76,3.76,0,0,1,4,4.11,5.67,5.67,0,0,1-.07.9h-7.4v-1.16h6.52l-.38.42c0-2.07-1-3.1-2.63-3.1a3.08,3.08,0,0,0-3,3.4,3.18,3.18,0,0,0,3.42,3.43,4.79,4.79,0,0,0,2.66-.83l.54,1a6,6,0,0,1-3.38,1A4.43,4.43,0,0,1,1261.66,268.41Z"/><path d="M1272.51,271.66l.69-1a6.32,6.32,0,0,0,3.8,1.18c1.47,0,2.19-.61,2.19-1.35s-.34-1.13-2.71-1.62-3.43-1.24-3.43-2.55,1.25-2.49,3.64-2.49a6.52,6.52,0,0,1,3.53,1.12l-.72,1a5.15,5.15,0,0,0-2.93-.92c-1.48,0-2,.6-2,1.26s.76,1.08,2.56,1.46c2.89.63,3.6,1.35,3.6,2.7s-1.39,2.61-3.89,2.61A7.8,7.8,0,0,1,1272.51,271.66Z"/><path d="M1287.71,265.26h-4v-1.2h5.54v8.75h-1.49Zm-.6-4.19a1.19,1.19,0,1,1,1.19,1.15A1.12,1.12,0,0,1,1287.11,261.07Z"/><path d="M1294.13,274.41a2.43,2.43,0,0,1,1.44-1.94v-.08a1.58,1.58,0,0,1-.9-1.44,2.12,2.12,0,0,1,1-1.64v-.07a2.77,2.77,0,0,1-1.08-2.27,3.21,3.21,0,0,1,3.44-3.13,3.42,3.42,0,0,1,1.29.22H1303v1.2h-2.27a2.66,2.66,0,0,1,.74,1.77c0,1.87-1.49,3-3.38,3a3.75,3.75,0,0,1-1.48-.33,1.2,1.2,0,0,0-.68,1c0,.68.66,1,1.81,1h2c2.25,0,3.33.57,3.33,2,0,1.64-1.89,3.06-4.86,3.06C1295.61,276.84,1294.13,276,1294.13,274.41Zm7.44-.4c0-.82-.67-1.06-2-1.06h-1.71a4.89,4.89,0,0,1-1.33-.14c-.83.45-1.12.95-1.12,1.46,0,.91,1,1.49,2.86,1.49C1300.31,275.76,1301.57,274.91,1301.57,274Zm-1.48-7a2,2,0,1,0-2,2.08A2,2,0,0,0,1300.09,267Z"/><path d="M1305.31,264.06h1.22l.13,1.47h.07a4.56,4.56,0,0,1,3.3-1.69c2.07,0,3,1.23,3,3.53v5.44h-1.49v-5.24c0-1.66-.58-2.43-2-2.43-1,0-1.75.52-2.76,1.56v6.11h-1.49Z"/><path d="M1318,275.71a3.22,3.22,0,0,0,2.27-3.15l-.32-1.66,1,1.42a1.26,1.26,0,0,1-1,.42,1.29,1.29,0,0,1-1.41-1.36A1.34,1.34,0,0,1,1320,270c1.06,0,1.62.88,1.62,2.3a4.43,4.43,0,0,1-3.17,4.32Z"/><path d="M1337.78,261h1.53v5.9h.06l5-5.9h1.73l-6.74,8.05v3.76h-1.53Zm3.35,5.22.92-1.19,4.43,7.78h-1.71Z"/><path d="M1348.06,268.41a4.4,4.4,0,0,1,4.46-4.57,3.77,3.77,0,0,1,4,4.11,5.67,5.67,0,0,1-.07.9h-7.4v-1.16h6.52l-.38.42c0-2.07-1-3.1-2.63-3.1a3.08,3.08,0,0,0-3,3.4,3.18,3.18,0,0,0,3.42,3.43,4.79,4.79,0,0,0,2.66-.83l.54,1a6,6,0,0,1-3.38,1A4.43,4.43,0,0,1,1348.06,268.41Z"/><path d="M1359.08,270.54c0-2,1.83-2.92,6.35-3.28a2.07,2.07,0,0,0-2.32-2.19,6.11,6.11,0,0,0-3.06,1l-.6-1a7.74,7.74,0,0,1,3.91-1.26,3.26,3.26,0,0,1,3.57,3.6v5.37h-1.25l-.12-1.19h-.06a5.83,5.83,0,0,1-3.44,1.4C1360.43,273,1359.08,272.11,1359.08,270.54Zm6.35,0v-2.27c-3.74.29-4.88,1-4.88,2.18,0,1,.9,1.39,1.91,1.39A4.77,4.77,0,0,0,1365.43,270.52Z"/><path d="M1397.72,260h1.33l-5.9,15.67h-1.33Z"/><path d="M1408.52,260h1.33l-5.9,15.67h-1.33Z"/><path d="M1423.75,271.93c3.89-3.44,6-5.46,6-7.37,0-1.31-.79-2.23-2.48-2.23a4,4,0,0,0-2.76,1.37l-.86-.85a5.14,5.14,0,0,1,3.8-1.75c2.3,0,3.74,1.35,3.74,3.39s-2.16,4.3-5.27,7.13c.72-.05,1.45-.09,2.14-.09h3.76v1.28h-8.08Z"/><path d="M1434.51,267c0-3.85,1.57-5.93,4.12-5.93s4.13,2.08,4.13,5.93-1.57,6-4.13,6S1434.51,270.84,1434.51,267Zm6.86,0c0-3.3-1.13-4.72-2.74-4.72s-2.73,1.42-2.73,4.72,1.13,4.79,2.73,4.79S1441.37,270.32,1441.37,267Zm-3.85-.13a1.12,1.12,0,1,1,1.11,1.21A1.12,1.12,0,0,1,1437.52,266.9Z"/><path d="M1445.78,271.57h3.31v-8.43h-2.57v-1a8.2,8.2,0,0,0,3-.85h1.12v10.25h3v1.24h-7.8Z"/><path d="M1456.26,271.82l.82-.94a3.41,3.41,0,0,0,2.29.9c1.85,0,3.49-1.31,3.49-5.15,0-2.83-1.1-4.34-3-4.34a2.38,2.38,0,0,0-2.44,2.51,2.2,2.2,0,0,0,2.45,2.43,4,4,0,0,0,3-1.62l.06,1.17a4.78,4.78,0,0,1-3.34,1.56,3.25,3.25,0,0,1-3.56-3.54,3.71,3.71,0,0,1,3.82-3.7c2.5,0,4.41,1.84,4.41,5.53,0,4.61-2.32,6.39-4.81,6.39A4.64,4.64,0,0,1,1456.26,271.82Z"/><path d="M1478,266.31h7.75v1.11H1478Z"/><path d="M1499.71,264.06h1.22l.13,1.47h.07a4.56,4.56,0,0,1,3.29-1.69c2.08,0,3,1.23,3,3.53v5.44H1506v-5.24c0-1.66-.58-2.43-2-2.43-1,0-1.75.52-2.76,1.56v6.11h-1.49Z"/><path d="M1510.22,269.5v-5.44h1.49v5.24c0,1.63.58,2.43,2,2.43,1,0,1.75-.47,2.72-1.6v-6.07h1.49v8.75h-1.24l-.13-1.53h-.07a4.27,4.27,0,0,1-3.26,1.74C1511.17,273,1510.22,271.8,1510.22,269.5Z"/></svg>
