<svg id="Layer_1" data-name="Layer 1" xmlns="http://www.w3.org/2000/svg" width="685.88" height="1247.11" viewBox="0 0 685.88 1247.11"><defs><style>.cls-1{fill:#fff;}.cls-2,.cls-4,.cls-5,.cls-6{fill:#8487bf;}.cls-2,.cls-7{stroke:#d92818;}.cls-2,.cls-3,.cls-4,.cls-6,.cls-7,.cls-8{stroke-miterlimit:10;stroke-width:5px;}.cls-3,.cls-7,.cls-8{fill:none;}.cls-3{stroke:#8487bf;}.cls-4,.cls-8{stroke:#f2b33d;}.cls-6{stroke:#f2c2c6;}.cls-9{fill:#d92818;}.cls-10{fill:#f2b33d;}.cls-11{fill:#f2c2c6;}</style></defs><title>tavle_mobile</title><path d="M158,63.92h2.55l2.3,7,.8,2.65h.1l.78-2.65,2.32-7h2.55v16.4h-2v-8.2c0-1.6.25-4.4.35-5.8h-.07l-.93,3.2L164.39,76h-1.5l-2.3-6.45-1-3.2h0c.15,1.4.35,4.2.35,5.8v8.2H158Z"/><path d="M173.12,75.72V68.17h2.07v7.27c0,2.28.8,3.38,2.8,3.38,1.4,0,2.43-.65,3.78-2.23V68.17h2.07V80.32h-1.72l-.18-2.13h-.1a5.89,5.89,0,0,1-4.52,2.43C174.44,80.62,173.12,78.92,173.12,75.72Z"/><path d="M192.34,76.24v-12H188V62.52h6.38V76.39a2.19,2.19,0,0,0,2.4,2.5,5.37,5.37,0,0,0,2.27-.55l.53,1.55a7.35,7.35,0,0,1-3.25.73C193.77,80.62,192.34,79.12,192.34,76.24Z"/><path d="M206.34,75.59V69.84h-3.45V68.29l3.53-.12.27-3.9h1.73v3.9h6v1.67h-6v5.78c0,2.17.72,3.3,3.07,3.3a8.05,8.05,0,0,0,2.9-.55l.45,1.52a10.57,10.57,0,0,1-3.8.73C207.49,80.62,206.34,78.59,206.34,75.59Z"/><path d="M224.07,69.84h-5.63V68.17h7.7V80.32h-2.07ZM223.24,64a1.65,1.65,0,1,1,1.65,1.6A1.56,1.56,0,0,1,223.24,64Z"/><path d="M232.64,68.17h1.65l.18,1.6h.05a3,3,0,0,1,2.77-1.9c1.2,0,2,.7,2.3,2.1.7-1.3,1.45-2.1,2.85-2.1,1.7,0,2.7,1.32,2.7,3.75v8.7h-2V71.77c0-1.4-.4-2.13-1.3-2.13s-1.3.63-1.95,1.88v8.8h-1.9V71.77c0-1.4-.35-2.13-1.25-2.13s-1.4.63-2,1.88v8.8h-2.05Z"/><path d="M247.89,74.22a6.11,6.11,0,0,1,6.2-6.35c3.5,0,5.55,2.27,5.55,5.7a8.55,8.55,0,0,1-.1,1.25H249.27v-1.6h9l-.53.57c0-2.87-1.42-4.3-3.65-4.3s-4.2,1.7-4.2,4.73A4.41,4.41,0,0,0,254.69,79a6.62,6.62,0,0,0,3.7-1.15l.75,1.35a8.33,8.33,0,0,1-4.7,1.45C250.79,80.62,247.89,78.27,247.89,74.22Z"/><path d="M262.69,74.27c0-4,2.63-6.4,5.5-6.4a5.19,5.19,0,0,1,3.65,1.55h.05l-.1-2.23V62.52h2.08v17.8h-1.7l-.18-1.6h-.07a5.86,5.86,0,0,1-4,1.9C264.79,80.62,262.69,78.32,262.69,74.27Zm9.1,2.8V71a4.47,4.47,0,0,0-3.17-1.4c-2.1,0-3.8,1.85-3.8,4.62s1.35,4.63,3.57,4.63A4.58,4.58,0,0,0,271.79,77.07Z"/><path d="M284.07,69.84h-5.63V68.17h7.7V80.32h-2.07ZM283.24,64a1.65,1.65,0,1,1,1.65,1.6A1.56,1.56,0,0,1,283.24,64Z"/><path d="M292.89,74.22a6.11,6.11,0,0,1,6.2-6.35c3.5,0,5.55,2.27,5.55,5.7a8.55,8.55,0,0,1-.1,1.25H294.27v-1.6h9.05l-.53.57c0-2.87-1.42-4.3-3.65-4.3s-4.2,1.7-4.2,4.73A4.41,4.41,0,0,0,299.69,79a6.62,6.62,0,0,0,3.7-1.15l.75,1.35a8.33,8.33,0,0,1-4.7,1.45C295.79,80.62,292.89,78.27,292.89,74.22Z"/><path d="M322.69,74.27c0-4,2.63-6.4,5.5-6.4a5.19,5.19,0,0,1,3.65,1.55h.05l-.1-2.23V62.52h2.08v17.8h-1.7l-.18-1.6h-.07a5.86,5.86,0,0,1-4,1.9C324.79,80.62,322.69,78.32,322.69,74.27Zm9.1,2.8V71a4.47,4.47,0,0,0-3.17-1.4c-2.1,0-3.8,1.85-3.8,4.62s1.35,4.63,3.57,4.63A4.58,4.58,0,0,0,331.79,77.07Z"/><path d="M337.89,74.22a6.11,6.11,0,0,1,6.2-6.35c3.5,0,5.55,2.27,5.55,5.7a8.55,8.55,0,0,1-.1,1.25H339.27v-1.6h9.05l-.53.57c0-2.87-1.42-4.3-3.65-4.3s-4.2,1.7-4.2,4.73A4.41,4.41,0,0,0,344.69,79a6.62,6.62,0,0,0,3.7-1.15l.75,1.35a8.33,8.33,0,0,1-4.7,1.45C340.79,80.62,337.89,78.27,337.89,74.22Z"/><path d="M353,78.72l.95-1.38A8.67,8.67,0,0,0,359.19,79c2.05,0,3.05-.85,3.05-1.87s-.47-1.58-3.77-2.25-4.75-1.73-4.75-3.55,1.72-3.45,5-3.45a9.08,9.08,0,0,1,4.9,1.55l-1,1.32a7.23,7.23,0,0,0-4.08-1.27c-2,0-2.8.82-2.8,1.75s1,1.5,3.55,2c4,.88,5,1.88,5,3.75s-1.92,3.63-5.4,3.63A10.7,10.7,0,0,1,353,78.72Z"/><path d="M374.07,69.84h-5.63V68.17h7.7V80.32h-2.07ZM373.24,64a1.65,1.65,0,1,1,1.65,1.6A1.56,1.56,0,0,1,373.24,64Z"/><path d="M383,82.54a3.37,3.37,0,0,1,2-2.7v-.1a2.2,2.2,0,0,1-1.25-2,3,3,0,0,1,1.45-2.27v-.1a3.89,3.89,0,0,1-1.5-3.15c0-2.65,2.2-4.35,4.78-4.35a5,5,0,0,1,1.8.3h5v1.67h-3.15a3.7,3.7,0,0,1,1,2.45c0,2.6-2.08,4.18-4.7,4.18a5.21,5.21,0,0,1-2.05-.45,1.66,1.66,0,0,0-.95,1.4c0,1,.92,1.4,2.52,1.4h2.73c3.12,0,4.62.8,4.62,2.84,0,2.28-2.62,4.25-6.75,4.25C385,85.91,383,84.69,383,82.54ZM393.32,82c0-1.15-.93-1.47-2.78-1.47h-2.37a6.85,6.85,0,0,1-1.85-.2c-1.15.62-1.55,1.32-1.55,2,0,1.27,1.37,2.07,4,2.07C391.57,84.41,393.32,83.24,393.32,82Zm-2.05-9.77a2.8,2.8,0,1,0-2.8,2.87A2.75,2.75,0,0,0,391.27,72.22Z"/><path d="M398.52,68.17h1.7l.17,2h.1a6.3,6.3,0,0,1,4.58-2.35c2.87,0,4.2,1.7,4.2,4.9v7.55h-2.08V73c0-2.3-.8-3.37-2.77-3.37-1.45,0-2.43.72-3.83,2.17v8.48h-2.07Z"/><path d="M416.09,84.34c2.13-1,3.18-2.3,3.15-4.37l-.45-2.3,1.4,2a1.77,1.77,0,0,1-1.4.58,1.8,1.8,0,0,1-2-1.88,1.87,1.87,0,0,1,2-1.9c1.48,0,2.25,1.23,2.25,3.2a6.16,6.16,0,0,1-4.4,6Z"/><path d="M443.62,63.92h2.12v8.2h.08l6.87-8.2h2.4l-9.35,11.17v5.23h-2.12Zm4.65,7.25,1.27-1.65,6.15,10.8h-2.37Z"/><path d="M457.89,74.22a6.11,6.11,0,0,1,6.2-6.35c3.5,0,5.55,2.27,5.55,5.7a8.55,8.55,0,0,1-.1,1.25H459.27v-1.6h9.05l-.53.57c0-2.87-1.42-4.3-3.65-4.3s-4.2,1.7-4.2,4.73A4.41,4.41,0,0,0,464.69,79a6.62,6.62,0,0,0,3.7-1.15l.75,1.35a8.33,8.33,0,0,1-4.7,1.45C460.79,80.62,457.89,78.27,457.89,74.22Z"/><path d="M473.19,77.17c0-2.73,2.55-4,8.83-4.55a2.89,2.89,0,0,0-3.23-3.05A8.5,8.5,0,0,0,474.54,71l-.82-1.4a10.65,10.65,0,0,1,5.42-1.75c3.33,0,4.95,2,4.95,5v7.45h-1.72l-.18-1.65h-.07a8.2,8.2,0,0,1-4.78,2C475.07,80.62,473.19,79.34,473.19,77.17Zm8.83,0V74c-5.2.4-6.78,1.43-6.78,3,0,1.37,1.25,1.92,2.65,1.92A6.62,6.62,0,0,0,482,77.14Z"/><path d="M526.87,62.57h1.84l-8.19,21.74h-1.85Z"/><path d="M541.87,62.57h1.84l-8.19,21.74h-1.85Z"/><path d="M158,109.09c5.4-4.77,8.35-7.57,8.35-10.22,0-1.83-1.1-3.1-3.45-3.1a5.52,5.52,0,0,0-3.83,1.9l-1.2-1.18a7.12,7.12,0,0,1,5.28-2.42c3.2,0,5.2,1.87,5.2,4.7,0,3-3,6-7.33,9.9,1-.08,2-.13,3-.13h5.22v1.78H158Z"/><path d="M173,102.29c0-5.35,2.17-8.22,5.72-8.22s5.73,2.87,5.73,8.22-2.18,8.33-5.73,8.33S173,107.59,173,102.29Zm9.52,0c0-4.57-1.57-6.55-3.8-6.55s-3.8,2-3.8,6.55,1.58,6.65,3.8,6.65S182.49,106.87,182.49,102.29Zm-5.35-.17a1.55,1.55,0,1,1,1.55,1.67A1.55,1.55,0,0,1,177.14,102.12Z"/><path d="M188.62,108.59h4.6V96.89h-3.58V95.54a11.46,11.46,0,0,0,4.1-1.17h1.55v14.22h4.15v1.73H188.62Z"/><path d="M203.17,108.94l1.15-1.3a4.7,4.7,0,0,0,3.17,1.25c2.58,0,4.85-1.82,4.85-7.15,0-3.92-1.52-6-4.15-6a3.29,3.29,0,0,0-3.37,3.47,3.05,3.05,0,0,0,3.4,3.38,5.61,5.61,0,0,0,4.15-2.25l.07,1.62a6.6,6.6,0,0,1-4.62,2.18c-2.95,0-4.95-1.65-4.95-4.93a5.13,5.13,0,0,1,5.3-5.12c3.47,0,6.12,2.55,6.12,7.67,0,6.4-3.22,8.88-6.67,8.88A6.44,6.44,0,0,1,203.17,108.94Z"/><path d="M233.32,101.29h10.75v1.55H233.32Z"/><path d="M263.52,98.17h1.7l.17,2h.1a6.3,6.3,0,0,1,4.58-2.35c2.87,0,4.2,1.7,4.2,4.9v7.55h-2.08V103c0-2.3-.8-3.37-2.77-3.37-1.45,0-2.43.72-3.83,2.17v8.48h-2.07Z"/><path d="M278.12,105.72V98.17h2.07v7.27c0,2.28.8,3.38,2.8,3.38,1.4,0,2.43-.65,3.78-2.23V98.17h2.07v12.15h-1.72l-.18-2.13h-.1a5.89,5.89,0,0,1-4.52,2.43C279.44,110.62,278.12,108.92,278.12,105.72Z"/><line class="cls-1" x1="301.54" y1="1240.35" x2="307.85" y2="982.67"/><line class="cls-2" x1="353.06" y1="1256.49" x2="355.8" y2="965.96"/><line class="cls-3" x1="286.53" y1="1256.5" x2="287.9" y2="1111.35"/><line class="cls-4" x1="419.68" y1="1247.14" x2="423.91" y2="798.73"/><circle class="cls-5" cx="288.11" cy="1089.44" r="21.92"/><line class="cls-6" x1="486.12" y1="1256.46" x2="492.92" y2="535.59"/><line class="cls-7" x1="537.98" y1="1247.08" x2="547.29" y2="260.62"/><line class="cls-8" x1="603.47" y1="1247.13" x2="614.55" y2="72.09"/><circle class="cls-9" cx="355.9" cy="955.04" r="21.92"/><circle class="cls-10" cx="424" cy="788.87" r="21.92"/><circle class="cls-11" cx="493" cy="526.35" r="21.92"/><circle class="cls-9" cx="547.29" cy="250.72" r="21.92"/><circle class="cls-10" cx="614.55" cy="50.18" r="21.92"/><path d="M27.26,1091.27c0-5.29,3-8.49,7.27-8.49a6,6,0,0,1,4.52,2l-1.2,1.32a4.27,4.27,0,0,0-3.32-1.47c-3.07,0-5.07,2.52-5.07,6.59s1.82,6.7,5,6.7a4.08,4.08,0,0,0,2.82-1v-4.27H34.05V1091h5.2v6.9a6.88,6.88,0,0,1-4.9,1.9C30.23,1099.77,27.26,1096.62,27.26,1091.27Z"/><path d="M42.63,1093.37a6.1,6.1,0,0,1,6.2-6.34c3.5,0,5.55,2.27,5.55,5.69a8.31,8.31,0,0,1-.1,1.25H44v-1.6h9l-.52.58c0-2.88-1.43-4.3-3.65-4.3s-4.2,1.7-4.2,4.72a4.41,4.41,0,0,0,4.75,4.75,6.62,6.62,0,0,0,3.7-1.15l.75,1.35a8.33,8.33,0,0,1-4.7,1.45C45.53,1099.77,42.63,1097.42,42.63,1093.37Z"/><path d="M58.26,1087.32H60l.17,2h.1A6.3,6.3,0,0,1,64.8,1087c2.88,0,4.2,1.7,4.2,4.89v7.55H66.93v-7.27c0-2.3-.8-3.38-2.78-3.38-1.44,0-2.42.73-3.82,2.18v8.47H58.26Z"/><path d="M76.08,1094.75V1089H72.63v-1.55l3.53-.13.27-3.89h1.73v3.89H84.1V1089H78.16v5.77c0,2.18.72,3.3,3.07,3.3a7.93,7.93,0,0,0,2.9-.55l.45,1.53a10.63,10.63,0,0,1-3.8.72C77.23,1099.77,76.08,1097.75,76.08,1094.75Z"/><path d="M87.43,1093.42c0-4.07,2.8-6.39,6-6.39s6,2.32,6,6.39-2.8,6.35-6,6.35S87.43,1097.45,87.43,1093.42Zm9.87,0c0-2.8-1.55-4.67-3.87-4.67s-3.87,1.87-3.87,4.67,1.55,4.63,3.87,4.63S97.3,1096.2,97.3,1093.42Z"/><path d="M103.51,1087.45l3.52-.13h7.07V1089H103.51Zm3.47-1.15c0-3,1.55-4.92,4.9-4.92a8.93,8.93,0,0,1,3.5.7l-.48,1.55a6.49,6.49,0,0,0-2.82-.58c-2.18,0-3,1.23-3,3.18v13.24h-2Z"/><path d="M121.08,1094.75V1089h-3.45v-1.55l3.53-.13.27-3.89h1.73v3.89h5.94V1089h-5.94v5.77c0,2.18.72,3.3,3.07,3.3a7.93,7.93,0,0,0,2.9-.55l.45,1.53a10.63,10.63,0,0,1-3.8.72C122.23,1099.77,121.08,1097.75,121.08,1094.75Z"/><path d="M132.63,1093.37a6.1,6.1,0,0,1,6.2-6.34c3.5,0,5.55,2.27,5.55,5.69a8.31,8.31,0,0,1-.1,1.25H134v-1.6h9l-.52.58c0-2.88-1.43-4.3-3.65-4.3s-4.2,1.7-4.2,4.72a4.41,4.41,0,0,0,4.75,4.75,6.62,6.62,0,0,0,3.7-1.15l.75,1.35a8.33,8.33,0,0,1-4.7,1.45C135.53,1099.77,132.63,1097.42,132.63,1093.37Z"/><path d="M162.61,1097.35l1.25-1.45a6.91,6.91,0,0,0,4.79,2c2.25,0,3.55-1.07,3.55-2.57,0-1.75-1.27-2.25-2.92-2.95l-2.37-1.05c-1.63-.65-3.53-1.8-3.53-4.22s2.25-4.35,5.37-4.35a7.15,7.15,0,0,1,5.05,2l-1.1,1.35a5.74,5.74,0,0,0-4-1.52c-1.9,0-3.17.9-3.17,2.37s1.52,2.15,2.92,2.7l2.3,1c2,.8,3.62,2,3.62,4.38,0,2.6-2.2,4.67-5.8,4.67A8.34,8.34,0,0,1,162.61,1097.35Z"/><path d="M178.56,1081.68h2.07v12h.1l6.52-6.38h2.38l-9,8.85v3.3h-2.07Zm4.67,11.34,1.25-1.35,5.8,7.8H188Z"/><path d="M192.43,1093.42c0-4.07,2.8-6.39,6-6.39s6,2.32,6,6.39-2.8,6.35-6,6.35S192.43,1097.45,192.43,1093.42Zm9.87,0c0-2.8-1.55-4.67-3.87-4.67s-3.87,1.87-3.87,4.67,1.55,4.63,3.87,4.63S202.3,1096.2,202.3,1093.42Z"/><path d="M212.08,1095.4v-12.05h-4.3v-1.67h6.37v13.87a2.19,2.19,0,0,0,2.4,2.5,5.61,5.61,0,0,0,2.28-.55l.52,1.55a7.42,7.42,0,0,1-3.25.72C213.5,1099.77,212.08,1098.27,212.08,1095.4Z"/><path d="M222.63,1093.37a6.1,6.1,0,0,1,6.2-6.34c3.5,0,5.55,2.27,5.55,5.69a8.31,8.31,0,0,1-.1,1.25H224v-1.6h9l-.52.58c0-2.88-1.43-4.3-3.65-4.3s-4.2,1.7-4.2,4.72a4.41,4.41,0,0,0,4.75,4.75,6.62,6.62,0,0,0,3.7-1.15l.75,1.35a8.33,8.33,0,0,1-4.7,1.45C225.53,1099.77,222.63,1097.42,222.63,1093.37Z"/><path d="M36.6,1111.73h1.85l-8.19,21.74H28.41Z"/><path d="M51.6,1111.73h1.85l-8.19,21.74H43.41Z"/><path d="M72.76,1128.25c5.4-4.78,8.34-7.58,8.34-10.22,0-1.83-1.1-3.1-3.44-3.1a5.52,5.52,0,0,0-3.83,1.9l-1.2-1.18a7.12,7.12,0,0,1,5.28-2.42c3.19,0,5.19,1.87,5.19,4.7,0,3-3,6-7.32,9.89,1-.07,2-.12,3-.12H84v1.77H72.76Z"/><path d="M87.71,1121.45c0-5.35,2.17-8.22,5.72-8.22s5.72,2.87,5.72,8.22-2.17,8.32-5.72,8.32S87.71,1126.75,87.71,1121.45Zm9.52,0c0-4.57-1.58-6.55-3.8-6.55s-3.8,2-3.8,6.55,1.58,6.65,3.8,6.65S97.23,1126,97.23,1121.45Zm-5.35-.18a1.56,1.56,0,1,1,1.55,1.68A1.56,1.56,0,0,1,91.88,1121.27Z"/><path d="M102.71,1121.45c0-5.35,2.17-8.22,5.72-8.22s5.72,2.87,5.72,8.22-2.17,8.32-5.72,8.32S102.71,1126.75,102.71,1121.45Zm9.52,0c0-4.57-1.58-6.55-3.8-6.55s-3.8,2-3.8,6.55,1.58,6.65,3.8,6.65S112.23,1126,112.23,1121.45Zm-5.35-.18a1.56,1.56,0,1,1,1.55,1.68A1.56,1.56,0,0,1,106.88,1121.27Z"/><path d="M125.13,1118.5c0-.87.07-2,.12-2.82h-.12c-.53.77-1.1,1.55-1.63,2.32l-4.29,5.4h10.34v1.67H116.91v-1.37l7.94-10.17h2.23v15.94h-2Z"/><path d="M133.06,1120.45H143.8V1122H133.06Z"/><path d="M147.76,1128.25c5.4-4.78,8.34-7.58,8.34-10.22,0-1.83-1.1-3.1-3.44-3.1a5.52,5.52,0,0,0-3.83,1.9l-1.2-1.18a7.12,7.12,0,0,1,5.28-2.42c3.19,0,5.19,1.87,5.19,4.7,0,3-3,6-7.32,9.89,1-.07,2-.12,3-.12H159v1.77H147.76Z"/><path d="M162.71,1121.45c0-5.35,2.17-8.22,5.72-8.22s5.72,2.87,5.72,8.22-2.17,8.32-5.72,8.32S162.71,1126.75,162.71,1121.45Zm9.52,0c0-4.57-1.58-6.55-3.8-6.55s-3.8,2-3.8,6.55,1.58,6.65,3.8,6.65S172.23,1126,172.23,1121.45Zm-5.35-.18a1.56,1.56,0,1,1,1.55,1.68A1.56,1.56,0,0,1,166.88,1121.27Z"/><path d="M178.36,1127.75H183v-11.7h-3.58v-1.35a11.52,11.52,0,0,0,4.1-1.17H185v14.22h4.15v1.72H178.36Z"/><path d="M200.13,1118.5c0-.87.07-2,.12-2.82h-.12c-.53.77-1.1,1.55-1.63,2.32l-4.29,5.4h10.34v1.67H191.91v-1.37l7.94-10.17h2.23v15.94h-2Z"/><path d="M119.66,921.57c0-5.3,3-8.5,7.27-8.5a6,6,0,0,1,4.52,2l-1.2,1.32a4.27,4.27,0,0,0-3.32-1.47c-3.07,0-5.07,2.52-5.07,6.6s1.82,6.7,5,6.7a4.08,4.08,0,0,0,2.82-1V923h-3.24v-1.72h5.19v6.9a6.88,6.88,0,0,1-4.9,1.9C122.63,930.07,119.66,926.92,119.66,921.57Z"/><path d="M135.33,926.62c0-2.73,2.55-4,8.82-4.55a2.88,2.88,0,0,0-3.22-3.05,8.5,8.5,0,0,0-4.25,1.45l-.82-1.4a10.65,10.65,0,0,1,5.42-1.75c3.32,0,4.95,2,4.95,5v7.45H144.5l-.17-1.65h-.08a8.14,8.14,0,0,1-4.77,2C137.21,930.07,135.33,928.79,135.33,926.62Zm8.82,0v-3.15c-5.19.4-6.77,1.43-6.77,3,0,1.37,1.25,1.92,2.65,1.92A6.6,6.6,0,0,0,144.15,926.59Z"/><path d="M149.78,917.62h1.65l.18,1.6h0a3,3,0,0,1,2.77-1.9c1.2,0,1.95.7,2.3,2.1.7-1.3,1.45-2.1,2.85-2.1,1.7,0,2.7,1.32,2.7,3.75v8.7h-2.05v-8.55c0-1.4-.4-2.13-1.3-2.13s-1.3.63-2,1.88v8.8h-1.9v-8.55c0-1.4-.35-2.13-1.25-2.13s-1.4.63-2,1.88v8.8h-2.05Z"/><path d="M164.78,917.62h1.65l.18,1.6h0a3,3,0,0,1,2.77-1.9c1.2,0,1.95.7,2.3,2.1.7-1.3,1.45-2.1,2.85-2.1,1.7,0,2.7,1.32,2.7,3.75v8.7h-2.05v-8.55c0-1.4-.4-2.13-1.3-2.13s-1.3.63-2,1.88v8.8h-1.9v-8.55c0-1.4-.35-2.13-1.25-2.13s-1.4.63-2,1.88v8.8h-2.05Z"/><path d="M180,923.67a6.11,6.11,0,0,1,6.2-6.35c3.5,0,5.55,2.27,5.55,5.7a8.55,8.55,0,0,1-.1,1.25H181.41v-1.6h9l-.52.57c0-2.87-1.43-4.3-3.65-4.3s-4.2,1.7-4.2,4.73a4.41,4.41,0,0,0,4.75,4.75,6.62,6.62,0,0,0,3.7-1.15l.75,1.35a8.33,8.33,0,0,1-4.7,1.45C182.93,930.07,180,927.72,180,923.67Z"/><path d="M199.48,925.69V913.64h-4.3V912h6.37v13.87a2.19,2.19,0,0,0,2.4,2.5,5.45,5.45,0,0,0,2.28-.55l.52,1.55a7.28,7.28,0,0,1-3.25.73C200.91,930.07,199.48,928.57,199.48,925.69Z"/><path d="M225.31,913.37h2.12v6.85h6.8v-6.85h2.12v16.4h-2.12v-7.7h-6.8v7.7h-2.12Z"/><path d="M240,923.67a6.11,6.11,0,0,1,6.2-6.35c3.5,0,5.55,2.27,5.55,5.7a8.55,8.55,0,0,1-.1,1.25H241.41v-1.6h9l-.52.57c0-2.87-1.43-4.3-3.65-4.3s-4.2,1.7-4.2,4.73a4.41,4.41,0,0,0,4.75,4.75,6.62,6.62,0,0,0,3.7-1.15l.75,1.35a8.33,8.33,0,0,1-4.7,1.45C242.93,930.07,240,927.72,240,923.67Z"/><path d="M259.48,925.69V913.64h-4.3V912h6.37v13.87a2.19,2.19,0,0,0,2.4,2.5,5.45,5.45,0,0,0,2.28-.55l.52,1.55a7.28,7.28,0,0,1-3.25.73C260.91,930.07,259.48,928.57,259.48,925.69Z"/><path d="M274.48,925.69V913.64h-4.3V912h6.37v13.87a2.19,2.19,0,0,0,2.4,2.5,5.45,5.45,0,0,0,2.28-.55l.52,1.55a7.28,7.28,0,0,1-3.25.73C275.91,930.07,274.48,928.57,274.48,925.69Z"/><path d="M285,923.67a6.11,6.11,0,0,1,6.2-6.35c3.5,0,5.55,2.27,5.55,5.7a8.55,8.55,0,0,1-.1,1.25H286.41v-1.6h9l-.52.57c0-2.87-1.43-4.3-3.65-4.3s-4.2,1.7-4.2,4.73a4.41,4.41,0,0,0,4.75,4.75,6.62,6.62,0,0,0,3.7-1.15l.75,1.35a8.33,8.33,0,0,1-4.7,1.45C287.93,930.07,285,927.72,285,923.67Z"/><path d="M302,917.62h1.72l.2,2.87h.05a6.41,6.41,0,0,1,5.42-3.17,5,5,0,0,1,2.4.5l-.47,1.77a6.2,6.2,0,0,0-2.25-.4c-1.82,0-3.55.93-5,3.48v7.1H302Z"/><path d="M315.26,925.17v-7.55h2.07v7.27c0,2.28.8,3.38,2.8,3.38,1.4,0,2.42-.65,3.77-2.23v-8.42H326v12.15h-1.73l-.17-2.13H324a5.91,5.91,0,0,1-4.52,2.43C316.58,930.07,315.26,928.37,315.26,925.17Z"/><path d="M330.66,917.62h1.7l.17,1.55h.08a6.4,6.4,0,0,1,4.19-1.85c3.28,0,5,2.42,5,6.2,0,4.12-2.6,6.55-5.53,6.55a5.77,5.77,0,0,1-3.62-1.58h-.05l.1,2.3v4.1h-2.07Zm9,5.9c0-2.68-1-4.45-3.42-4.45a5.18,5.18,0,0,0-3.55,1.8v6a5.11,5.11,0,0,0,3.23,1.4C338.1,928.32,339.7,926.52,339.7,923.52Z"/><path d="M119.66,951.57c0-5.3,3-8.5,7.27-8.5a6,6,0,0,1,4.52,2l-1.2,1.32a4.27,4.27,0,0,0-3.32-1.47c-3.07,0-5.07,2.52-5.07,6.6s1.82,6.7,5,6.7a4.08,4.08,0,0,0,2.82-1V953h-3.24v-1.72h5.19v6.9a6.88,6.88,0,0,1-4.9,1.9C122.63,960.07,119.66,956.92,119.66,951.57Z"/><path d="M135,964.74l.42-1.65a4,4,0,0,0,1.1.17,3.52,3.52,0,0,0,3.33-2.57l.35-.9-5.65-12.17h2.1l3,6.7c.47,1.07,1,2.35,1.5,3.52h.1l1.29-3.52,2.63-6.7h2l-5.38,13.15c-.89,2.39-2.37,4.22-5.14,4.22A5.07,5.07,0,0,1,135,964.74Z"/><path d="M149.78,947.62h1.65l.18,1.6h0a3,3,0,0,1,2.77-1.9c1.2,0,1.95.7,2.3,2.1.7-1.3,1.45-2.1,2.85-2.1,1.7,0,2.7,1.32,2.7,3.75v8.7h-2.05v-8.55c0-1.4-.4-2.13-1.3-2.13s-1.3.63-2,1.88v8.8h-1.9v-8.55c0-1.4-.35-2.13-1.25-2.13s-1.4.63-2,1.88v8.8h-2.05Z"/><path d="M165.66,947.62h1.7l.17,2h.1a6.3,6.3,0,0,1,4.58-2.35c2.87,0,4.19,1.7,4.19,4.9v7.55h-2.07v-7.28c0-2.3-.8-3.37-2.78-3.37-1.44,0-2.42.72-3.82,2.17v8.48h-2.07Z"/><path d="M180.33,956.62c0-2.73,2.55-4,8.82-4.55a2.88,2.88,0,0,0-3.22-3.05,8.5,8.5,0,0,0-4.25,1.45l-.82-1.4a10.65,10.65,0,0,1,5.42-1.75c3.32,0,4.95,2,4.95,5v7.45H189.5l-.17-1.65h-.08a8.14,8.14,0,0,1-4.77,2C182.21,960.07,180.33,958.79,180.33,956.62Zm8.82,0v-3.15c-5.19.4-6.77,1.43-6.77,3,0,1.37,1.25,1.92,2.65,1.92A6.6,6.6,0,0,0,189.15,956.59Z"/><path d="M195.11,958.17l.95-1.38a8.67,8.67,0,0,0,5.27,1.65c2,0,3-.85,3-1.87s-.48-1.58-3.77-2.25-4.75-1.73-4.75-3.55,1.72-3.45,5-3.45a9.07,9.07,0,0,1,4.89,1.55l-1,1.32a7.18,7.18,0,0,0-4.07-1.27c-2,0-2.8.82-2.8,1.75s1,1.5,3.55,2c4,.88,5,1.88,5,3.75s-1.93,3.63-5.4,3.63A10.7,10.7,0,0,1,195.11,958.17Z"/><path d="M216.21,949.29h-5.63v-1.67h7.7v12.15h-2.07Zm-.83-5.82a1.65,1.65,0,1,1,1.65,1.6A1.56,1.56,0,0,1,215.38,943.47Z"/><path d="M225.26,955.17v-7.55h2.07v7.27c0,2.28.8,3.38,2.8,3.38,1.4,0,2.42-.65,3.77-2.23v-8.42H236v12.15h-1.73l-.17-2.13H234a5.91,5.91,0,0,1-4.52,2.43C226.58,960.07,225.26,958.37,225.26,955.17Z"/><path d="M239.78,947.62h1.65l.18,1.6h0a3,3,0,0,1,2.77-1.9c1.2,0,1.95.7,2.3,2.1.7-1.3,1.45-2.1,2.85-2.1,1.7,0,2.7,1.32,2.7,3.75v8.7h-2.05v-8.55c0-1.4-.4-2.13-1.3-2.13s-1.3.63-2,1.88v8.8h-1.9v-8.55c0-1.4-.35-2.13-1.25-2.13s-1.4.63-2,1.88v8.8h-2.05Z"/><path d="M279,942h1.85l-8.19,21.74h-1.85Z"/><path d="M294,942h1.85l-8.19,21.74h-1.85Z"/><path d="M120.16,988.54c5.4-4.77,8.34-7.57,8.34-10.22,0-1.83-1.09-3.1-3.44-3.1a5.52,5.52,0,0,0-3.83,1.9l-1.2-1.18a7.12,7.12,0,0,1,5.28-2.42c3.19,0,5.19,1.87,5.19,4.7,0,3-3,6-7.32,9.9,1-.08,2-.13,3-.13h5.22v1.78H120.16Z"/><path d="M135.11,981.74c0-5.35,2.17-8.22,5.72-8.22s5.72,2.87,5.72,8.22-2.17,8.33-5.72,8.33S135.11,987,135.11,981.74Zm9.52,0c0-4.57-1.58-6.55-3.8-6.55s-3.8,2-3.8,6.55,1.58,6.65,3.8,6.65S144.63,986.32,144.63,981.74Zm-5.35-.17a1.55,1.55,0,1,1,1.55,1.67A1.55,1.55,0,0,1,139.28,981.57Z"/><path d="M150.76,988h4.6v-11.7h-3.58V975a11.46,11.46,0,0,0,4.1-1.17h1.55V988h4.15v1.73H150.76Z"/><path d="M172.53,978.79c0-.87.07-1.95.12-2.82h-.12c-.53.77-1.1,1.55-1.62,2.32l-4.3,5.4H177v1.68H164.31V984l7.94-10.17h2.23v15.95h-1.95Z"/><path d="M180.46,980.74H191.2v1.55H180.46Z"/><path d="M195.16,988.54c5.4-4.77,8.34-7.57,8.34-10.22,0-1.83-1.09-3.1-3.44-3.1a5.52,5.52,0,0,0-3.83,1.9l-1.2-1.18a7.12,7.12,0,0,1,5.28-2.42c3.19,0,5.19,1.87,5.19,4.7,0,3-3,6-7.32,9.9,1-.08,2-.13,3-.13h5.22v1.78H195.16Z"/><path d="M210.11,981.74c0-5.35,2.17-8.22,5.72-8.22s5.72,2.87,5.72,8.22-2.17,8.33-5.72,8.33S210.11,987,210.11,981.74Zm9.52,0c0-4.57-1.58-6.55-3.8-6.55s-3.8,2-3.8,6.55,1.58,6.65,3.8,6.65S219.63,986.32,219.63,981.74Zm-5.35-.17a1.55,1.55,0,1,1,1.55,1.67A1.55,1.55,0,0,1,214.28,981.57Z"/><path d="M225.76,988h4.6v-11.7h-3.58V975a11.46,11.46,0,0,0,4.1-1.17h1.55V988h4.15v1.73H225.76Z"/><path d="M249.25,975.62h-9.17v-1.8h11.55v1.27c-4.22,4.83-5.25,8.43-5.5,14.68H244C244.23,983.74,245.63,980.07,249.25,975.62Z"/><path d="M87.74,781.53h4.65c3.35,0,5.62,1.12,5.62,4a3.56,3.56,0,0,1-2.87,3.57v.1c2.4.37,3.8,1.67,3.8,3.92,0,3.23-2.5,4.8-6.18,4.8h-5Zm4.3,6.89c2.8,0,3.92-.89,3.92-2.72s-1.3-2.42-3.82-2.42H89.81v5.14Zm.42,7.75c2.8,0,4.43-.92,4.43-3.15,0-2-1.55-2.85-4.43-2.85H89.81v6Z"/><path d="M102.26,794.77c0-2.72,2.55-4,8.83-4.55a2.88,2.88,0,0,0-3.23-3,8.42,8.42,0,0,0-4.24,1.44l-.83-1.39a10.65,10.65,0,0,1,5.42-1.75c3.33,0,5,2,5,5v7.45h-1.72l-.18-1.65h-.07a8.2,8.2,0,0,1-4.78,2C104.14,798.22,102.26,797,102.26,794.77Zm8.83,0V791.6c-5.2.4-6.78,1.42-6.78,3,0,1.38,1.25,1.93,2.65,1.93A6.62,6.62,0,0,0,111.09,794.75Z"/><path d="M117.07,800.15a3.34,3.34,0,0,1,2-2.7v-.1a2.22,2.22,0,0,1-1.24-2,3,3,0,0,1,1.44-2.28V793a3.88,3.88,0,0,1-1.5-3.15c0-2.64,2.2-4.34,4.78-4.34a5,5,0,0,1,1.8.3h5v1.67h-3.15a3.67,3.67,0,0,1,1,2.45c0,2.6-2.08,4.17-4.7,4.17a5.21,5.21,0,0,1-2.05-.45,1.69,1.69,0,0,0-.95,1.4c0,1,.92,1.4,2.52,1.4h2.73c3.12,0,4.62.8,4.62,2.85,0,2.28-2.62,4.25-6.75,4.25C119.11,803.52,117.07,802.3,117.07,800.15Zm10.32-.55c0-1.15-.93-1.48-2.78-1.48h-2.37a6.85,6.85,0,0,1-1.85-.2c-1.15.63-1.55,1.33-1.55,2,0,1.27,1.37,2.07,4,2.07C125.64,802,127.39,800.85,127.39,799.6Zm-2-9.78a2.8,2.8,0,1,0-2.8,2.88A2.74,2.74,0,0,0,125.34,789.82Z"/><path d="M132,791.82a6.1,6.1,0,0,1,6.2-6.34c3.5,0,5.55,2.27,5.55,5.69a8.31,8.31,0,0,1-.1,1.25H133.34v-1.6h9l-.53.58c0-2.87-1.42-4.3-3.65-4.3s-4.2,1.7-4.2,4.72a4.41,4.41,0,0,0,4.75,4.75,6.62,6.62,0,0,0,3.7-1.15l.75,1.35a8.33,8.33,0,0,1-4.7,1.45C134.86,798.22,132,795.87,132,791.82Z"/><path d="M148.89,785.78h1.72l.2,2.87h.05a6.43,6.43,0,0,1,5.43-3.17,5,5,0,0,1,2.4.5l-.48,1.77a6.2,6.2,0,0,0-2.25-.4c-1.82,0-3.55.93-5,3.47v7.1h-2.07Z"/><path d="M168.14,787.45h-5.63v-1.67h7.7v12.14h-2.07Zm-.83-5.82a1.65,1.65,0,1,1,1.65,1.6A1.56,1.56,0,0,1,167.31,781.63Z"/><path d="M177,791.82a6.1,6.1,0,0,1,6.2-6.34c3.5,0,5.55,2.27,5.55,5.69a8.31,8.31,0,0,1-.1,1.25H178.34v-1.6h9l-.53.58c0-2.87-1.42-4.3-3.65-4.3s-4.2,1.7-4.2,4.72a4.41,4.41,0,0,0,4.75,4.75,6.62,6.62,0,0,0,3.7-1.15l.75,1.35a8.33,8.33,0,0,1-4.7,1.45C179.86,798.22,177,795.87,177,791.82Z"/><path d="M195.41,793.2v-5.75H192V785.9l3.53-.12.27-3.9h1.73v3.9h5.95v1.67h-5.95v5.77c0,2.18.72,3.3,3.07,3.3a7.84,7.84,0,0,0,2.9-.55l.45,1.53a10.58,10.58,0,0,1-3.8.72C196.56,798.22,195.41,796.2,195.41,793.2Z"/><path d="M215.94,780.18h1.85l-8.2,21.74h-1.85Z"/><path d="M221.89,789.72c0-5.27,3.07-8.49,7.35-8.49a6.16,6.16,0,0,1,4.5,2l-1.2,1.32a4.4,4.4,0,0,0-3.3-1.47c-3.13,0-5.18,2.52-5.18,6.59s2.05,6.7,5.18,6.7a4.71,4.71,0,0,0,3.67-1.8l1.2,1.28a6.32,6.32,0,0,1-5.07,2.37C225,798.22,221.89,795.07,221.89,789.72Z"/><path d="M237.26,794.77c0-2.72,2.55-4,8.83-4.55a2.88,2.88,0,0,0-3.23-3,8.42,8.42,0,0,0-4.24,1.44l-.83-1.39a10.65,10.65,0,0,1,5.42-1.75c3.33,0,4.95,2,4.95,5v7.45h-1.72l-.18-1.65h-.07a8.2,8.2,0,0,1-4.78,2C239.14,798.22,237.26,797,237.26,794.77Zm8.83,0V791.6c-5.2.4-6.78,1.42-6.78,3,0,1.38,1.25,1.93,2.65,1.93A6.62,6.62,0,0,0,246.09,794.75Z"/><path d="M252.84,785.9l3.52-.12h7.08v1.67h-10.6Zm3.47-1.15c0-3,1.55-4.92,4.9-4.92a8.93,8.93,0,0,1,3.5.7l-.47,1.55a6.53,6.53,0,0,0-2.83-.58c-2.17,0-3.05,1.23-3.05,3.18v13.24h-2.05Z"/><path d="M267,791.82a6.1,6.1,0,0,1,6.2-6.34c3.5,0,5.55,2.27,5.55,5.69a8.31,8.31,0,0,1-.1,1.25H268.34v-1.6h9.05l-.53.58c0-2.87-1.42-4.3-3.65-4.3s-4.2,1.7-4.2,4.72a4.41,4.41,0,0,0,4.75,4.75,6.62,6.62,0,0,0,3.7-1.15l.75,1.35a8.33,8.33,0,0,1-4.7,1.45C269.86,798.22,267,795.87,267,791.82Z"/><path d="M282.89,780.13H285v12h.1l6.53-6.37H294l-9,8.84v3.3h-2.07Zm4.67,11.34,1.25-1.35,5.8,7.8h-2.3Z"/><path d="M295.69,794.92c0-2.55,1.95-4.1,6.7-4.6v1.33c-3.77.45-4.8,1.52-4.8,3.07a1.72,1.72,0,0,0,1.85,1.85,4.19,4.19,0,0,0,3.17-2.12l.7,1c-1.3,1.7-2.77,2.72-4.42,2.72A3.07,3.07,0,0,1,295.69,794.92Zm6.22-3v-1.22c0-2.6-.87-3.47-2.2-3.47a5.43,5.43,0,0,0-2.84,1l-.78-1.39a7.26,7.26,0,0,1,3.8-1.3c1.65,0,2.77.95,3.3,3.3h-.53c.75-2.35,2.25-3.3,3.8-3.3,2.53,0,3.73,2.57,3.73,5.54a12.13,12.13,0,0,1-.1,1.4H303v-1.6h5.93l-.38.5c0-2.82-.67-4.22-2.17-4.22s-2.8,1.27-2.8,4.72c0,2.9,1.1,4.73,3.15,4.73a4.16,4.16,0,0,0,2.37-.8l.75,1.4a5.5,5.5,0,0,1-3.2,1.07C303.59,798.22,301.91,795.62,301.91,791.87Z"/><path d="M311.77,791.87c0-4,2.62-6.39,5.49-6.39a5.19,5.19,0,0,1,3.65,1.55h0l-.1-2.23v-4.67h2.08v17.79h-1.7l-.18-1.6H321a5.82,5.82,0,0,1-4,1.9C313.86,798.22,311.77,795.92,311.77,791.87Zm9.09,2.8v-6a4.5,4.5,0,0,0-3.17-1.39c-2.1,0-3.8,1.84-3.8,4.62s1.35,4.62,3.57,4.62A4.58,4.58,0,0,0,320.86,794.67Z"/><path d="M327,791.82a6.1,6.1,0,0,1,6.2-6.34c3.5,0,5.55,2.27,5.55,5.69a8.31,8.31,0,0,1-.1,1.25H328.34v-1.6h9.05l-.53.58c0-2.87-1.42-4.3-3.65-4.3s-4.2,1.7-4.2,4.72a4.41,4.41,0,0,0,4.75,4.75,6.62,6.62,0,0,0,3.7-1.15l.75,1.35a8.33,8.33,0,0,1-4.7,1.45C329.86,798.22,327,795.87,327,791.82Z"/><path d="M342.59,785.78h1.7l.17,2h.1a6.32,6.32,0,0,1,4.58-2.34c2.87,0,4.2,1.7,4.2,4.89v7.55h-2.08v-7.27c0-2.3-.8-3.37-2.77-3.37-1.45,0-2.43.72-3.82,2.17v8.47h-2.08Z"/><path d="M88.12,811.53H98.26v1.77H90.21v5.12H97v1.78h-6.8v5.95h8.3v1.77H88.12Z"/><path d="M101.71,815.78h1.66l.17,1.59h0a3,3,0,0,1,2.77-1.89c1.2,0,2,.7,2.3,2.09.7-1.29,1.45-2.09,2.85-2.09,1.7,0,2.7,1.32,2.7,3.74v8.7h-2v-8.55c0-1.39-.4-2.12-1.3-2.12s-1.3.62-2,1.87v8.8H107v-8.55c0-1.39-.35-2.12-1.25-2.12s-1.4.62-2,1.87v8.8h-2.05Z"/><path d="M116.71,815.78h1.66l.17,1.59h0a3,3,0,0,1,2.77-1.89c1.2,0,2,.7,2.3,2.09.7-1.29,1.45-2.09,2.85-2.09,1.7,0,2.7,1.32,2.7,3.74v8.7h-2.05v-8.55c0-1.39-.4-2.12-1.3-2.12s-1.3.62-2,1.87v8.8H122v-8.55c0-1.39-.35-2.12-1.25-2.12s-1.4.62-2,1.87v8.8h-2.05Z"/><path d="M132,821.82a6.1,6.1,0,0,1,6.2-6.34c3.5,0,5.55,2.27,5.55,5.69a8.31,8.31,0,0,1-.1,1.25H133.34v-1.6h9l-.53.58c0-2.87-1.42-4.3-3.65-4.3s-4.2,1.7-4.2,4.72a4.41,4.41,0,0,0,4.75,4.75,6.62,6.62,0,0,0,3.7-1.15l.75,1.35a8.33,8.33,0,0,1-4.7,1.45C134.86,828.22,132,825.87,132,821.82Z"/><path d="M148.89,815.78h1.72l.2,2.87h.05a6.43,6.43,0,0,1,5.43-3.17,5,5,0,0,1,2.4.5l-.48,1.77a6.2,6.2,0,0,0-2.25-.4c-1.82,0-3.55.93-5,3.47v7.1h-2.07Z"/><path d="M161.94,832.9l.43-1.65a3.83,3.83,0,0,0,1.09.17,3.52,3.52,0,0,0,3.33-2.57l.35-.9-5.65-12.17h2.1l2.95,6.69c.47,1.08,1,2.35,1.5,3.53h.1c.42-1.15.9-2.43,1.3-3.53l2.62-6.69h2l-5.37,13.14c-.9,2.4-2.38,4.23-5.15,4.23A5.12,5.12,0,0,1,161.94,832.9Z"/><path d="M177,826.32l1-1.37a8.67,8.67,0,0,0,5.27,1.65c2.05,0,3.05-.85,3.05-1.88s-.47-1.57-3.77-2.25-4.75-1.72-4.75-3.55,1.72-3.44,5.05-3.44a9.08,9.08,0,0,1,4.9,1.55l-1,1.32a7.16,7.16,0,0,0-4.08-1.28c-2,0-2.8.83-2.8,1.75s1,1.5,3.55,2c4,.87,5,1.87,5,3.75s-1.92,3.62-5.4,3.62A10.62,10.62,0,0,1,177,826.32Z"/><path d="M215.94,810.18h1.85l-8.2,21.74h-1.85Z"/><path d="M230.94,810.18h1.85l-8.2,21.74h-1.85Z"/><path d="M252.09,826.7c5.4-4.78,8.35-7.58,8.35-10.22,0-1.83-1.1-3.1-3.45-3.1a5.47,5.47,0,0,0-3.82,1.9L252,814.1a7.13,7.13,0,0,1,5.28-2.42c3.2,0,5.2,1.87,5.2,4.7,0,3-3,6-7.33,9.89,1-.07,2-.12,3-.12h5.22v1.77H252.09Z"/><path d="M267,819.9c0-5.35,2.17-8.22,5.72-8.22s5.73,2.87,5.73,8.22-2.18,8.32-5.73,8.32S267,825.2,267,819.9Zm9.52,0c0-4.57-1.57-6.55-3.8-6.55s-3.8,2-3.8,6.55,1.58,6.65,3.8,6.65S276.56,824.47,276.56,819.9Zm-5.35-.18a1.56,1.56,0,1,1,1.55,1.68A1.56,1.56,0,0,1,271.21,819.72Z"/><path d="M282.69,826.2h4.6V814.5h-3.58v-1.35a11.46,11.46,0,0,0,4.1-1.17h1.55V826.2h4.15v1.72H282.69Z"/><path d="M304.46,817c0-.87.08-2,.13-2.82h-.13c-.52.77-1.1,1.55-1.62,2.32l-4.3,5.4h10.35v1.67H296.24v-1.37L304.19,812h2.22v15.94h-2Z"/><path d="M312.39,818.9h10.75v1.55H312.39Z"/><path d="M327.09,826.7c5.4-4.78,8.35-7.58,8.35-10.22,0-1.83-1.1-3.1-3.45-3.1a5.47,5.47,0,0,0-3.82,1.9L327,814.1a7.13,7.13,0,0,1,5.28-2.42c3.2,0,5.2,1.87,5.2,4.7,0,3-3,6-7.33,9.89,1-.07,2-.12,3-.12h5.22v1.77H327.09Z"/><path d="M342,819.9c0-5.35,2.17-8.22,5.72-8.22s5.73,2.87,5.73,8.22-2.18,8.32-5.73,8.32S342,825.2,342,819.9Zm9.52,0c0-4.57-1.57-6.55-3.8-6.55s-3.8,2-3.8,6.55,1.58,6.65,3.8,6.65S351.56,824.47,351.56,819.9Zm-5.35-.18a1.56,1.56,0,1,1,1.55,1.68A1.56,1.56,0,0,1,346.21,819.72Z"/><path d="M357.69,826.2h4.6V814.5h-3.58v-1.35a11.46,11.46,0,0,0,4.1-1.17h1.55V826.2h4.15v1.72H357.69Z"/><path d="M372,823.85c0-2.2,1.71-3.45,3.43-4.25v-.1a4.48,4.48,0,0,1-2.43-3.72c0-2.45,2.08-4.1,4.93-4.1,3.12,0,4.95,1.77,4.95,4.25a5,5,0,0,1-2.43,3.79v.1c1.75.88,3.13,1.88,3.13,4.15s-2.08,4.25-5.73,4.25S372,826.37,372,823.85Zm9.6,0c0-2.2-2.22-2.78-5-3.7-1.55.82-2.72,1.85-2.72,3.45s1.57,3,4,3S381.56,825.55,381.56,823.9ZM381,816c0-1.55-1.13-2.8-3.2-2.8-1.75,0-3,1-3,2.55,0,1.9,1.83,2.7,4.2,3.44A4,4,0,0,0,381,816Z"/><path d="M37.72,467.49l1.45-1.4,3.55,4.2-1.08,1Z"/><path d="M51.09,469.12h4.65c3.35,0,5.63,1.12,5.63,4a3.57,3.57,0,0,1-2.88,3.57v.1c2.4.37,3.8,1.68,3.8,3.92,0,3.23-2.5,4.8-6.17,4.8h-5Zm4.3,6.89c2.8,0,3.93-.89,3.93-2.72s-1.3-2.42-3.83-2.42H53.17V476Zm.43,7.75c2.8,0,4.42-.92,4.42-3.15,0-2-1.55-2.85-4.42-2.85H53.17v6Z"/><path d="M65.55,480.91v-7.54h2.07v7.27c0,2.27.8,3.37,2.8,3.37,1.4,0,2.42-.65,3.77-2.22v-8.42h2.08v12.14H74.54l-.17-2.12h-.1a5.93,5.93,0,0,1-4.53,2.42C66.87,485.81,65.55,484.11,65.55,480.91Z"/><path d="M80.39,483.91l1-1.37a8.68,8.68,0,0,0,5.28,1.65c2,0,3-.85,3-1.88s-.48-1.57-3.78-2.24-4.75-1.73-4.75-3.56,1.73-3.44,5-3.44a9.08,9.08,0,0,1,4.9,1.55l-1,1.32A7.11,7.11,0,0,0,86,474.66c-2,0-2.8.83-2.8,1.75s1,1.5,3.55,2c4,.88,5,1.87,5,3.75s-1.93,3.62-5.4,3.62A10.66,10.66,0,0,1,80.39,483.91Z"/><path d="M101.49,475H95.87v-1.67h7.7v12.14h-2.08Zm-.82-5.82a1.65,1.65,0,1,1,1.65,1.6A1.56,1.56,0,0,1,100.67,469.22Z"/><path d="M110.94,473.37h1.7l.18,2h.1a6.28,6.28,0,0,1,4.57-2.34c2.88,0,4.2,1.7,4.2,4.9v7.54h-2.07v-7.27c0-2.3-.8-3.37-2.78-3.37-1.45,0-2.42.72-3.82,2.17v8.47h-2.08Z"/><path d="M125.32,479.41a6.11,6.11,0,0,1,6.2-6.34c3.5,0,5.55,2.27,5.55,5.69A8.31,8.31,0,0,1,137,480H126.69v-1.6h9.05l-.52.58c0-2.87-1.43-4.3-3.65-4.3s-4.2,1.7-4.2,4.72a4.41,4.41,0,0,0,4.75,4.75,6.62,6.62,0,0,0,3.7-1.15l.75,1.35a8.33,8.33,0,0,1-4.7,1.45C128.22,485.81,125.32,483.46,125.32,479.41Z"/><path d="M140.39,483.91l1-1.37a8.68,8.68,0,0,0,5.28,1.65c2,0,3-.85,3-1.88s-.48-1.57-3.78-2.24-4.75-1.73-4.75-3.56,1.73-3.44,5.05-3.44a9.08,9.08,0,0,1,4.9,1.55l-1,1.32a7.11,7.11,0,0,0-4.07-1.28c-2.05,0-2.8.83-2.8,1.75s1.05,1.5,3.55,2c4,.88,5,1.87,5,3.75s-1.93,3.62-5.4,3.62A10.66,10.66,0,0,1,140.39,483.91Z"/><path d="M155.39,483.91l1-1.37a8.68,8.68,0,0,0,5.28,1.65c2,0,3-.85,3-1.88s-.48-1.57-3.78-2.24-4.75-1.73-4.75-3.56,1.73-3.44,5.05-3.44a9.08,9.08,0,0,1,4.9,1.55l-1,1.32a7.11,7.11,0,0,0-4.07-1.28c-2.05,0-2.8.83-2.8,1.75s1.05,1.5,3.55,2c4,.88,5,1.87,5,3.75s-1.93,3.62-5.4,3.62A10.66,10.66,0,0,1,155.39,483.91Z"/><path d="M189.92,469.12h2.4l5.52,16.39h-2.25l-2.82-9.14c-.58-1.83-1.13-3.63-1.63-5.53H191c-.52,1.9-1,3.7-1.62,5.53l-2.88,9.14h-2.15Zm-2.6,9.72h7.52v1.7h-7.52Z"/><path d="M200.12,479.46c0-3.95,2.62-6.39,5.5-6.39a5.2,5.2,0,0,1,3.65,1.55h0l-.1-2.23v-4.67h2.07v17.79h-1.7l-.17-1.6h-.08a5.81,5.81,0,0,1-4,1.9C202.22,485.81,200.12,483.51,200.12,479.46Zm9.1,2.8v-6a4.5,4.5,0,0,0-3.18-1.4c-2.1,0-3.8,1.84-3.8,4.62s1.35,4.62,3.58,4.62A4.6,4.6,0,0,0,209.22,482.26Z"/><path d="M215.07,473.37h1.65l.17,1.6h.05a3,3,0,0,1,2.78-1.9c1.2,0,1.95.7,2.3,2.09.7-1.29,1.45-2.09,2.85-2.09,1.7,0,2.7,1.32,2.7,3.75v8.69h-2V477c0-1.4-.4-2.13-1.3-2.13s-1.3.63-1.95,1.88v8.79h-1.9V477c0-1.4-.35-2.13-1.25-2.13s-1.4.63-2,1.88v8.79h-2.05Z"/><path d="M236.49,475h-5.62v-1.67h7.7v12.14h-2.08Zm-.82-5.82a1.65,1.65,0,1,1,1.65,1.6A1.56,1.56,0,0,1,235.67,469.22Z"/><path d="M245.94,473.37h1.7l.18,2h.1a6.28,6.28,0,0,1,4.57-2.34c2.88,0,4.2,1.7,4.2,4.9v7.54h-2.07v-7.27c0-2.3-.8-3.37-2.78-3.37-1.45,0-2.42.72-3.82,2.17v8.47h-2.08Z"/><path d="M260.39,483.91l.95-1.37a8.68,8.68,0,0,0,5.28,1.65c2.05,0,3.05-.85,3.05-1.88s-.48-1.57-3.78-2.24-4.75-1.73-4.75-3.56,1.73-3.44,5.05-3.44a9.08,9.08,0,0,1,4.9,1.55l-1,1.32a7.11,7.11,0,0,0-4.07-1.28c-2,0-2.8.83-2.8,1.75s1,1.5,3.55,2c4,.88,5,1.87,5,3.75s-1.93,3.62-5.4,3.62A10.66,10.66,0,0,1,260.39,483.91Z"/><path d="M278.77,480.79V475h-3.45v-1.55l3.52-.12.28-3.9h1.72v3.9h6V475h-6v5.77c0,2.18.73,3.3,3.08,3.3a7.93,7.93,0,0,0,2.9-.55l.45,1.53a10.63,10.63,0,0,1-3.8.72C279.92,485.81,278.77,483.79,278.77,480.79Z"/><path d="M292.24,473.37H294l.2,2.87h.05a6.4,6.4,0,0,1,5.42-3.17,5,5,0,0,1,2.4.5l-.47,1.77a6.2,6.2,0,0,0-2.25-.4c-1.83,0-3.55.93-5,3.47v7.1h-2.08Z"/><path d="M305.62,482.36c0-2.72,2.55-4,8.82-4.54a2.87,2.87,0,0,0-3.22-3.05,8.34,8.34,0,0,0-4.25,1.45l-.83-1.4a10.65,10.65,0,0,1,5.43-1.75c3.32,0,4.95,2,4.95,5v7.44h-1.73l-.17-1.65h-.08a8.14,8.14,0,0,1-4.77,1.95C307.49,485.81,305.62,484.54,305.62,482.36Zm8.82,0v-3.15c-5.2.4-6.77,1.42-6.77,3,0,1.38,1.25,1.93,2.65,1.93A6.62,6.62,0,0,0,314.44,482.34Z"/><path d="M323.77,480.79V475h-3.45v-1.55l3.52-.12.28-3.9h1.72v3.9h6V475h-6v5.77c0,2.18.73,3.3,3.08,3.3a7.93,7.93,0,0,0,2.9-.55l.45,1.53a10.63,10.63,0,0,1-3.8.72C324.92,485.81,323.77,483.79,323.77,480.79Z"/><path d="M341.49,475h-5.62v-1.67h7.7v12.14h-2.08Zm-.82-5.82a1.65,1.65,0,1,1,1.65,1.6A1.56,1.56,0,0,1,340.67,469.22Z"/><path d="M350.12,479.46c0-4.07,2.8-6.39,6-6.39s6,2.32,6,6.39-2.8,6.35-6,6.35S350.12,483.49,350.12,479.46Zm9.87,0c0-2.8-1.55-4.67-3.87-4.67s-3.88,1.87-3.88,4.67,1.55,4.63,3.88,4.63S360,482.24,360,479.46Z"/><path d="M365.94,473.37h1.7l.18,2h.1a6.28,6.28,0,0,1,4.57-2.34c2.88,0,4.2,1.7,4.2,4.9v7.54h-2.07v-7.27c0-2.3-.8-3.37-2.78-3.37-1.45,0-2.42.72-3.82,2.17v8.47h-2.08Z"/><path d="M399.92,469.12h2.4l5.52,16.39h-2.25l-2.82-9.14c-.58-1.83-1.13-3.63-1.63-5.53H401c-.52,1.9-1.05,3.7-1.62,5.53l-2.88,9.14h-2.15Zm-2.6,9.72h7.52v1.7h-7.52Z"/><path d="M410.94,473.37h1.7l.18,2h.1a6.28,6.28,0,0,1,4.57-2.34c2.88,0,4.2,1.7,4.2,4.9v7.54h-2.07v-7.27c0-2.3-.8-3.37-2.78-3.37-1.45,0-2.42.72-3.82,2.17v8.47h-2.08Z"/><path d="M425.12,479.46c0-3.95,2.62-6.39,5.5-6.39a5.2,5.2,0,0,1,3.65,1.55h.05l-.1-2.23v-4.67h2.07v17.79h-1.7l-.17-1.6h-.08a5.81,5.81,0,0,1-4,1.9C427.22,485.81,425.12,483.51,425.12,479.46Zm9.1,2.8v-6a4.5,4.5,0,0,0-3.18-1.4c-2.1,0-3.8,1.84-3.8,4.62s1.35,4.62,3.58,4.62A4.6,4.6,0,0,0,434.22,482.26Z"/><path d="M35.8,499.12h4c4.93,0,7.6,2.92,7.6,8.12s-2.67,8.27-7.5,8.27H35.8Zm3.89,14.67c3.73,0,5.58-2.4,5.58-6.55s-1.85-6.4-5.58-6.4h-1.8v12.95Z"/><path d="M56.49,505H50.87v-1.67h7.7v12.14H56.49Zm-.82-5.82a1.65,1.65,0,1,1,1.65,1.6A1.56,1.56,0,0,1,55.67,499.22Z"/><path d="M65.42,517.74a3.36,3.36,0,0,1,2-2.7v-.1a2.21,2.21,0,0,1-1.25-2,3,3,0,0,1,1.45-2.28v-.1a3.85,3.85,0,0,1-1.5-3.15c0-2.64,2.2-4.34,4.77-4.34a4.92,4.92,0,0,1,1.8.3h5V505H74.57a3.67,3.67,0,0,1,1,2.45c0,2.6-2.07,4.17-4.7,4.17a5.28,5.28,0,0,1-2-.45,1.69,1.69,0,0,0-1,1.4c0,.95.93,1.4,2.53,1.4h2.72c3.13,0,4.63.8,4.63,2.85,0,2.28-2.63,4.25-6.75,4.25C67.47,521.11,65.42,519.89,65.42,517.74Zm10.32-.55c0-1.15-.92-1.48-2.77-1.48H70.59a6.9,6.9,0,0,1-1.85-.2c-1.15.63-1.55,1.33-1.55,2,0,1.27,1.38,2.07,4,2.07C74,519.61,75.74,518.44,75.74,517.19Zm-2-9.78a2.8,2.8,0,1,0-2.8,2.88A2.74,2.74,0,0,0,73.69,507.41Z"/><path d="M86.49,505H80.87v-1.67h7.7v12.14H86.49Zm-.82-5.82a1.65,1.65,0,1,1,1.65,1.6A1.56,1.56,0,0,1,85.67,499.22Z"/><path d="M98.77,510.79V505H95.32v-1.55l3.52-.12.28-3.9h1.72v3.9h6V505h-6v5.77c0,2.18.73,3.3,3.08,3.3a7.93,7.93,0,0,0,2.9-.55l.45,1.53a10.63,10.63,0,0,1-3.8.72C99.92,515.81,98.77,513.79,98.77,510.79Z"/><path d="M110.62,512.36c0-2.72,2.55-4,8.82-4.54a2.87,2.87,0,0,0-3.22-3.05,8.34,8.34,0,0,0-4.25,1.45l-.83-1.4a10.65,10.65,0,0,1,5.43-1.75c3.32,0,5,2,5,5v7.44h-1.73l-.17-1.65h-.08a8.14,8.14,0,0,1-4.77,1.95C112.49,515.81,110.62,514.54,110.62,512.36Zm8.82,0v-3.15c-5.2.4-6.77,1.42-6.77,3,0,1.38,1.25,1.93,2.65,1.93A6.62,6.62,0,0,0,119.44,512.34Z"/><path d="M129.77,511.44V499.39h-4.3v-1.67h6.37v13.87a2.19,2.19,0,0,0,2.4,2.5,5.61,5.61,0,0,0,2.28-.55l.52,1.55a7.42,7.42,0,0,1-3.25.72C131.19,515.81,129.77,514.31,129.77,511.44Z"/><path d="M156.47,499.12h10.15v1.77h-8.05V506h6.8v1.78h-6.8v5.95h8.3v1.77h-10.4Z"/><path d="M174.82,509.21l-4.25-5.84h2.27l1.93,2.64c.42.68.92,1.4,1.42,2.06h.1c.45-.66,1-1.41,1.38-2.08l1.8-2.62h2.2l-4.3,6,4.65,6.12h-2.3l-2.1-2.8c-.53-.67-1.08-1.5-1.6-2.2h-.1c-.5.73-1,1.45-1.5,2.23l-2,2.77h-2.2Z"/><path d="M185.94,503.37h1.7l.18,1.54h.07a6.48,6.48,0,0,1,4.2-1.84c3.28,0,5,2.42,5,6.19,0,4.13-2.6,6.55-5.53,6.55a5.75,5.75,0,0,1-3.62-1.57h-.05l.1,2.3v4.1h-2.08Zm9.05,5.89c0-2.67-1-4.44-3.42-4.44a5.14,5.14,0,0,0-3.55,1.8v6a5,5,0,0,0,3.22,1.4C193.39,514.06,195,512.26,195,509.26Z"/><path d="M200.32,509.41a6.11,6.11,0,0,1,6.2-6.34c3.5,0,5.55,2.27,5.55,5.69A8.31,8.31,0,0,1,212,510H201.69v-1.6h9.05l-.52.58c0-2.87-1.43-4.3-3.65-4.3s-4.2,1.7-4.2,4.72a4.41,4.41,0,0,0,4.75,4.75,6.62,6.62,0,0,0,3.7-1.15l.75,1.35a8.33,8.33,0,0,1-4.7,1.45C203.22,515.81,200.32,513.46,200.32,509.41Z"/><path d="M217.24,503.37H219l.2,2.87h.05a6.4,6.4,0,0,1,5.42-3.17,5,5,0,0,1,2.4.5l-.47,1.77a6.2,6.2,0,0,0-2.25-.4c-1.83,0-3.55.93-5,3.47v7.1h-2.08Z"/><path d="M236.49,505h-5.62v-1.67h7.7v12.14h-2.08Zm-.82-5.82a1.65,1.65,0,1,1,1.65,1.6A1.56,1.56,0,0,1,235.67,499.22Z"/><path d="M245.32,509.41a6.11,6.11,0,0,1,6.2-6.34c3.5,0,5.55,2.27,5.55,5.69A8.31,8.31,0,0,1,257,510H246.69v-1.6h9.05l-.52.58c0-2.87-1.43-4.3-3.65-4.3s-4.2,1.7-4.2,4.72a4.41,4.41,0,0,0,4.75,4.75,6.62,6.62,0,0,0,3.7-1.15l.75,1.35a8.33,8.33,0,0,1-4.7,1.45C248.22,515.81,245.32,513.46,245.32,509.41Z"/><path d="M260.94,503.37h1.7l.18,2h.1a6.28,6.28,0,0,1,4.57-2.34c2.88,0,4.2,1.7,4.2,4.9v7.54h-2.07v-7.27c0-2.3-.8-3.37-2.78-3.37-1.45,0-2.42.72-3.82,2.17v8.47h-2.08Z"/><path d="M275.62,509.46c0-4.07,3.1-6.39,6.77-6.39a6.2,6.2,0,0,1,4.43,1.77l-1,1.32a5.05,5.05,0,0,0-3.32-1.37,4.46,4.46,0,0,0-4.73,4.67,4.41,4.41,0,0,0,4.68,4.63,5.78,5.78,0,0,0,3.75-1.53l.92,1.35a7.22,7.22,0,0,1-4.82,1.9C278.47,515.81,275.62,513.49,275.62,509.46Z"/><path d="M290.32,509.41a6.11,6.11,0,0,1,6.2-6.34c3.5,0,5.55,2.27,5.55,5.69A8.31,8.31,0,0,1,302,510H291.69v-1.6h9.05l-.52.58c0-2.87-1.43-4.3-3.65-4.3s-4.2,1.7-4.2,4.72a4.41,4.41,0,0,0,4.75,4.75,6.62,6.62,0,0,0,3.7-1.15l.75,1.35a8.33,8.33,0,0,1-4.7,1.45C293.22,515.81,290.32,513.46,290.32,509.41Z"/><path d="M309.52,500.29l3.55-4.2,1.45,1.4-3.93,3.83Z"/><path d="M335.94,503.37h1.7l.18,1.54h.07a6.48,6.48,0,0,1,4.2-1.84c3.28,0,5,2.42,5,6.19,0,4.13-2.6,6.55-5.53,6.55a5.75,5.75,0,0,1-3.62-1.57h-.05l.1,2.3v4.1h-2.08Zm9.05,5.89c0-2.67-1-4.44-3.42-4.44a5.14,5.14,0,0,0-3.55,1.8v6a5,5,0,0,0,3.22,1.4C343.39,514.06,345,512.26,345,509.26Z"/><path d="M350.62,512.36c0-2.72,2.55-4,8.82-4.54a2.87,2.87,0,0,0-3.22-3.05,8.34,8.34,0,0,0-4.25,1.45l-.83-1.4a10.65,10.65,0,0,1,5.43-1.75c3.32,0,4.95,2,4.95,5v7.44h-1.73l-.17-1.65h-.08a8.14,8.14,0,0,1-4.77,1.95C352.49,515.81,350.62,514.54,350.62,512.36Zm8.82,0v-3.15c-5.2.4-6.77,1.42-6.77,3,0,1.38,1.25,1.93,2.65,1.93A6.62,6.62,0,0,0,359.44,512.34Zm-5.57-13.45a2.78,2.78,0,1,1,2.75,2.4A2.45,2.45,0,0,1,353.87,498.89Zm4.17,0a1.43,1.43,0,1,0-2.85,0,1.43,1.43,0,1,0,2.85,0Z"/><path d="M380.67,499.12H383l5.25,10.29,1.57,3.4h0c-.07-1.62-.27-3.47-.27-5.2v-8.49h2v16.39h-2.3L384,505.22l-1.58-3.4h-.05c.08,1.67.28,3.42.28,5.12v8.57h-2Z"/><path d="M395.12,509.46c0-4.07,2.8-6.39,6-6.39s6,2.32,6,6.39-2.8,6.35-6,6.35S395.12,513.49,395.12,509.46Zm9.87,0c0-2.8-1.55-4.67-3.87-4.67s-3.88,1.87-3.88,4.67,1.55,4.63,3.88,4.63S405,512.24,405,509.46Z"/><path d="M412.24,503.37H414l.2,2.87h.05a6.4,6.4,0,0,1,5.42-3.17,5,5,0,0,1,2.4.5l-.47,1.77a6.2,6.2,0,0,0-2.25-.4c-1.83,0-3.55.93-5,3.47v7.1h-2.08Z"/><path d="M425.74,506.49h10.75V508H425.74Z"/><path d="M33.82,533.37h2l1.45,7c.22,1.15.4,2.2.55,3.35H38a29.75,29.75,0,0,1,.7-3.35l1.5-6.29h2l1.45,6.29a33.57,33.57,0,0,1,.75,3.35h.1c.2-1.15.32-2.2.55-3.35l1.45-7h1.9l-2.6,12.14H43.17l-1.4-5.8c-.2-.85-.4-2.05-.6-3.59h-.1c-.2,1.54-.4,2.74-.6,3.59l-1.35,5.8H36.47Z"/><path d="M50.62,542.36c0-2.72,2.55-4,8.82-4.54a2.87,2.87,0,0,0-3.22-3.05A8.34,8.34,0,0,0,52,536.22l-.83-1.4a10.65,10.65,0,0,1,5.43-1.75c3.32,0,5,2,5,5v7.44H59.79l-.17-1.65h-.08a8.14,8.14,0,0,1-4.77,1.95C52.49,545.81,50.62,544.54,50.62,542.36Zm8.82,0v-3.15c-5.2.4-6.77,1.42-6.77,3,0,1.38,1.25,1.93,2.65,1.93A6.62,6.62,0,0,0,59.44,542.34Z"/><path d="M69.77,541.44V529.39h-4.3v-1.67h6.37v13.87a2.19,2.19,0,0,0,2.4,2.5,5.61,5.61,0,0,0,2.28-.55l.52,1.55a7.42,7.42,0,0,1-3.25.72C71.19,545.81,69.77,544.31,69.77,541.44Z"/><path d="M81.24,527.72h2.08v12h.1l6.52-6.37h2.38l-9,8.84v3.3H81.24Zm4.68,11.35,1.25-1.35,5.8,7.79h-2.3Z"/><path d="M110.25,537.32c0-5.28,3.07-8.5,7.34-8.5a6.13,6.13,0,0,1,4.5,2l-1.2,1.32a4.38,4.38,0,0,0-3.3-1.47c-3.12,0-5.17,2.52-5.17,6.59s2,6.7,5.17,6.7a4.74,4.74,0,0,0,3.68-1.8l1.2,1.28a6.34,6.34,0,0,1-5.08,2.37C113.34,545.81,110.25,542.66,110.25,537.32Z"/><path d="M125.12,539.46c0-4.07,2.8-6.39,6-6.39s6,2.32,6,6.39-2.8,6.35-6,6.35S125.12,543.49,125.12,539.46Zm9.87,0c0-2.8-1.55-4.67-3.87-4.67s-3.88,1.87-3.88,4.67,1.55,4.63,3.88,4.63S135,542.24,135,539.46Z"/><path d="M140.07,533.37h1.65l.17,1.6h.05a3,3,0,0,1,2.78-1.9c1.2,0,1.95.7,2.3,2.09.7-1.29,1.45-2.09,2.85-2.09,1.7,0,2.7,1.32,2.7,3.75v8.69h-2V537c0-1.4-.4-2.13-1.3-2.13s-1.3.63-1.95,1.88v8.79h-1.9V537c0-1.4-.35-2.13-1.25-2.13s-1.4.63-2,1.88v8.79h-2.05Z"/><path d="M155.07,533.37h1.65l.17,1.6h.05a3,3,0,0,1,2.78-1.9c1.2,0,1.95.7,2.3,2.09.7-1.29,1.45-2.09,2.85-2.09,1.7,0,2.7,1.32,2.7,3.75v8.69h-2V537c0-1.4-.4-2.13-1.3-2.13s-1.3.63-1.95,1.88v8.79h-1.9V537c0-1.4-.35-2.13-1.25-2.13s-1.4.63-2,1.88v8.79h-2.05Z"/><path d="M170.55,540.91v-7.54h2.07v7.27c0,2.27.8,3.37,2.8,3.37,1.4,0,2.42-.65,3.77-2.22v-8.42h2.08v12.14h-1.73l-.17-2.12h-.1a5.93,5.93,0,0,1-4.53,2.42C171.87,545.81,170.55,544.11,170.55,540.91Z"/><path d="M185.94,533.37h1.7l.18,2h.1a6.28,6.28,0,0,1,4.57-2.34c2.88,0,4.2,1.7,4.2,4.9v7.54h-2.07v-7.27c0-2.3-.8-3.37-2.78-3.37-1.45,0-2.42.72-3.82,2.17v8.47h-2.08Z"/><path d="M206.49,535h-5.62v-1.67h7.7v12.14h-2.08Zm-.82-5.82a1.65,1.65,0,1,1,1.65,1.6A1.56,1.56,0,0,1,205.67,529.22Z"/><path d="M218.77,540.79V535h-3.45v-1.55l3.52-.12.28-3.9h1.72v3.9h5.95V535h-5.95v5.77c0,2.18.73,3.3,3.08,3.3a7.93,7.93,0,0,0,2.9-.55l.45,1.53a10.63,10.63,0,0,1-3.8.72C219.92,545.81,218.77,543.79,218.77,540.79Z"/><path d="M230.3,550.49l.42-1.65a3.9,3.9,0,0,0,1.1.17,3.51,3.51,0,0,0,3.32-2.57l.35-.9-5.65-12.17h2.1l2.95,6.7c.48,1.07,1,2.34,1.5,3.52h.1c.43-1.15.9-2.43,1.3-3.52l2.63-6.7h2L237,546.51c-.9,2.4-2.37,4.23-5.15,4.23A5.05,5.05,0,0,1,230.3,550.49Z"/><path d="M260.25,537.32c0-5.28,3.07-8.5,7.34-8.5a6.13,6.13,0,0,1,4.5,2l-1.2,1.32a4.38,4.38,0,0,0-3.3-1.47c-3.12,0-5.17,2.52-5.17,6.59s2.05,6.7,5.17,6.7a4.74,4.74,0,0,0,3.68-1.8l1.2,1.28a6.34,6.34,0,0,1-5.08,2.37C263.34,545.81,260.25,542.66,260.25,537.32Z"/><path d="M275.12,539.46c0-4.07,2.8-6.39,6-6.39s6,2.32,6,6.39-2.8,6.35-6,6.35S275.12,543.49,275.12,539.46Zm9.87,0c0-2.8-1.55-4.67-3.87-4.67s-3.88,1.87-3.88,4.67,1.55,4.63,3.88,4.63S285,542.24,285,539.46Z"/><path d="M294.77,541.44V529.39h-4.3v-1.67h6.37v13.87a2.19,2.19,0,0,0,2.4,2.5,5.61,5.61,0,0,0,2.28-.55l.52,1.55a7.42,7.42,0,0,1-3.25.72C296.19,545.81,294.77,544.31,294.77,541.44Z"/><path d="M309.77,541.44V529.39h-4.3v-1.67h6.37v13.87a2.19,2.19,0,0,0,2.4,2.5,5.61,5.61,0,0,0,2.28-.55l.52,1.55a7.42,7.42,0,0,1-3.25.72C311.19,545.81,309.77,544.31,309.77,541.44Z"/><path d="M320.32,539.41a6.11,6.11,0,0,1,6.2-6.34c3.5,0,5.55,2.27,5.55,5.69A8.31,8.31,0,0,1,332,540H321.69v-1.6h9.05l-.52.58c0-2.87-1.43-4.3-3.65-4.3s-4.2,1.7-4.2,4.72a4.41,4.41,0,0,0,4.75,4.75,6.62,6.62,0,0,0,3.7-1.15l.75,1.35a8.33,8.33,0,0,1-4.7,1.45C323.22,545.81,320.32,543.46,320.32,539.41Z"/><path d="M335.42,547.74a3.36,3.36,0,0,1,2-2.7v-.1a2.21,2.21,0,0,1-1.25-2,3,3,0,0,1,1.45-2.28v-.1a3.85,3.85,0,0,1-1.5-3.15c0-2.64,2.2-4.34,4.77-4.34a4.92,4.92,0,0,1,1.8.3h5V535h-3.15a3.67,3.67,0,0,1,1,2.45c0,2.6-2.07,4.17-4.7,4.17a5.28,5.28,0,0,1-2.05-.45,1.69,1.69,0,0,0-.95,1.4c0,.95.93,1.4,2.53,1.4h2.72c3.13,0,4.63.8,4.63,2.85,0,2.28-2.63,4.25-6.75,4.25C337.47,551.11,335.42,549.89,335.42,547.74Zm10.32-.55c0-1.15-.92-1.48-2.77-1.48h-2.38a6.9,6.9,0,0,1-1.85-.2c-1.15.63-1.55,1.33-1.55,2,0,1.27,1.38,2.07,4,2.07C344,549.61,345.74,548.44,345.74,547.19Zm-2.05-9.78a2.8,2.8,0,1,0-2.8,2.88A2.74,2.74,0,0,0,343.69,537.41Z"/><path d="M350.32,539.41a6.11,6.11,0,0,1,6.2-6.34c3.5,0,5.55,2.27,5.55,5.69A8.31,8.31,0,0,1,362,540H351.69v-1.6h9.05l-.52.58c0-2.87-1.43-4.3-3.65-4.3s-4.2,1.7-4.2,4.72a4.41,4.41,0,0,0,4.75,4.75,6.62,6.62,0,0,0,3.7-1.15l.75,1.35a8.33,8.33,0,0,1-4.7,1.45C353.22,545.81,350.32,543.46,350.32,539.41Z"/><path d="M386.49,535h-5.62v-1.67h7.7v12.14h-2.08Zm-.82-5.82a1.65,1.65,0,1,1,1.65,1.6A1.56,1.56,0,0,1,385.67,529.22Z"/><path d="M35.25,567.32c0-5.28,3.07-8.5,7.34-8.5a6.13,6.13,0,0,1,4.5,2l-1.2,1.32a4.38,4.38,0,0,0-3.3-1.47c-3.12,0-5.17,2.52-5.17,6.59s2,6.7,5.17,6.7a4.74,4.74,0,0,0,3.68-1.8l1.2,1.28a6.34,6.34,0,0,1-5.08,2.37C38.34,575.81,35.25,572.66,35.25,567.32Z"/><path d="M50.12,569.46c0-4.07,2.8-6.39,6-6.39s6,2.32,6,6.39-2.8,6.35-6,6.35S50.12,573.49,50.12,569.46Zm9.87,0c0-2.8-1.55-4.67-3.87-4.67s-3.88,1.87-3.88,4.67,1.55,4.63,3.88,4.63S60,572.24,60,569.46Z"/><path d="M65.94,563.37h1.7l.18,2h.1a6.28,6.28,0,0,1,4.57-2.34c2.88,0,4.2,1.7,4.2,4.9v7.54H74.62v-7.27c0-2.3-.8-3.37-2.78-3.37-1.45,0-2.42.72-3.82,2.17v8.47H65.94Z"/><path d="M80.94,563.37h1.7l.18,2h.1a6.28,6.28,0,0,1,4.57-2.34c2.88,0,4.2,1.7,4.2,4.9v7.54H89.62v-7.27c0-2.3-.8-3.37-2.78-3.37-1.45,0-2.42.72-3.82,2.17v8.47H80.94Z"/><path d="M95.32,569.41a6.11,6.11,0,0,1,6.2-6.34c3.5,0,5.55,2.27,5.55,5.69A8.31,8.31,0,0,1,107,570H96.69v-1.6h9l-.52.58c0-2.87-1.43-4.3-3.65-4.3s-4.2,1.7-4.2,4.72a4.41,4.41,0,0,0,4.75,4.75,6.62,6.62,0,0,0,3.7-1.15l.75,1.35a8.33,8.33,0,0,1-4.7,1.45C98.22,575.81,95.32,573.46,95.32,569.41Z"/><path d="M110.62,569.46c0-4.07,3.1-6.39,6.77-6.39a6.2,6.2,0,0,1,4.43,1.77l-1,1.32a5.05,5.05,0,0,0-3.32-1.37,4.46,4.46,0,0,0-4.73,4.67,4.41,4.41,0,0,0,4.68,4.63,5.78,5.78,0,0,0,3.75-1.53l.92,1.35a7.22,7.22,0,0,1-4.82,1.9C113.47,575.81,110.62,573.49,110.62,569.46Z"/><path d="M128.77,570.79V565h-3.45v-1.55l3.52-.12.28-3.9h1.72v3.9h5.95V565h-5.95v5.77c0,2.18.73,3.3,3.08,3.3a7.93,7.93,0,0,0,2.9-.55l.45,1.53a10.63,10.63,0,0,1-3.8.72C129.92,575.81,128.77,573.79,128.77,570.79Z"/><path d="M146.49,565h-5.62v-1.67h7.7v12.14h-2.08Zm-.82-5.82a1.65,1.65,0,1,1,1.65,1.6A1.56,1.56,0,0,1,145.67,559.22Z"/><path d="M155.62,569.46c0-4.07,3.1-6.39,6.77-6.39a6.2,6.2,0,0,1,4.43,1.77l-1,1.32a5.05,5.05,0,0,0-3.32-1.37,4.46,4.46,0,0,0-4.73,4.67,4.41,4.41,0,0,0,4.68,4.63,5.78,5.78,0,0,0,3.75-1.53l.92,1.35a7.22,7.22,0,0,1-4.82,1.9C158.47,575.81,155.62,573.49,155.62,569.46Z"/><path d="M170.55,570.91v-7.54h2.07v7.27c0,2.27.8,3.37,2.8,3.37,1.4,0,2.42-.65,3.77-2.22v-8.42h2.08v12.14h-1.73l-.17-2.12h-.1a5.93,5.93,0,0,1-4.53,2.42C171.87,575.81,170.55,574.11,170.55,570.91Z"/><path d="M188.77,570.79V565h-3.45v-1.55l3.52-.12.28-3.9h1.72v3.9h5.95V565h-5.95v5.77c0,2.18.73,3.3,3.08,3.3a7.93,7.93,0,0,0,2.9-.55l.45,1.53a10.63,10.63,0,0,1-3.8.72C189.92,575.81,188.77,573.79,188.77,570.79Z"/><path d="M203.52,579.54c2.12-.95,3.17-2.3,3.15-4.38l-.45-2.3,1.4,2a1.76,1.76,0,0,1-1.4.57,1.78,1.78,0,0,1-1.95-1.87,1.86,1.86,0,0,1,2-1.9c1.47,0,2.25,1.22,2.25,3.2a6.16,6.16,0,0,1-4.4,6Z"/><path d="M230.59,569.32v-10.2h2.13v10.24c0,3.38,1.47,4.6,3.42,4.6s3.48-1.22,3.48-4.6V559.12h2v10.2c0,4.69-2.3,6.49-5.5,6.49S230.59,574,230.59,569.32Z"/><path d="M245.3,573.39l1.24-1.45a6.91,6.91,0,0,0,4.8,2c2.25,0,3.55-1.07,3.55-2.57,0-1.75-1.27-2.25-2.92-2.95l-2.38-1.05c-1.62-.65-3.52-1.8-3.52-4.22s2.25-4.35,5.37-4.35a7.15,7.15,0,0,1,5.05,2l-1.1,1.35a5.74,5.74,0,0,0-4-1.52c-1.9,0-3.18.9-3.18,2.37s1.53,2.15,2.93,2.7l2.3,1c2,.81,3.62,2,3.62,4.38,0,2.6-2.2,4.67-5.8,4.67A8.32,8.32,0,0,1,245.3,573.39Z"/><path d="M264.92,559.12h2.4l5.52,16.39h-2.25l-2.82-9.14c-.58-1.83-1.13-3.63-1.63-5.53H266c-.52,1.9-1.05,3.7-1.62,5.53l-2.88,9.14h-2.15Zm-2.6,9.72h7.52v1.7h-7.52Z"/><path d="M299.29,557.77h1.85l-8.2,21.74h-1.85Z"/><path d="M314.29,557.77h1.85l-8.2,21.74h-1.85Z"/><path d="M335.44,574.29c5.4-4.78,8.35-7.57,8.35-10.22,0-1.83-1.1-3.1-3.45-3.1a5.47,5.47,0,0,0-3.82,1.9l-1.2-1.18a7.1,7.1,0,0,1,5.27-2.42c3.2,0,5.2,1.87,5.2,4.7,0,3-3,6-7.32,9.89,1-.07,2-.12,3-.12h5.23v1.77H335.44Z"/><path d="M350.39,567.49c0-5.35,2.18-8.22,5.73-8.22s5.72,2.87,5.72,8.22-2.17,8.32-5.72,8.32S350.39,572.79,350.39,567.49Zm9.53,0c0-4.57-1.58-6.55-3.8-6.55s-3.8,2-3.8,6.55,1.57,6.65,3.8,6.65S359.92,572.06,359.92,567.49Zm-5.35-.17a1.55,1.55,0,1,1,1.55,1.67A1.56,1.56,0,0,1,354.57,567.32Z"/><path d="M366.05,573.79h4.59v-11.7h-3.57v-1.35a11.59,11.59,0,0,0,4.1-1.17h1.55v14.22h4.15v1.72H366.05Z"/><path d="M380.32,571.44c0-2.2,1.7-3.45,3.42-4.25v-.1a4.49,4.49,0,0,1-2.42-3.72c0-2.45,2.07-4.1,4.92-4.1,3.13,0,4.95,1.77,4.95,4.25a5,5,0,0,1-2.42,3.8v.09c1.75.88,3.12,1.88,3.12,4.15s-2.07,4.25-5.72,4.25S380.32,574,380.32,571.44Zm9.6,0c0-2.2-2.23-2.78-5-3.7-1.55.82-2.73,1.85-2.73,3.45s1.58,3,4,3S389.92,573.14,389.92,571.49Zm-.53-7.87c0-1.55-1.12-2.8-3.2-2.8-1.75,0-3,1-3,2.55,0,1.9,1.82,2.7,4.2,3.45A4,4,0,0,0,389.39,563.62Z"/><path d="M138.77,245.13h5.12c3.33,0,5.75,1.2,5.75,4.62s-2.42,4.85-5.75,4.85h-3v6.93h-2.12Zm4.82,7.77c2.55,0,3.95-1.05,3.95-3.15s-1.4-2.92-3.95-2.92h-2.7v6.07Zm1.53,0,5,8.6h-2.38l-4.27-7.5Z"/><path d="M153,255.43a6.1,6.1,0,0,1,6.19-6.35c3.5,0,5.55,2.27,5.55,5.7a8.55,8.55,0,0,1-.1,1.25H154.37v-1.6h9l-.53.57c0-2.87-1.42-4.3-3.65-4.3s-4.19,1.7-4.19,4.73a4.4,4.4,0,0,0,4.74,4.75,6.62,6.62,0,0,0,3.7-1.15l.75,1.35a8.33,8.33,0,0,1-4.7,1.45C155.89,261.83,153,259.48,153,255.43Z"/><path d="M168.92,243.73H171v12h.09l6.53-6.37H180l-9,8.85v3.3h-2.08Zm4.67,11.35,1.25-1.35,5.8,7.8h-2.3Z"/><path d="M187.44,257.45v-12h-4.29v-1.68h6.37V257.6a2.19,2.19,0,0,0,2.4,2.5,5.37,5.37,0,0,0,2.27-.55l.53,1.55a7.35,7.35,0,0,1-3.25.73C188.87,261.83,187.44,260.33,187.44,257.45Z"/><path d="M198.3,258.38c0-2.73,2.54-4,8.82-4.55a2.89,2.89,0,0,0-3.23-3.05,8.43,8.43,0,0,0-4.24,1.45l-.83-1.4a10.65,10.65,0,0,1,5.42-1.75c3.33,0,4.95,2,4.95,5v7.45h-1.72l-.18-1.65h-.07a8.2,8.2,0,0,1-4.78,1.95C200.17,261.83,198.3,260.55,198.3,258.38Zm8.82,0V255.2c-5.2.4-6.78,1.43-6.78,3,0,1.37,1.25,1.92,2.65,1.92A6.62,6.62,0,0,0,207.12,258.35Z"/><path d="M212.75,249.38h1.65l.17,1.6h.05a3,3,0,0,1,2.77-1.9c1.2,0,2,.7,2.3,2.1.7-1.3,1.45-2.1,2.85-2.1,1.7,0,2.7,1.32,2.7,3.75v8.7h-2.05V253c0-1.4-.4-2.13-1.3-2.13s-1.3.63-1.95,1.88v8.8H218V253c0-1.4-.35-2.13-1.24-2.13s-1.41.63-2,1.88v8.8h-2.05Z"/><path d="M228,255.43a6.1,6.1,0,0,1,6.19-6.35c3.5,0,5.55,2.27,5.55,5.7a8.55,8.55,0,0,1-.1,1.25H229.37v-1.6h9l-.53.57c0-2.87-1.42-4.3-3.65-4.3s-4.19,1.7-4.19,4.73a4.4,4.4,0,0,0,4.74,4.75,6.62,6.62,0,0,0,3.7-1.15l.75,1.35a8.33,8.33,0,0,1-4.7,1.45C230.89,261.83,228,259.48,228,255.43Z"/><path d="M245.55,260.18h-.08l-.2,1.35h-1.65v-17.8h2.08v4.85l-.11,2.35h.08a6,6,0,0,1,4.07-1.85c3.28,0,5,2.42,5,6.17,0,4.15-2.6,6.58-5.47,6.58A6,6,0,0,1,245.55,260.18Zm7.12-4.9c0-2.68-1-4.45-3.43-4.45a5.14,5.14,0,0,0-3.54,1.8v6.05a5.08,5.08,0,0,0,3.27,1.4C251.07,260.08,252.67,258.28,252.67,255.28Z"/><path d="M258.22,256.93v-7.55h2.08v7.27c0,2.28.79,3.38,2.79,3.38,1.4,0,2.43-.65,3.78-2.23v-8.42h2.07v12.15h-1.72L267,259.4h-.1a5.89,5.89,0,0,1-4.52,2.43C259.55,261.83,258.22,260.13,258.22,256.93Z"/><path d="M274.92,249.38h1.72l.2,2.87h.05a6.43,6.43,0,0,1,5.43-3.17,5,5,0,0,1,2.4.5l-.48,1.77A6.2,6.2,0,0,0,282,251c-1.82,0-3.55.93-5,3.48v7.1h-2.07Z"/><path d="M288,255.43a6.1,6.1,0,0,1,6.19-6.35c3.5,0,5.55,2.27,5.55,5.7a8.55,8.55,0,0,1-.1,1.25H289.37v-1.6h9.05l-.53.57c0-2.87-1.42-4.3-3.65-4.3s-4.19,1.7-4.19,4.73a4.4,4.4,0,0,0,4.74,4.75,6.62,6.62,0,0,0,3.7-1.15l.75,1.35a8.33,8.33,0,0,1-4.7,1.45C290.89,261.83,288,259.48,288,255.43Z"/><path d="M303.3,258.38c0-2.73,2.54-4,8.82-4.55a2.89,2.89,0,0,0-3.23-3.05,8.43,8.43,0,0,0-4.24,1.45l-.83-1.4a10.65,10.65,0,0,1,5.42-1.75c3.33,0,4.95,2,4.95,5v7.45h-1.72l-.18-1.65h-.07a8.2,8.2,0,0,1-4.78,1.95C305.17,261.83,303.3,260.55,303.3,258.38Zm8.82,0V255.2c-5.2.4-6.78,1.43-6.78,3,0,1.37,1.25,1.92,2.65,1.92A6.62,6.62,0,0,0,312.12,258.35Z"/><path d="M318.22,256.93v-7.55h2.08v7.27c0,2.28.79,3.38,2.79,3.38,1.4,0,2.43-.65,3.78-2.23v-8.42h2.07v12.15h-1.72L327,259.4h-.1a5.89,5.89,0,0,1-4.52,2.43C319.55,261.83,318.22,260.13,318.22,256.93Z"/><path d="M333,255.43a6.1,6.1,0,0,1,6.19-6.35c3.5,0,5.55,2.27,5.55,5.7a8.55,8.55,0,0,1-.1,1.25H334.37v-1.6h9.05l-.53.57c0-2.87-1.42-4.3-3.65-4.3s-4.19,1.7-4.19,4.73a4.4,4.4,0,0,0,4.74,4.75,6.62,6.62,0,0,0,3.7-1.15l.75,1.35a8.33,8.33,0,0,1-4.7,1.45C335.89,261.83,333,259.48,333,255.43Z"/><path d="M351.44,256.8v-5.75H348V249.5l3.52-.12.28-3.9h1.72v3.9h6v1.67h-6v5.78c0,2.17.72,3.3,3.07,3.3a8.05,8.05,0,0,0,2.9-.55l.45,1.52a10.57,10.57,0,0,1-3.8.73C352.59,261.83,351.44,259.8,351.44,256.8Z"/><path d="M362.35,245.13h2.24l2.63,8.85c.57,1.92,1,3.5,1.57,5.4h.1c.6-1.9,1-3.48,1.58-5.4l2.62-8.85h2.15l-5.2,16.4h-2.45Z"/><path d="M378,255.43a6.1,6.1,0,0,1,6.19-6.35c3.5,0,5.55,2.27,5.55,5.7a8.55,8.55,0,0,1-.1,1.25H379.37v-1.6h9.05l-.53.57c0-2.87-1.42-4.3-3.65-4.3s-4.19,1.7-4.19,4.73a4.4,4.4,0,0,0,4.74,4.75,6.62,6.62,0,0,0,3.7-1.15l.75,1.35a8.33,8.33,0,0,1-4.7,1.45C380.89,261.83,378,259.48,378,255.43Z"/><path d="M394.92,249.38h1.72l.2,2.87h.05a6.43,6.43,0,0,1,5.43-3.17,5,5,0,0,1,2.4.5l-.48,1.77A6.2,6.2,0,0,0,402,251c-1.82,0-3.55.93-5,3.48v7.1h-2.07Z"/><path d="M411.44,256.8v-5.75H408V249.5l3.52-.12.28-3.9h1.72v3.9h6v1.67h-6v5.78c0,2.17.72,3.3,3.07,3.3a8.05,8.05,0,0,0,2.9-.55l.45,1.52a10.57,10.57,0,0,1-3.8.73C412.59,261.83,411.44,259.8,411.44,256.8Z"/><path d="M429.17,251.05h-5.62v-1.67h7.69v12.15h-2.07Zm-.83-5.82a1.65,1.65,0,1,1,1.65,1.6A1.56,1.56,0,0,1,428.34,245.23Z"/><path d="M438.3,255.48c0-4.08,3.09-6.4,6.77-6.4a6.19,6.19,0,0,1,4.42,1.77l-1,1.33a5,5,0,0,0-3.33-1.38,4.46,4.46,0,0,0-4.72,4.68,4.41,4.41,0,0,0,4.67,4.62,5.77,5.77,0,0,0,3.75-1.52l.93,1.35a7.25,7.25,0,0,1-4.83,1.9C441.14,261.83,438.3,259.5,438.3,255.48Z"/><path d="M477,243.78h1.85l-8.2,21.75h-1.85Z"/><path d="M492,243.78h1.85l-8.2,21.75h-1.85Z"/><path d="M138.12,290.3c5.4-4.77,8.35-7.57,8.35-10.22,0-1.83-1.1-3.1-3.45-3.1a5.47,5.47,0,0,0-3.82,1.9L138,277.7a7.1,7.1,0,0,1,5.27-2.42c3.2,0,5.2,1.88,5.2,4.7,0,3-3,6-7.33,9.9,1-.08,2-.13,3-.13h5.22v1.78H138.12Z"/><path d="M153.07,283.5c0-5.35,2.18-8.22,5.72-8.22s5.73,2.87,5.73,8.22-2.18,8.33-5.73,8.33S153.07,288.8,153.07,283.5Zm9.52,0c0-4.57-1.57-6.55-3.8-6.55s-3.79,2-3.79,6.55,1.57,6.65,3.79,6.65S162.59,288.08,162.59,283.5Zm-5.35-.17a1.55,1.55,0,1,1,1.55,1.67A1.55,1.55,0,0,1,157.24,283.33Z"/><path d="M168.72,289.8h4.6V278.1h-3.57v-1.35a11.46,11.46,0,0,0,4.09-1.17h1.55V289.8h4.15v1.73H168.72Z"/><path d="M183.27,290.15l1.15-1.3a4.7,4.7,0,0,0,3.17,1.25c2.58,0,4.85-1.82,4.85-7.15,0-3.92-1.52-6-4.15-6a3.29,3.29,0,0,0-3.37,3.47,3.05,3.05,0,0,0,3.4,3.38,5.61,5.61,0,0,0,4.15-2.25l.07,1.62a6.6,6.6,0,0,1-4.62,2.18c-2.95,0-4.95-1.65-4.95-4.93a5.14,5.14,0,0,1,5.3-5.12c3.47,0,6.12,2.55,6.12,7.67,0,6.4-3.22,8.88-6.67,8.88A6.44,6.44,0,0,1,183.27,290.15Z"/><path d="M213.42,282.5h10.75v1.55H213.42Z"/><path d="M243.62,279.38h1.7l.18,2.05h.09a6.3,6.3,0,0,1,4.58-2.35c2.87,0,4.2,1.7,4.2,4.9v7.55h-2.08v-7.28c0-2.3-.8-3.37-2.77-3.37-1.45,0-2.43.72-3.82,2.17v8.48h-2.08Z"/><path d="M258.22,286.93v-7.55h2.08v7.27c0,2.28.79,3.38,2.79,3.38,1.4,0,2.43-.65,3.78-2.23v-8.42h2.07v12.15h-1.72L267,289.4h-.1a5.89,5.89,0,0,1-4.52,2.43C259.55,291.83,258.22,290.13,258.22,286.93Z"/></svg>
